<?xml version="1.0" encoding="utf-8"?>
<!-- Generator: Adobe Illustrator 24.0.1, SVG Export Plug-In . SVG Version: 6.00 Build 0)  -->
<svg version="1.1" id="Layer_1" xmlns="http://www.w3.org/2000/svg" xmlns:xlink="http://www.w3.org/1999/xlink" x="0px" y="0px"
	 viewBox="0 0 335.3 469.7" style="enable-background:new 0 0 335.3 469.7;" xml:space="preserve">
<style type="text/css">
	.Arched_x0020_Green{fill:url(#SVGID_1_);stroke:#FFFFFF;stroke-width:0.25;stroke-miterlimit:1;}
	.st0{fill:#265AA6;}
	.st1{fill:#449DD7;}
	.st2{fill:#FFFFFF;}
	.st3{fill:url(#SVGID_2_);}
	.st4{fill:url(#SVGID_3_);}
	.st5{fill:url(#SVGID_4_);}
	.st6{opacity:5.000000e-02;}
	.st7{fill:url(#SVGID_5_);}
</style>
<linearGradient id="SVGID_1_" gradientUnits="userSpaceOnUse" x1="-253.2998" y1="532.4785" x2="-252.5927" y2="531.7714">
	<stop  offset="0" style="stop-color:#1DA238"/>
	<stop  offset="0.9831" style="stop-color:#24391D"/>
</linearGradient>
<g>
	<g>
		<polygon class="st0" points="303.9,433 167.6,469.7 31.4,433 0,92.5 335.3,92.5 		"/>
		<polygon class="st1" points="167.6,120.1 167.6,440.4 167.9,440.5 278.2,410.8 303.6,120.1 		"/>
		<g>
			<polygon class="st2" points="90.3,42.4 90.3,22.2 119.9,22.2 119.9,0 68.2,0 68.2,62.7 119.9,62.7 119.9,42.4 			"/>
			<path class="st2" d="M173.1,22.2h20.7V0H142c0,0,0,11.1,0,22.2c6.9,6.9,10.5,10.2,20.5,20.3c-5.9,0-20.5,0-20.5,0v20.2h51.8V42.4
				L173.1,22.2z"/>
			<path class="st2" d="M246.5,22.2h20.7V0h-51.8c0,0,0,11.1,0,22.2c6.9,6.9,10.5,10.2,20.6,20.3c-5.9,0-20.6,0-20.6,0v20.2h51.8
				V42.4L246.5,22.2z"/>
		</g>
		<g>
			<polygon class="st2" points="167.5,205.2 70,245.8 73.3,286 167.5,245.7 267.8,202.8 271.9,161.7 			"/>
			<linearGradient id="SVGID_2_" gradientUnits="userSpaceOnUse" x1="118.7759" y1="286.0039" x2="118.7759" y2="205.2026">
				<stop  offset="0.3865" style="stop-color:#DADADA;stop-opacity:0"/>
				<stop  offset="1" style="stop-color:#DADADA"/>
			</linearGradient>
			<polygon class="st3" points="70,245.8 73.3,286 167.5,245.7 167.5,205.2 			"/>
			<linearGradient id="SVGID_3_" gradientUnits="userSpaceOnUse" x1="219.7324" y1="245.7031" x2="219.7324" y2="161.7143">
				<stop  offset="0.3865" style="stop-color:#DADADA;stop-opacity:0"/>
				<stop  offset="1" style="stop-color:#DADADA"/>
			</linearGradient>
			<polygon class="st4" points="271.9,161.7 167.5,205.2 167.5,245.7 267.8,202.8 			"/>
			<linearGradient id="SVGID_4_" gradientUnits="userSpaceOnUse" x1="70.1802" y1="322.0429" x2="264.2441" y2="322.0429">
				<stop  offset="0" style="stop-color:#EEEDED"/>
				<stop  offset="1" style="stop-color:#FFFFFF"/>
			</linearGradient>
			<polygon class="st5" points="70.2,245.8 73.4,286 218,286.5 214.8,340.1 167.2,353.5 121.5,341.9 118.7,308.6 76.2,308.6 
				81.7,372.9 167.7,398.3 253.2,373.3 264.2,245.8 			"/>
			<g class="st6">
				<polygon points="167.5,245.8 70,245.8 73.3,286 167.5,286.3 				"/>
				<polygon points="167.5,353.3 167.1,353.5 121.3,341.9 118.5,308.6 76,308.6 81.6,372.9 167.5,398.3 				"/>
			</g>
			<linearGradient id="SVGID_5_" gradientUnits="userSpaceOnUse" x1="61.2515" y1="182.2751" x2="271.9434" y2="182.2751">
				<stop  offset="0" style="stop-color:#EEEDED"/>
				<stop  offset="1" style="stop-color:#FFFFFF"/>
			</linearGradient>
			<polygon class="st7" points="61.3,161.7 271.9,161.7 267.8,202.8 66.3,202.8 			"/>
			<polygon class="st6" points="167.5,161.7 61.3,161.7 66.3,202.8 167.5,202.8 			"/>
		</g>
	</g>
</g>
</svg>
