<?xml version="1.0" encoding="utf-8"?>
<!-- Generator: Adobe Illustrator 24.0.1, SVG Export Plug-In . SVG Version: 6.00 Build 0)  -->
<svg version="1.1" id="Layer_1" xmlns="http://www.w3.org/2000/svg" xmlns:xlink="http://www.w3.org/1999/xlink" x="0px" y="0px"
	 viewBox="0 0 180 28.199" enable-background="new 0 0 180 28.199" xml:space="preserve">
<g>
	<path fill="#EA4335" d="M21.172,7.397h0.106l-0.064-0.053l4.009-4.009l0.008-0.072c-3.375-2.98-8.057-4.007-12.37-2.714
		C8.547,1.848,5.207,5.276,4.025,9.622c0.07-0.028,0.142-0.052,0.215-0.07C5.729,8.571,7.5,8.008,9.369,7.995
		c0.622-0.002,1.238,0.058,1.838,0.175c0.031-0.018,0.06-0.027,0.085-0.022c2.582-2.836,6.922-3.164,9.901-0.751H21.172
		L21.172,7.397z"/>
	<path fill="#4285F4" d="M29.223,9.622c-0.668-2.453-2.036-4.658-3.938-6.348l-4.071,4.071c1.718,1.405,2.697,3.518,2.656,5.74
		v0.721c4.829,0,4.829,7.246,0,7.246h-7.246l-0.011,0.012v5.75h-0.03l0.042,0.042h7.246c4.156,0.032,7.839-2.661,9.075-6.63
		C34.174,16.258,32.662,11.949,29.223,9.622L29.223,9.622z"/>
	<path fill="#34A853" d="M9.369,26.811h7.244v-5.798H9.369c-0.512,0-1.022-0.11-1.488-0.325l-4.19,4.188L3.681,24.92
		C5.319,26.154,7.317,26.822,9.369,26.811L9.369,26.811z"/>
	<path fill="#FBBC05" d="M9.369,7.995c-4.023,0.027-7.59,2.603-8.874,6.414c-1.288,3.816-0.004,8.025,3.186,10.478l4.204-4.202
		c-2.311-1.045-2.864-4.071-1.071-5.863c1.791-1.791,4.817-1.24,5.862,1.07l4.203-4.202C15.092,9.352,12.309,7.985,9.369,7.995
		L9.369,7.995z"/>
	<path fill="#5F6368" d="M52.661,22.762c-2.524,0.031-4.946-0.965-6.721-2.756c-1.824-1.723-2.847-4.129-2.816-6.636
		c-0.031-2.513,0.992-4.919,2.816-6.636c1.764-1.813,4.191-2.83,6.721-2.809c2.406-0.031,4.727,0.901,6.439,2.597l-1.813,1.84
		c-1.24-1.198-2.905-1.856-4.627-1.829c-1.813-0.027-3.547,0.715-4.787,2.035c-1.282,1.272-1.992,3.021-1.96,4.833
		c-0.016,1.787,0.689,3.508,1.96,4.77c2.624,2.614,6.848,2.661,9.525,0.112c0.801-0.875,1.288-1.988,1.394-3.164h-6.106v-2.608
		h8.645c0.085,0.525,0.116,1.059,0.102,1.59c0.106,2.221-0.7,4.393-2.232,6.006C57.5,21.881,55.12,22.846,52.661,22.762
		L52.661,22.762z M72.748,21.033c-2.41,2.307-6.211,2.307-8.617,0c-1.171-1.134-1.808-2.703-1.765-4.325
		c-0.043-1.627,0.599-3.196,1.765-4.325c2.406-2.305,6.207-2.305,8.617,0c1.167,1.129,1.803,2.699,1.76,4.325
		c0.043,1.622-0.598,3.19-1.769,4.325H72.748L72.748,21.033z M66.033,19.332c1.299,1.389,3.51,1.389,4.813,0
		c0.679-0.705,1.045-1.647,1.018-2.623c0.027-0.981-0.339-1.935-1.018-2.638c-1.32-1.374-3.519-1.374-4.833,0
		c-0.683,0.704-1.05,1.657-1.018,2.638c-0.027,0.976,0.345,1.924,1.028,2.623H66.033L66.033,19.332z M86,21.033
		c-2.411,2.307-6.212,2.307-8.623,0c-1.167-1.134-1.803-2.703-1.76-4.325c-0.043-1.627,0.593-3.196,1.76-4.325
		c2.411-2.311,6.212-2.311,8.623,0c1.166,1.129,1.802,2.699,1.76,4.325C87.802,18.331,87.165,19.899,86,21.033L86,21.033z
		 M79.279,19.332c1.304,1.389,3.515,1.389,4.819,0c0.679-0.705,1.043-1.647,1.018-2.623c0.026-0.981-0.339-1.935-1.018-2.638
		c-1.32-1.374-3.52-1.374-4.835,0c-0.684,0.704-1.048,1.657-1.018,2.638c-0.025,0.976,0.345,1.924,1.024,2.623H79.279L79.279,19.332
		z M94.708,28.195c-1.219,0.042-2.417-0.339-3.387-1.076c-0.865-0.653-1.548-1.516-1.977-2.508l2.322-0.965
		c0.254,0.594,0.646,1.113,1.151,1.515c0.535,0.436,1.213,0.664,1.902,0.642c0.886,0.053,1.75-0.281,2.369-0.918
		c0.615-0.737,0.917-1.685,0.848-2.644v-0.875h-0.095c-0.784,0.933-1.967,1.442-3.181,1.373c-1.548,0.005-3.022-0.637-4.071-1.771
		c-1.14-1.124-1.77-2.665-1.743-4.261c-0.027-1.612,0.598-3.164,1.743-4.298c1.044-1.134,2.523-1.782,4.071-1.782
		c0.646,0,1.283,0.144,1.872,0.419c0.503,0.222,0.958,0.551,1.319,0.965h0.096v-0.965h2.522v10.839
		c0.133,1.734-0.45,3.445-1.616,4.734C97.739,27.681,96.245,28.253,94.708,28.195L94.708,28.195z M94.894,20.382
		c0.88,0.016,1.722-0.355,2.3-1.018c0.626-0.72,0.959-1.654,0.923-2.608c0.036-0.97-0.292-1.919-0.923-2.655
		c-0.578-0.668-1.42-1.039-2.3-1.017c-0.906-0.016-1.771,0.35-2.385,1.017c-0.673,0.71-1.04,1.659-1.018,2.634
		c-0.022,0.97,0.35,1.909,1.018,2.608C93.118,20.015,93.988,20.393,94.894,20.382L94.894,20.382z M104.959,22.396h-2.66V4.608h2.66
		V22.396L104.959,22.396z M112.241,22.762c-1.606,0.042-3.158-0.589-4.282-1.738c-1.14-1.145-1.76-2.704-1.723-4.315
		c-0.058-1.621,0.541-3.191,1.66-4.357c1.059-1.113,2.538-1.733,4.071-1.701c0.698-0.005,1.393,0.128,2.036,0.397
		c0.582,0.233,1.112,0.579,1.557,1.018c0.387,0.371,0.726,0.785,1.018,1.229c0.239,0.382,0.44,0.779,0.6,1.193l0.276,0.694
		l-8.142,3.345c0.503,1.16,1.668,1.886,2.93,1.833c1.219,0,2.353-0.635,2.984-1.68l2.036,1.373c-0.52,0.742-1.187,1.372-1.955,1.854
		C114.388,22.487,113.329,22.783,112.241,22.762L112.241,22.762z M108.844,16.523l5.411-2.247c-0.164-0.397-0.461-0.725-0.842-0.928
		c-0.423-0.238-0.907-0.365-1.394-0.354c-0.827,0.02-1.617,0.365-2.188,0.965C109.135,14.626,108.774,15.564,108.844,16.523
		L108.844,16.523z"/>
	<path fill="#5F6368" d="M131.365,22.762c-2.285,0.037-4.484-0.854-6.091-2.475c-1.611-1.617-2.491-3.822-2.437-6.106
		c-0.054-2.279,0.826-4.484,2.437-6.106c1.606-1.617,3.806-2.513,6.091-2.471c2.316-0.074,4.536,0.917,6.037,2.688l-1.468,1.42
		c-1.098-1.379-2.794-2.157-4.559-2.084c-1.696-0.037-3.329,0.616-4.531,1.812c-1.246,1.251-1.914,2.974-1.839,4.74
		c-0.075,1.769,0.594,3.487,1.839,4.743c1.202,1.197,2.834,1.849,4.531,1.813c1.973,0.02,3.844-0.853,5.088-2.38l1.464,1.462
		c-0.764,0.917-1.729,1.654-2.816,2.147C133.935,22.507,132.659,22.783,131.365,22.762L131.365,22.762z"/>
	<polygon fill="#5F6368" points="139.76,22.396 141.864,22.396 141.864,5.96 139.76,5.96 139.76,22.396 	"/>
	<path fill="#5F6368" d="M145.305,12.505c2.3-2.283,6.011-2.283,8.305,0c1.092,1.151,1.675,2.688,1.627,4.273
		c0.049,1.585-0.534,3.121-1.627,4.272c-2.294,2.285-6.005,2.285-8.305,0c-1.087-1.151-1.674-2.687-1.627-4.272
		C143.63,15.193,144.218,13.656,145.305,12.505L145.305,12.505z M146.873,19.729c1.4,1.479,3.758,1.479,5.157,0
		c0.748-0.799,1.14-1.86,1.092-2.951c0.047-1.092-0.345-2.152-1.092-2.952c-1.399-1.479-3.757-1.479-5.157,0
		c-0.742,0.801-1.134,1.86-1.086,2.952c-0.043,1.086,0.349,2.147,1.096,2.942L146.873,19.729L146.873,19.729z"/>
	<path fill="#5F6368" d="M166.914,22.396h-2.035v-1.558h-0.064c-0.361,0.593-0.876,1.076-1.485,1.405
		c-0.635,0.366-1.357,0.561-2.088,0.561c-1.203,0.08-2.38-0.392-3.196-1.282c-0.769-0.976-1.156-2.2-1.087-3.44V11.16h2.104v6.535
		c0,2.093,0.927,3.143,2.777,3.143c0.837,0.026,1.632-0.355,2.141-1.018c0.545-0.694,0.832-1.553,0.821-2.433V11.16h2.11V22.396
		L166.914,22.396z"/>
	<path fill="#5F6368" d="M174.063,22.762c-1.446,0.006-2.82-0.626-3.762-1.723c-1.054-1.161-1.622-2.692-1.58-4.261
		c-0.042-1.575,0.526-3.101,1.58-4.267c0.943-1.093,2.316-1.722,3.762-1.718c0.801-0.009,1.596,0.175,2.301,0.553
		c0.626,0.312,1.149,0.784,1.527,1.372h0.09l-0.09-1.558v-5.2H180v16.436h-2.035v-1.558h-0.095c-0.376,0.588-0.901,1.06-1.527,1.373
		C175.643,22.581,174.859,22.773,174.063,22.762L174.063,22.762z M174.413,20.838c0.959,0.016,1.882-0.386,2.534-1.098
		c0.716-0.816,1.081-1.881,1.018-2.962c0.063-1.081-0.302-2.146-1.018-2.963c-1.367-1.5-3.726-1.5-5.088,0
		c-0.721,0.811-1.086,1.871-1.018,2.952c-0.068,1.082,0.297,2.142,1.018,2.953C172.506,20.446,173.438,20.854,174.413,20.838
		L174.413,20.838z"/>
</g>
</svg>
