<?xml version="1.0" encoding="utf-8"?>
<!-- Generator: Adobe Illustrator 24.0.1, SVG Export Plug-In . SVG Version: 6.00 Build 0)  -->
<svg version="1.1" id="Layer_1" xmlns="http://www.w3.org/2000/svg" xmlns:xlink="http://www.w3.org/1999/xlink" x="0px" y="0px"
	 viewBox="0 0 426.534 575.747" enable-background="new 0 0 426.534 575.747" xml:space="preserve">
<g>
	<path fill="#FFFFFF" d="M54.599,86.579c-0.094-0.003-0.171,0.075-0.17,0.171c0.001,0.094,0.078,0.172,0.171,0.172l18.142,0.002
		c0.097-0.002,0.171-0.078,0.171-0.172c0-0.098-0.075-0.174-0.171-0.174L54.599,86.579z"/>
	<path fill="#FFFFFF" d="M75.767,86.577c-0.097,0-0.172,0.076-0.172,0.173c0,0.097,0.075,0.173,0.173,0.173l3.023-0.002
		c0.097,0,0.171-0.075,0.171-0.172c0.002-0.097-0.075-0.173-0.173-0.173H75.767z"/>
	<path fill="#FFFFFF" d="M21.339,86.577c-0.095,0-0.173,0.078-0.171,0.173c-0.001,0.095,0.073,0.172,0.17,0.17l3.023,0.002
		c0.097,0,0.173-0.076,0.171-0.172c0.001-0.097-0.075-0.173-0.171-0.173H21.339z"/>
	<path fill="#FFFFFF" d="M0.173,86.576c-0.097,0.002-0.171,0.076-0.171,0.174c0,0.095,0.075,0.172,0.17,0.172h18.142
		c0.095,0,0.173-0.078,0.174-0.174c-0.003-0.092-0.079-0.17-0.171-0.172H0.173z"/>
	<path fill="#FFFFFF" d="M48.554,86.577c-0.097,0-0.17,0.076-0.171,0.173c0,0.095,0.075,0.172,0.17,0.17h3.026
		c0.094,0.002,0.17-0.075,0.171-0.171c0.002-0.097-0.076-0.173-0.171-0.172H48.554z"/>
	<path fill="#FFFFFF" d="M81.815,86.577c-0.097,0-0.171,0.076-0.171,0.172c0,0.097,0.075,0.173,0.171,0.171l18.146,0.002
		c0.094,0,0.17-0.076,0.171-0.172c-0.003-0.097-0.077-0.173-0.174-0.173H81.815z"/>
	<path fill="#FFFFFF" d="M293.484,86.579c-0.097,0-0.171,0.075-0.17,0.171c-0.001,0.095,0.076,0.172,0.17,0.17h3.022
		c0.098,0,0.173-0.075,0.173-0.171c0.001-0.095-0.075-0.172-0.171-0.172L293.484,86.579z"/>
	<path fill="#FFFFFF" d="M284.786,86.577v-4.933c0-0.097-0.076-0.171-0.173-0.171c-0.095,0.001-0.17,0.075-0.173,0.174v4.93h-12.126
		c-0.092-0.002-0.171,0.076-0.168,0.173c0.003,0.095,0.076,0.17,0.17,0.173l12.124-0.002l0.001,12.865
		c0,0.097,0.076,0.175,0.172,0.173c0.098,0,0.173-0.075,0.173-0.173l-0.001-12.865l5.675,0.002c0.1-0.005,0.171-0.078,0.173-0.173
		c0-0.098-0.075-0.173-0.173-0.174L284.786,86.577z"/>
	<path fill="#FFFFFF" d="M326.749,86.577c-0.098,0-0.173,0.076-0.172,0.17c-0.004,0.098,0.074,0.177,0.173,0.171h18.14
		c0.097,0.003,0.173-0.076,0.17-0.169c0.001-0.097-0.075-0.173-0.172-0.173H326.749z"/>
	<path fill="#FFFFFF" d="M320.698,86.577c-0.094,0-0.17,0.079-0.173,0.174c0.003,0.094,0.079,0.17,0.173,0.173l3.026-0.003
		c0.094,0,0.171-0.078,0.173-0.173c-0.003-0.094-0.079-0.172-0.171-0.172H320.698z"/>
	<path fill="#FFFFFF" d="M245.103,86.577c-0.098,0-0.176,0.079-0.171,0.173c-0.001,0.097,0.073,0.172,0.17,0.172h18.144
		c0.094,0.003,0.171-0.075,0.173-0.172c0-0.097-0.078-0.173-0.173-0.173H245.103z"/>
	<path fill="#FFFFFF" d="M266.273,86.576c-0.095,0.002-0.173,0.078-0.173,0.174c-0.001,0.095,0.075,0.173,0.171,0.172h3.022
		c0.097,0.003,0.17-0.072,0.174-0.173c-0.004-0.094-0.08-0.172-0.173-0.173H266.273z"/>
	<path fill="#FFFFFF" d="M239.054,86.576c-0.097,0.005-0.17,0.079-0.168,0.172c-0.003,0.101,0.072,0.176,0.17,0.173l3.025,0.004
		c0.095-0.003,0.173-0.08,0.172-0.173c0.003-0.101-0.074-0.176-0.173-0.174L239.054,86.576z"/>
	<path fill="#FFFFFF" d="M375.13,86.576c-0.1,0.005-0.174,0.079-0.173,0.174c-0.001,0.097,0.073,0.174,0.171,0.17l3.022,0.004
		c0.098-0.003,0.173-0.079,0.173-0.174c0.001-0.098-0.072-0.174-0.172-0.173L375.13,86.576z"/>
	<path fill="#FFFFFF" d="M381.178,86.577c-0.098,0-0.174,0.078-0.171,0.172c-0.001,0.097,0.075,0.171,0.171,0.173h18.142
		c0.094,0.003,0.171-0.075,0.171-0.172c0-0.097-0.075-0.173-0.17-0.174L381.178,86.577z"/>
	<path fill="#FFFFFF" d="M217.889,86.577c-0.095,0-0.17,0.075-0.173,0.173c0,0.095,0.079,0.172,0.173,0.172l18.14,0.002
		c0.101-0.005,0.176-0.079,0.174-0.173c0-0.094-0.077-0.171-0.173-0.173H217.889z"/>
	<path fill="#FFFFFF" d="M426.534,86.577h-18.146c-0.092,0-0.17,0.078-0.171,0.173c0.001,0.095,0.078,0.172,0.173,0.173h18.143"/>
	<path fill="#FFFFFF" d="M353.962,86.576c-0.095,0.002-0.173,0.078-0.175,0.174c0.003,0.095,0.079,0.172,0.175,0.173l18.142,0.001
		c0.098-0.006,0.176-0.08,0.173-0.174c0.003-0.098-0.075-0.174-0.17-0.171L353.962,86.576z"/>
	<path fill="#FFFFFF" d="M347.914,86.577c-0.097,0-0.171,0.075-0.171,0.173c-0.001,0.095,0.076,0.172,0.171,0.172h3.025
		c0.094,0.003,0.172-0.075,0.17-0.17c0.001-0.097-0.075-0.174-0.173-0.174H347.914z"/>
	<path fill="#FFFFFF" d="M299.533,86.577c-0.097,0-0.171,0.076-0.173,0.172c0,0.097,0.073,0.174,0.173,0.171l18.144,0.002
		c0.095,0.002,0.17-0.075,0.17-0.172c0-0.098-0.075-0.174-0.171-0.173H299.533z"/>
	<path fill="#FFFFFF" d="M136.245,86.577c-0.097-0.002-0.173,0.076-0.173,0.173c0.003,0.095,0.079,0.172,0.173,0.172l18.143,0.003
		c0.097-0.004,0.171-0.08,0.171-0.171c0.003-0.101-0.073-0.177-0.174-0.174L136.245,86.577z"/>
	<path fill="#FFFFFF" d="M130.196,86.576c-0.097,0.002-0.171,0.079-0.174,0.174c0.001,0.095,0.078,0.172,0.174,0.173l3.023-0.002
		c0.095,0.003,0.173-0.076,0.172-0.172c-0.001-0.095-0.078-0.173-0.173-0.173L130.196,86.576z"/>
	<path fill="#FFFFFF" d="M109.031,86.577c-0.097,0-0.173,0.076-0.173,0.174c-0.002,0.095,0.075,0.173,0.172,0.172l18.143-0.002
		c0.097,0,0.17-0.075,0.17-0.172c0.003-0.097-0.075-0.173-0.17-0.173H109.031z"/>
	<path fill="#FFFFFF" d="M102.985,86.577c-0.098,0-0.173,0.076-0.173,0.173c0,0.095,0.078,0.172,0.17,0.172l3.024,0.002
		c0.095-0.002,0.17-0.076,0.174-0.173c-0.003-0.097-0.079-0.173-0.173-0.173H102.985z"/>
	<path fill="#FFFFFF" d="M160.434,86.922c0.098,0,0.173-0.075,0.173-0.174c0-0.094-0.076-0.17-0.171-0.172l-3.023,0.002
		c-0.095-0.002-0.171,0.076-0.173,0.174c0,0.094,0.076,0.17,0.171,0.172L160.434,86.922z"/>
	<path fill="#FFFFFF" d="M184.624,86.577c-0.094,0-0.171,0.079-0.173,0.174c0.003,0.094,0.079,0.17,0.173,0.173l3.026-0.003
		c0.094,0,0.171-0.078,0.171-0.172c-0.002-0.095-0.078-0.173-0.171-0.173H184.624z"/>
	<path fill="#FFFFFF" d="M211.841,86.577c-0.095,0-0.17,0.075-0.173,0.174c0.003,0.094,0.078,0.17,0.173,0.173l3.026-0.003
		c0.092,0.003,0.17-0.075,0.172-0.172c0-0.097-0.076-0.173-0.173-0.173H211.841z"/>
	<path fill="#FFFFFF" d="M190.676,86.576c-0.101,0.002-0.176,0.078-0.173,0.173c-0.003,0.098,0.073,0.174,0.171,0.171l18.146-0.001
		c0.094,0.005,0.171-0.073,0.171-0.171c-0.003-0.092-0.079-0.17-0.173-0.172H190.676z"/>
	<path fill="#FFFFFF" d="M163.829,86.577v-4.932c0.001-0.098-0.073-0.173-0.169-0.173c-0.098,0-0.174,0.076-0.173,0.171
		l-0.001,4.933h-0.026c-0.098,0-0.171,0.075-0.171,0.173c0,0.095,0.075,0.172,0.173,0.172h0.025l0.001,12.865
		c0,0.097,0.076,0.175,0.173,0.173c0.097,0,0.17-0.076,0.169-0.172V86.922h17.774c0.098,0,0.173-0.075,0.173-0.172
		c0-0.098-0.078-0.174-0.173-0.173H163.829z"/>
	<path fill="#FFFFFF" d="M217.889,132.542c-0.097,0-0.172,0.075-0.172,0.171c-0.001,0.095,0.075,0.172,0.172,0.172l18.141,0.001
		c0.1-0.001,0.173-0.076,0.173-0.172c0-0.1-0.075-0.174-0.173-0.171L217.889,132.542z"/>
	<path fill="#FFFFFF" d="M211.841,132.54c-0.095-0.001-0.173,0.078-0.173,0.173c0,0.095,0.078,0.172,0.173,0.173l3.023-0.001
		c0.098,0,0.176-0.078,0.174-0.173c-0.001-0.094-0.076-0.17-0.173-0.173L211.841,132.54z"/>
	<path fill="#FFFFFF" d="M130.196,132.543c-0.097,0-0.171,0.075-0.171,0.171c-0.001,0.095,0.075,0.17,0.171,0.17h3.023
		c0.095,0,0.172-0.076,0.172-0.173c0.002-0.095-0.075-0.173-0.172-0.171L130.196,132.543z"/>
	<path fill="#FFFFFF" d="M190.673,132.54c-0.095,0-0.173,0.078-0.173,0.174c0.005,0.094,0.078,0.17,0.173,0.173l18.146-0.003
		c0.095,0,0.172-0.076,0.173-0.173c0-0.097-0.077-0.173-0.173-0.173L190.673,132.54z"/>
	<path fill="#FFFFFF" d="M239.054,132.54c-0.095,0-0.171,0.078-0.17,0.171c0,0.097,0.075,0.173,0.169,0.175l3.028-0.001
		c0.097-0.003,0.172-0.078,0.172-0.172c0.003-0.098-0.075-0.174-0.173-0.173H239.054z"/>
	<path fill="#FFFFFF" d="M184.626,132.54c-0.097,0-0.172,0.075-0.172,0.171c0,0.097,0.075,0.173,0.172,0.173h3.023
		c0.098,0,0.173-0.076,0.171-0.172c0-0.094-0.073-0.174-0.171-0.171L184.626,132.54z"/>
	<path fill="#FFFFFF" d="M136.245,132.54c-0.095,0.002-0.17,0.076-0.171,0.171c0,0.097,0.075,0.173,0.173,0.173h18.143
		c0.095,0,0.17-0.076,0.171-0.173c-0.002-0.094-0.078-0.171-0.173-0.171H136.245z"/>
	<path fill="#FFFFFF" d="M245.103,132.54c-0.098,0.003-0.173,0.078-0.173,0.173c0,0.098,0.075,0.173,0.174,0.172l18.142,0.001
		c0.095-0.001,0.17-0.075,0.173-0.175c-0.001-0.094-0.079-0.171-0.173-0.173L245.103,132.54z"/>
	<path fill="#FFFFFF" d="M157.413,132.884l3.022,0.001c0.097-0.001,0.173-0.079,0.173-0.172c0-0.098-0.073-0.174-0.173-0.171
		l-3.022-0.005c-0.097,0-0.173,0.078-0.171,0.173C157.241,132.808,157.318,132.884,157.413,132.884z"/>
	<path fill="#FFFFFF" d="M163.829,132.54v-2.514c0-0.095-0.073-0.171-0.169-0.173c-0.097,0-0.174,0.078-0.174,0.176l0.001,2.511
		h-0.026c-0.098,0-0.173,0.076-0.173,0.173c-0.003,0.095,0.073,0.173,0.17,0.172h0.026l0.001,0.168
		c0.001,0.094,0.078,0.17,0.173,0.171c0.097-0.001,0.171-0.077,0.17-0.173l0.003-0.167h17.771c0.095,0,0.173-0.076,0.17-0.173
		c0.002-0.095-0.075-0.171-0.17-0.171H163.829z"/>
	<path fill="#FFFFFF" d="M353.961,132.54c-0.095,0-0.173,0.078-0.172,0.171c-0.001,0.097,0.076,0.173,0.173,0.173l18.143,0.001
		c0.098-0.001,0.176-0.079,0.173-0.173c0.001-0.1-0.075-0.174-0.171-0.173H353.961z"/>
	<path fill="#FFFFFF" d="M375.127,132.544c-0.092-0.005-0.171,0.073-0.171,0.168c0.003,0.095,0.078,0.172,0.173,0.173h3.023
		c0.1-0.003,0.172-0.075,0.172-0.175c0-0.097-0.073-0.173-0.17-0.17L375.127,132.544z"/>
	<path fill="#FFFFFF" d="M381.178,132.538c-0.1,0.005-0.174,0.079-0.174,0.173c0,0.1,0.076,0.175,0.174,0.173h18.14
		c0.098,0,0.171-0.075,0.173-0.173c0-0.095-0.076-0.171-0.171-0.173H381.178z"/>
	<path fill="#FFFFFF" d="M426.534,132.542H408.39c-0.095,0.001-0.168,0.073-0.168,0.17c-0.001,0.097,0.073,0.173,0.171,0.173h18.142
		"/>
	<path fill="#FFFFFF" d="M347.914,132.54c-0.095,0-0.173,0.076-0.173,0.173c-0.001,0.097,0.078,0.173,0.172,0.172l3.023,0.001
		c0.098-0.001,0.173-0.076,0.173-0.175c0.001-0.094-0.075-0.171-0.173-0.171H347.914z"/>
	<path fill="#FFFFFF" d="M402.34,132.886l3.025-0.001c0.018,0.001,0.016-0.026,0.028-0.026l0.003,0.19
		c-0.003,0.1,0.073,0.177,0.173,0.173c0.094,0.003,0.171-0.075,0.171-0.173l-0.004-3.017c0.003-0.1-0.072-0.177-0.171-0.173
		c-0.094-0.003-0.165,0.07-0.171,0.17l0.003,2.542c-0.016-0.005-0.013-0.028-0.029-0.031l-3.025,0.001
		c-0.097,0-0.171,0.075-0.173,0.173C402.17,132.808,402.245,132.884,402.34,132.886z"/>
	<path fill="#FFFFFF" d="M266.268,132.544c-0.094-0.005-0.168,0.073-0.168,0.17c0.001,0.092,0.077,0.169,0.171,0.172l3.023-0.001
		c0.092,0.001,0.17-0.076,0.171-0.173c-0.003-0.092-0.079-0.167-0.173-0.171L266.268,132.544z"/>
	<path fill="#FFFFFF" d="M284.786,132.538v-2.511c-0.001-0.097-0.076-0.173-0.173-0.171c-0.095-0.003-0.173,0.075-0.17,0.168
		l-0.001,2.515l-12.126-0.001c-0.094,0.001-0.167,0.078-0.171,0.174c0.001,0.095,0.078,0.172,0.171,0.172h12.123l0.001,0.168
		c0.001,0.094,0.078,0.17,0.173,0.17c0.095,0.003,0.173-0.075,0.173-0.173v-0.165h5.675c0.097,0,0.173-0.076,0.173-0.173
		c-0.003-0.095-0.078-0.171-0.173-0.173H284.786z"/>
	<path fill="#FFFFFF" d="M299.531,132.54c-0.098,0-0.171,0.076-0.17,0.171c-0.001,0.098,0.075,0.175,0.171,0.173h18.142
		c0.098,0,0.173-0.075,0.173-0.173c0-0.094-0.075-0.171-0.17-0.171H299.531z"/>
	<path fill="#FFFFFF" d="M320.699,132.54c-0.095,0.002-0.17,0.076-0.172,0.171c0,0.097,0.075,0.173,0.173,0.173h3.023
		c0.097,0.001,0.173-0.075,0.17-0.172c0.002-0.098-0.073-0.174-0.171-0.171L320.699,132.54z"/>
	<path fill="#FFFFFF" d="M326.747,132.54c-0.095,0-0.173,0.078-0.172,0.171c0,0.097,0.078,0.173,0.172,0.173l18.143,0.001
		c0.095-0.001,0.172-0.081,0.17-0.172c0-0.097-0.075-0.173-0.172-0.171L326.747,132.54z"/>
	<path fill="#FFFFFF" d="M293.484,132.54c-0.1,0.003-0.173,0.078-0.173,0.174c0,0.097,0.075,0.172,0.17,0.17l3.026,0.001
		c0.097-0.001,0.174-0.079,0.171-0.172c0-0.097-0.076-0.174-0.173-0.173L293.484,132.54z"/>
	<path fill="#FFFFFF" d="M21.338,132.542c-0.097,0-0.171,0.075-0.17,0.17c0,0.097,0.076,0.173,0.173,0.173l3.02,0.001
		c0.095-0.001,0.174-0.079,0.171-0.172c0-0.097-0.076-0.174-0.171-0.171L21.338,132.542z"/>
	<path fill="#FFFFFF" d="M0.171,132.54c-0.097,0-0.171,0.078-0.171,0.171c0,0.098,0.075,0.173,0.173,0.173h18.143
		c0.095,0.001,0.171-0.075,0.17-0.173c0-0.094-0.076-0.171-0.171-0.171H0.171z"/>
	<path fill="#FFFFFF" d="M27.384,132.884l15.149-0.001l0.001,0.17c-0.003,0.094,0.073,0.171,0.17,0.17
		c0.097-0.001,0.173-0.076,0.171-0.172l0.001-0.168l2.65,0.001c0.097,0,0.171-0.075,0.171-0.173
		c0.001-0.095-0.075-0.171-0.173-0.171l-2.65-0.001l0.001-2.511c-0.001-0.097-0.078-0.171-0.173-0.174
		c-0.095,0.003-0.173,0.081-0.172,0.171v2.514H27.386c-0.098,0.003-0.173,0.078-0.174,0.173
		C27.212,132.808,27.289,132.886,27.384,132.884z"/>
	<path fill="#FFFFFF" d="M48.553,132.54c-0.095,0-0.17,0.076-0.171,0.171c0,0.098,0.076,0.175,0.173,0.175h3.023
		c0.097-0.001,0.171-0.076,0.173-0.173c-0.001-0.098-0.076-0.173-0.171-0.173H48.553z"/>
	<path fill="#FFFFFF" d="M81.815,132.542c-0.098-0.002-0.171,0.073-0.171,0.171c-0.002,0.095,0.073,0.172,0.171,0.172h18.143
		c0.098,0,0.173-0.074,0.174-0.173c-0.001-0.094-0.077-0.171-0.171-0.171L81.815,132.542z"/>
	<path fill="#FFFFFF" d="M109.031,132.538c-0.097,0-0.174,0.079-0.171,0.173c0,0.095,0.076,0.173,0.173,0.173l18.139,0.001
		c0.097,0,0.174-0.079,0.172-0.172c0-0.097-0.072-0.174-0.169-0.174L109.031,132.538z"/>
	<path fill="#FFFFFF" d="M102.983,132.54c-0.097,0.002-0.171,0.076-0.171,0.171c0,0.097,0.075,0.173,0.171,0.173l3.022,0.001
		c0.095-0.001,0.173-0.079,0.174-0.175c-0.001-0.095-0.079-0.171-0.173-0.173L102.983,132.54z"/>
	<path fill="#FFFFFF" d="M75.769,132.538c-0.095,0-0.173,0.079-0.174,0.174c0.001,0.095,0.077,0.172,0.173,0.173l3.023-0.001
		c0.098,0,0.174-0.078,0.173-0.172c0-0.095-0.076-0.173-0.173-0.173L75.769,132.538z"/>
	<path fill="#FFFFFF" d="M54.602,132.54c-0.097,0-0.174,0.078-0.171,0.171c-0.001,0.097,0.075,0.173,0.171,0.172l18.142,0.001
		c0.094,0,0.17-0.075,0.17-0.17c0-0.097-0.076-0.173-0.173-0.171L54.602,132.54z"/>
	<path fill="#FFFFFF" d="M217.889,243.82c-0.095,0-0.172,0.076-0.174,0.176c0.001,0.091,0.079,0.17,0.174,0.164l18.141,0.006
		c0.098,0,0.173-0.079,0.174-0.176c-0.001-0.091-0.079-0.17-0.173-0.173L217.889,243.82z"/>
	<path fill="#FFFFFF" d="M190.673,243.817c-0.095,0.003-0.17,0.079-0.173,0.173c0,0.097,0.078,0.176,0.174,0.176l18.144-0.003
		c0.094,0.003,0.172-0.076,0.17-0.167c0.002-0.097-0.076-0.176-0.172-0.176L190.673,243.817z"/>
	<path fill="#FFFFFF" d="M211.841,243.82c-0.095,0-0.17,0.073-0.172,0.173c0.003,0.094,0.079,0.17,0.173,0.17h3.022
		c0.097-0.003,0.173-0.076,0.174-0.17c0.002-0.097-0.076-0.173-0.173-0.173H211.841z"/>
	<path fill="#FFFFFF" d="M184.626,243.82c-0.097,0-0.173,0.079-0.172,0.173c-0.001,0.094,0.075,0.167,0.17,0.173h3.026
		c0.097,0,0.17-0.082,0.168-0.173c0.003-0.094-0.075-0.173-0.168-0.176L184.626,243.82z"/>
	<path fill="#FFFFFF" d="M136.245,243.82c-0.095,0-0.171,0.079-0.171,0.173c-0.001,0.094,0.076,0.17,0.173,0.17l18.143-0.003
		c0.097,0,0.17-0.073,0.17-0.17c0-0.091-0.075-0.17-0.171-0.17H136.245z"/>
	<path fill="#FFFFFF" d="M0.173,243.817C0.076,243.82,0,243.899,0,243.99c0,0.097,0.076,0.176,0.173,0.173l18.14,0.003
		c0.1-0.006,0.173-0.079,0.173-0.176c-0.001-0.094-0.076-0.173-0.173-0.17L0.173,243.817z"/>
	<path fill="#FFFFFF" d="M168.667,243.82l0.001-9.507c-0.003-0.094-0.075-0.176-0.171-0.176l-4.667,0.003l0.001-16.422
		c-0.003-0.092-0.079-0.17-0.171-0.173c-0.097,0.003-0.174,0.08-0.173,0.173l-0.001,16.425l-4.667-0.003
		c-0.095,0.003-0.168,0.076-0.17,0.173v9.507h-1.236c-0.097,0-0.173,0.076-0.171,0.17c0,0.097,0.075,0.17,0.171,0.173l1.235,0.003
		l0.001,9.502c0,0.094,0.076,0.17,0.171,0.17h4.664l0.001,9.24c0.001,0.094,0.075,0.176,0.171,0.176
		c0.098,0,0.173-0.088,0.172-0.176l0.003-9.24h4.664c0.097,0,0.172-0.076,0.174-0.17l-0.003-9.502h12.936
		c0.097-0.003,0.171-0.082,0.173-0.176c0-0.091-0.078-0.17-0.173-0.17H168.667z M168.324,253.492h-4.495v-8.559
		c0-0.097-0.073-0.173-0.172-0.17c-0.094-0.003-0.171,0.073-0.171,0.17l0.001,8.559h-4.494l-0.001-9.329h1.446
		c0.094,0.003,0.17-0.076,0.17-0.17c0-0.097-0.075-0.173-0.173-0.173h-1.443l0.001-9.337h4.494v1.377
		c-0.001,0.097,0.076,0.176,0.173,0.176s0.169-0.079,0.17-0.176l-0.001-1.374h4.495l0.001,9.334h-4.865
		c-0.098,0-0.173,0.076-0.173,0.173c0,0.094,0.078,0.173,0.171,0.173h4.865V253.492z"/>
	<path fill="#FFFFFF" d="M266.271,243.82c-0.098,0-0.171,0.073-0.171,0.17c-0.003,0.097,0.075,0.176,0.171,0.176l3.023-0.006
		c0.098,0.003,0.173-0.076,0.173-0.17c0-0.094-0.078-0.17-0.173-0.17H266.271z"/>
	<path fill="#FFFFFF" d="M289.623,243.82v-9.507c-0.001-0.094-0.073-0.173-0.172-0.173l-4.667,0.003l0.001-16.425
		c-0.001-0.092-0.079-0.17-0.173-0.173c-0.095,0.003-0.173,0.08-0.173,0.173v16.425l-4.665-0.003
		c-0.097,0.003-0.172,0.079-0.172,0.173l-0.001,9.507h-7.286c-0.094-0.003-0.167,0.076-0.168,0.17
		c-0.002,0.097,0.075,0.173,0.173,0.173l7.281,0.003l0.001,9.502c-0.001,0.1,0.075,0.17,0.173,0.17h4.663l0.001,9.24
		c0,0.094,0.076,0.176,0.172,0.176c0.097,0,0.174-0.082,0.173-0.176v-9.24h4.667c0.098,0,0.172-0.07,0.172-0.17v-9.502l0.838-0.003
		c0.094,0.003,0.171-0.076,0.171-0.173c-0.001-0.094-0.078-0.17-0.171-0.17H289.623z M279.947,234.483h4.495v1.377
		c-0.001,0.097,0.076,0.176,0.172,0.176c0.097,0,0.171-0.079,0.173-0.176v-1.377l4.491,0.003l0.003,9.334h-9.332L279.947,234.483z
		 M289.277,253.498l-4.492-0.006l0.001-8.562c-0.001-0.094-0.078-0.167-0.174-0.167c-0.094-0.003-0.172,0.073-0.172,0.17
		l0.001,8.559h-4.492l-0.003-9.327h9.334L289.277,253.498z"/>
	<path fill="#FFFFFF" d="M239.055,243.82c-0.098,0-0.171,0.079-0.171,0.17c0,0.097,0.075,0.176,0.171,0.176h3.023
		c0.095,0,0.173-0.079,0.173-0.173c0-0.097-0.078-0.173-0.173-0.173H239.055z"/>
	<path fill="#FFFFFF" d="M245.102,243.82c-0.095,0-0.172,0.079-0.172,0.17c0.001,0.094,0.075,0.176,0.172,0.176h18.144
		c0.095-0.003,0.168-0.079,0.173-0.173c0-0.1-0.078-0.173-0.174-0.173H245.102z"/>
	<path fill="#FFFFFF" d="M102.983,243.817c-0.095,0.003-0.171,0.082-0.173,0.173c0,0.097,0.076,0.173,0.174,0.173l3.022,0.003
		c0.097-0.003,0.173-0.079,0.17-0.173c0.002-0.097-0.076-0.173-0.17-0.173L102.983,243.817z"/>
	<path fill="#FFFFFF" d="M21.339,243.82c-0.097,0-0.173,0.076-0.173,0.173c0,0.091,0.076,0.167,0.171,0.173l3.025-0.003
		c0.095,0.003,0.171-0.076,0.17-0.17c0.001-0.1-0.075-0.173-0.17-0.173H21.339z"/>
	<path fill="#FFFFFF" d="M48.553,243.82c-0.095,0-0.17,0.076-0.17,0.17c-0.003,0.097,0.075,0.176,0.171,0.176h3.022
		c0.097,0,0.173-0.079,0.174-0.176c-0.003-0.091-0.076-0.173-0.171-0.173L48.553,243.82z"/>
	<path fill="#FFFFFF" d="M81.814,243.82c-0.095,0-0.173,0.079-0.17,0.17c0,0.097,0.075,0.173,0.171,0.17l18.143,0.003
		c0.098,0,0.174-0.076,0.173-0.173c0.001-0.097-0.074-0.17-0.172-0.17H81.814z"/>
	<path fill="#FFFFFF" d="M293.484,243.82c-0.094,0-0.171,0.076-0.173,0.173c0.001,0.091,0.076,0.173,0.173,0.17l3.023,0.003
		c0.097-0.003,0.171-0.079,0.171-0.176c0.001-0.097-0.076-0.173-0.171-0.17H293.484z"/>
	<path fill="#FFFFFF" d="M109.029,243.82c-0.095,0-0.169,0.076-0.172,0.173c0.003,0.091,0.078,0.173,0.172,0.173h18.145
		c0.095-0.003,0.169-0.079,0.171-0.173c0.002-0.1-0.076-0.173-0.173-0.173H109.029z"/>
	<path fill="#FFFFFF" d="M130.196,243.82c-0.097,0-0.171,0.073-0.171,0.17c-0.001,0.097,0.076,0.176,0.171,0.173l3.026,0.003
		c0.095-0.006,0.169-0.079,0.171-0.176c-0.003-0.091-0.079-0.17-0.173-0.173L130.196,243.82z"/>
	<path fill="#FFFFFF" d="M75.767,243.82c-0.095,0-0.172,0.079-0.172,0.173c0.002,0.091,0.076,0.17,0.172,0.173l3.023-0.003
		c0.097-0.003,0.173-0.076,0.173-0.17c0.002-0.1-0.075-0.173-0.173-0.173H75.767z"/>
	<path fill="#FFFFFF" d="M54.604,243.82c-0.097,0-0.174,0.079-0.173,0.173c-0.001,0.094,0.075,0.17,0.171,0.173l18.142-0.003
		c0.095,0.003,0.173-0.076,0.17-0.17c0-0.1-0.075-0.173-0.171-0.173H54.604z"/>
	<path fill="#FFFFFF" d="M410.404,234.144l-4.667-0.003l0.001-16.418c0-0.097-0.073-0.178-0.171-0.173
		c-0.094-0.001-0.17,0.072-0.171,0.173l-0.001,16.421l-4.664-0.003c-0.098,0-0.174,0.079-0.173,0.173v19.355
		c-0.001,0.094,0.076,0.17,0.173,0.17l4.665,0.006l-0.001,9.234c0.001,0.094,0.076,0.176,0.173,0.176
		c0.094,0,0.17-0.082,0.171-0.176l-0.003-9.234l4.668-0.006"/>
	<path fill="#FFFFFF" d="M410.234,243.82h-1.843c-0.097,0-0.173,0.076-0.173,0.173c-0.003,0.094,0.073,0.173,0.171,0.173
		l1.846-0.006"/>
	<path fill="#FFFFFF" d="M410.237,253.492l-4.498,0.006l-0.001-8.565c0.003-0.097-0.073-0.173-0.17-0.173
		c-0.094,0-0.171,0.076-0.174,0.173l0.003,8.559h-4.494l-0.003-19.006l4.497-0.003l-0.003,1.383c0.001,0.091,0.079,0.17,0.171,0.17
		c0.097,0,0.174-0.079,0.171-0.173l0.003-1.377h4.496"/>
	<path fill="#FFFFFF" d="M375.13,243.817c-0.1,0.003-0.174,0.082-0.174,0.173c0,0.094,0.079,0.17,0.173,0.176l3.026-0.006
		c0.094,0.006,0.169-0.073,0.169-0.167c0-0.1-0.075-0.173-0.167-0.176H375.13z"/>
	<path fill="#FFFFFF" d="M353.961,243.82c-0.094,0-0.173,0.079-0.173,0.176c0.001,0.091,0.079,0.167,0.175,0.164l18.142,0.006
		c0.097,0,0.171-0.079,0.171-0.17c0.004-0.102-0.072-0.176-0.173-0.176H353.961z"/>
	<path fill="#FFFFFF" d="M347.914,243.82c-0.095,0-0.173,0.076-0.171,0.17c-0.003,0.097,0.075,0.176,0.17,0.173h3.026
		c0.094,0,0.169-0.076,0.173-0.17c-0.001-0.094-0.078-0.173-0.173-0.173H347.914z"/>
	<path fill="#FFFFFF" d="M326.746,243.82c-0.094,0-0.17,0.076-0.171,0.173c-0.002,0.094,0.076,0.173,0.174,0.173l18.142-0.003
		c0.095,0.003,0.173-0.079,0.172-0.17c0-0.1-0.076-0.173-0.172-0.173H326.746z"/>
	<path fill="#FFFFFF" d="M320.701,243.82c-0.097,0-0.173,0.079-0.172,0.17c-0.001,0.097,0.075,0.176,0.172,0.176l3.022-0.003
		c0.095,0.003,0.173-0.076,0.171-0.17c0.003-0.1-0.075-0.173-0.171-0.173H320.701z"/>
	<path fill="#FFFFFF" d="M381.177,243.82c-0.097,0-0.171,0.073-0.173,0.173c0.003,0.091,0.076,0.173,0.173,0.173h18.143
		c0.095-0.006,0.171-0.079,0.171-0.176c-0.001-0.091-0.078-0.17-0.171-0.17H381.177z"/>
	<path fill="#FFFFFF" d="M402.34,243.82c-0.094,0-0.17,0.079-0.171,0.176c0.001,0.091,0.078,0.17,0.174,0.164l3.023,0.006
		c0.095-0.003,0.171-0.079,0.174-0.176c-0.003-0.091-0.079-0.17-0.174-0.173L402.34,243.82z"/>
	<path fill="#FFFFFF" d="M299.531,243.817c-0.098,0-0.171,0.079-0.17,0.173c-0.001,0.097,0.072,0.176,0.17,0.17l18.146,0.006
		c0.097-0.003,0.169-0.079,0.17-0.176c0-0.094-0.073-0.17-0.17-0.17L299.531,243.817z"/>
	<path fill="#FFFFFF" d="M405.396,272.148l-0.001,16.423c0.001,0.094,0.076,0.176,0.173,0.176c0.097-0.006,0.171-0.082,0.173-0.182
		l-0.001-16.418c0-0.094-0.077-0.176-0.171-0.176C405.472,271.972,405.396,272.054,405.396,272.148z"/>
	<path fill="#FFFFFF" d="M405.736,136.076c0.003-0.098-0.072-0.171-0.17-0.17c-0.094-0.003-0.171,0.072-0.168,0.168l-0.001,18.142
		c0,0.098,0.076,0.174,0.171,0.171c0.098,0,0.173-0.076,0.17-0.17L405.736,136.076z"/>
	<path fill="#FFFFFF" d="M405.396,211.671l-0.003,3.025c0.003,0.094,0.079,0.17,0.174,0.174c0.097-0.005,0.174-0.084,0.173-0.174
		l-0.001-3.024c-0.001-0.091-0.075-0.174-0.171-0.171C405.474,211.497,405.397,211.575,405.396,211.671z"/>
	<path fill="#FFFFFF" d="M405.738,190.502c0-0.094-0.076-0.168-0.171-0.171c-0.097,0.003-0.17,0.076-0.171,0.171l-0.001,18.142
		c0.003,0.097,0.078,0.17,0.173,0.174c0.1,0,0.173-0.078,0.17-0.174L405.738,190.502z"/>
	<path fill="#FFFFFF" d="M405.738,184.457c-0.001-0.097-0.072-0.174-0.171-0.172c-0.094-0.003-0.168,0.074-0.173,0.173l0.003,3.022
		c-0.003,0.098,0.075,0.174,0.171,0.171c0.094,0,0.17-0.078,0.167-0.17L405.738,184.457z"/>
	<path fill="#FFFFFF" d="M405.396,86.607c-0.015-0.005-0.013-0.029-0.029-0.029h-3.026c-0.094,0-0.171,0.078-0.168,0.17
		c0,0.098,0.075,0.174,0.173,0.174h3.022c0.016,0,0.013-0.025,0.031-0.031l-0.004,12.896c0.003,0.097,0.079,0.172,0.174,0.173
		c0.097,0,0.173-0.076,0.168-0.17l0.003-18.145c0.001-0.095-0.076-0.173-0.171-0.171c-0.095-0.001-0.171,0.075-0.173,0.173
		L405.396,86.607z"/>
	<path fill="#FFFFFF" d="M405.394,78.622c0.003,0.094,0.079,0.17,0.173,0.173c0.094,0.002,0.17-0.076,0.173-0.173l-0.003-3.022
		c0.003-0.098-0.073-0.173-0.171-0.171c-0.094-0.004-0.17,0.073-0.168,0.169L405.394,78.622z"/>
	<path fill="#FFFFFF" d="M405.74,102.809c-0.001-0.095-0.075-0.169-0.17-0.172c-0.098,0.003-0.176,0.078-0.176,0.176l0.001,3.023
		c0.001,0.094,0.076,0.17,0.174,0.167c0.094,0.005,0.17-0.073,0.167-0.167L405.74,102.809z"/>
	<path fill="#FFFFFF" d="M405.74,163.285c-0.003-0.092-0.078-0.167-0.17-0.17c-0.1,0.003-0.174,0.076-0.174,0.173v18.145
		c-0.001,0.098,0.073,0.173,0.171,0.173c0.095,0,0.17-0.075,0.173-0.173V163.285z"/>
	<path fill="#FFFFFF" d="M405.738,157.241c0.001-0.095-0.075-0.173-0.171-0.173c-0.097,0.001-0.174,0.079-0.171,0.173l-0.001,3.023
		c0.001,0.095,0.078,0.173,0.173,0.173c0.097,0,0.171-0.077,0.17-0.173L405.738,157.241z"/>
	<path fill="#FFFFFF" d="M405.394,108.86v18.144c0.001,0.094,0.078,0.17,0.173,0.171c0.097-0.001,0.17-0.076,0.171-0.171
		l0.001-18.143c-0.001-0.098-0.076-0.173-0.173-0.173C405.472,108.687,405.393,108.765,405.394,108.86z"/>
	<path fill="#FFFFFF" d="M405.396,0l0.001,18.144c-0.001,0.095,0.075,0.171,0.171,0.171c0.094,0.003,0.17-0.076,0.17-0.171
		l-0.001-18.14"/>
	<path fill="#FFFFFF" d="M405.393,24.194c0.001,0.095,0.078,0.167,0.173,0.171c0.101-0.003,0.17-0.073,0.173-0.173l0.001-3.023
		c-0.001-0.097-0.076-0.171-0.173-0.173c-0.095,0-0.174,0.079-0.171,0.171L405.393,24.194z"/>
	<path fill="#FFFFFF" d="M405.393,238.889l0.003,3.02c0,0.094,0.076,0.17,0.171,0.17c0.097,0,0.174-0.076,0.171-0.17v-3.026
		c-0.003-0.091-0.075-0.173-0.171-0.17C405.472,238.714,405.396,238.79,405.393,238.889z"/>
	<path fill="#FFFFFF" d="M405.393,266.101l0.003,3.018c0,0.1,0.073,0.181,0.173,0.176c0.094,0.006,0.167-0.076,0.168-0.17
		l-0.001-3.023c0.003-0.094-0.07-0.176-0.17-0.17C405.471,265.925,405.399,266.002,405.393,266.101z"/>
	<path fill="#FFFFFF" d="M405.394,72.577c-0.001,0.095,0.075,0.172,0.173,0.172c0.097-0.005,0.168-0.078,0.173-0.174l-0.001-18.145
		c0-0.097-0.075-0.171-0.171-0.171c-0.094,0-0.168,0.075-0.171,0.171L405.394,72.577z"/>
	<path fill="#FFFFFF" d="M405.394,51.407c0,0.097,0.076,0.173,0.173,0.168c0.094,0.005,0.171-0.073,0.17-0.17l0.001-3.023
		c-0.001-0.095-0.075-0.174-0.171-0.17c-0.094-0.005-0.171,0.075-0.171,0.171L405.394,51.407z"/>
	<path fill="#FFFFFF" d="M405.396,45.358c-0.001,0.1,0.075,0.174,0.173,0.174c0.094,0,0.168-0.075,0.171-0.173l-0.001-18.145
		c0-0.094-0.075-0.168-0.171-0.171c-0.097,0-0.174,0.078-0.173,0.174L405.396,45.358z"/>
	<path fill="#FFFFFF" d="M284.444,72.574c-0.003,0.097,0.073,0.173,0.171,0.171c0.092,0.003,0.172-0.075,0.173-0.174l-0.002-18.142
		c-0.001-0.094-0.079-0.168-0.173-0.173c-0.097,0.003-0.174,0.081-0.173,0.174L284.444,72.574z"/>
	<path fill="#FFFFFF" d="M284.441,51.409c0,0.094,0.076,0.17,0.173,0.167c0.097,0.001,0.173-0.072,0.173-0.168l-0.001-3.026
		c0-0.094-0.078-0.17-0.171-0.17c-0.098,0.001-0.172,0.075-0.172,0.17L284.441,51.409z"/>
	<path fill="#FFFFFF" d="M284.444,78.619c-0.004,0.1,0.072,0.177,0.171,0.173c0.092,0.001,0.17-0.073,0.17-0.17V75.6
		c0-0.097-0.076-0.173-0.171-0.171c-0.097,0-0.173,0.075-0.172,0.171L284.444,78.619z"/>
	<path fill="#FFFFFF" d="M284.441,238.883v3.026c0.001,0.094,0.076,0.17,0.173,0.17c0.097,0,0.174-0.076,0.171-0.17l0.001-3.026
		c0-0.094-0.078-0.173-0.173-0.173C284.518,238.711,284.442,238.787,284.441,238.883z"/>
	<path fill="#FFFFFF" d="M284.441,266.101v3.023c0.001,0.1,0.078,0.17,0.173,0.176c0.097,0,0.171-0.076,0.173-0.176v-3.023
		c0-0.1-0.076-0.176-0.173-0.176C284.518,265.925,284.441,266.008,284.441,266.101z"/>
	<path fill="#FFFFFF" d="M284.442,272.148v16.418c-0.001,0.1,0.075,0.182,0.17,0.182c0.097,0,0.173-0.082,0.174-0.182l-0.001-16.418
		c0.001-0.094-0.075-0.176-0.171-0.17C284.517,271.978,284.441,272.054,284.442,272.148z"/>
	<path fill="#FFFFFF" d="M284.441,160.264c0.001,0.094,0.078,0.171,0.173,0.173c0.095,0,0.173-0.077,0.173-0.173l0.002-3.026
		c-0.003-0.092-0.079-0.17-0.173-0.171c-0.098,0.006-0.173,0.081-0.173,0.173L284.441,160.264z"/>
	<path fill="#FFFFFF" d="M284.441,45.361c0.001,0.094,0.078,0.171,0.173,0.173c0.095-0.002,0.173-0.079,0.171-0.171V27.219
		c0-0.098-0.078-0.173-0.171-0.173c-0.095-0.003-0.173,0.075-0.173,0.173V45.361z"/>
	<path fill="#FFFFFF" d="M284.785,105.836l0.001-3.023c0-0.098-0.076-0.173-0.173-0.173c-0.097,0.002-0.173,0.076-0.172,0.169
		l-0.001,3.028c0.003,0.094,0.078,0.169,0.173,0.173C284.709,106.008,284.788,105.93,284.785,105.836z"/>
	<path fill="#FFFFFF" d="M284.785,154.218v-18.14c0.001-0.098-0.076-0.173-0.173-0.173c-0.095-0.001-0.17,0.073-0.172,0.171
		l0.001,18.142c-0.001,0.097,0.075,0.173,0.172,0.171C284.707,154.391,284.785,154.314,284.785,154.218z"/>
	<path fill="#FFFFFF" d="M284.441,0.003l0.001,18.142c-0.001,0.097,0.076,0.173,0.172,0.171c0.097,0,0.17-0.073,0.173-0.171V0.002"
		/>
	<path fill="#FFFFFF" d="M284.441,24.193c0.001,0.097,0.076,0.171,0.173,0.173c0.095,0,0.171-0.075,0.173-0.173l-0.001-3.023
		c0-0.098-0.075-0.173-0.171-0.173c-0.097,0-0.172,0.075-0.172,0.173L284.441,24.193z"/>
	<path fill="#FFFFFF" d="M284.442,187.481c-0.001,0.095,0.076,0.173,0.172,0.17c0.097,0.001,0.171-0.073,0.173-0.173v-3.02
		c-0.004-0.095-0.079-0.172-0.173-0.173c-0.097,0.001-0.172,0.076-0.172,0.171V187.481z"/>
	<path fill="#FFFFFF" d="M284.441,181.435c0.003,0.094,0.078,0.17,0.173,0.17c0.094,0,0.173-0.076,0.171-0.17v-18.146
		c0.001-0.098-0.075-0.174-0.171-0.171c-0.097-0.003-0.174,0.075-0.174,0.171L284.441,181.435z"/>
	<path fill="#FFFFFF" d="M284.442,208.644c0,0.097,0.073,0.174,0.172,0.174c0.095,0,0.173-0.078,0.173-0.174v-18.142
		c-0.001-0.092-0.079-0.168-0.173-0.171c-0.097,0.003-0.174,0.08-0.173,0.173L284.442,208.644z"/>
	<path fill="#FFFFFF" d="M284.441,127.005c0.001,0.095,0.076,0.17,0.173,0.173c0.097-0.003,0.17-0.076,0.174-0.174l-0.002-18.144
		c-0.001-0.094-0.079-0.17-0.172-0.173c-0.1,0.004-0.174,0.077-0.174,0.174V127.005z"/>
	<path fill="#FFFFFF" d="M284.441,214.695c0,0.094,0.078,0.17,0.173,0.171c0.097-0.001,0.171-0.078,0.171-0.171l0.001-3.024
		c-0.003-0.094-0.076-0.17-0.173-0.17c-0.095-0.002-0.173,0.079-0.172,0.17L284.441,214.695z"/>
	<path fill="#FFFFFF" d="M163.486,181.435c0.001,0.092,0.078,0.17,0.173,0.17c0.097,0,0.173-0.078,0.17-0.17v-18.146
		c0.001-0.097-0.073-0.173-0.17-0.171c-0.095-0.002-0.173,0.073-0.173,0.17V181.435z"/>
	<path fill="#FFFFFF" d="M163.486,160.264c0.001,0.098,0.076,0.173,0.174,0.173c0.095,0,0.169-0.075,0.169-0.171v-3.025
		c0-0.097-0.073-0.171-0.172-0.171c-0.091-0.001-0.17,0.078-0.171,0.173V160.264z"/>
	<path fill="#FFFFFF" d="M163.486,208.648c0.001,0.092,0.076,0.17,0.171,0.17c0.098,0,0.174-0.078,0.172-0.172l0.001-18.141
		c0-0.098-0.075-0.173-0.173-0.173c-0.094,0-0.17,0.076-0.171,0.171V208.648z"/>
	<path fill="#FFFFFF" d="M163.487,214.692c-0.001,0.097,0.076,0.173,0.173,0.173c0.095,0,0.169-0.076,0.169-0.17v-3.024
		c0-0.091-0.073-0.171-0.17-0.17c-0.095-0.002-0.173,0.079-0.173,0.17L163.487,214.692z"/>
	<path fill="#FFFFFF" d="M163.83,241.91l-0.001-3.026c0.001-0.097-0.073-0.173-0.17-0.173c-0.097,0-0.171,0.076-0.173,0.173v3.026
		c0,0.094,0.078,0.17,0.173,0.17C163.755,242.08,163.83,242.007,163.83,241.91z"/>
	<path fill="#FFFFFF" d="M163.486,187.479c0,0.097,0.076,0.174,0.173,0.173c0.097,0,0.17-0.076,0.17-0.173l0.003-3.023
		c0-0.097-0.076-0.173-0.171-0.171c-0.097,0.001-0.174,0.079-0.173,0.171L163.486,187.479z"/>
	<path fill="#FFFFFF" d="M163.829,154.216l0.003-18.142c0-0.097-0.076-0.173-0.173-0.173c-0.097,0.001-0.173,0.078-0.171,0.173
		v18.143c-0.001,0.097,0.075,0.173,0.17,0.17C163.755,154.387,163.831,154.313,163.829,154.216z"/>
	<path fill="#FFFFFF" d="M163.486,266.101v3.023c0.001,0.1,0.078,0.17,0.173,0.176c0.097,0,0.17-0.082,0.169-0.176l0.003-3.029
		c-0.001-0.094-0.075-0.17-0.17-0.17C163.563,265.925,163.486,266.008,163.486,266.101z"/>
	<path fill="#FFFFFF" d="M163.487,272.148v16.418c-0.001,0.1,0.076,0.182,0.173,0.182c0.095,0,0.17-0.082,0.169-0.176v-16.423
		c0.003-0.094-0.073-0.176-0.17-0.17C163.56,271.978,163.486,272.054,163.487,272.148z"/>
	<path fill="#FFFFFF" d="M163.487,45.359c-0.003,0.098,0.073,0.176,0.171,0.173c0.097,0,0.17-0.075,0.17-0.173V27.217
		c0-0.097-0.073-0.171-0.169-0.174c-0.098,0.003-0.174,0.078-0.171,0.171L163.487,45.359z"/>
	<path fill="#FFFFFF" d="M163.487,51.406c-0.001,0.097,0.076,0.171,0.171,0.171c0.097,0,0.171-0.075,0.17-0.168v-3.025
		c0.003-0.098-0.073-0.176-0.172-0.173c-0.094-0.003-0.171,0.076-0.17,0.17V51.406z"/>
	<path fill="#FFFFFF" d="M163.487,0.002v18.143c0,0.097,0.075,0.171,0.173,0.171c0.095,0,0.17-0.075,0.17-0.171V0.002"/>
	<path fill="#FFFFFF" d="M163.484,24.196c0.003,0.094,0.078,0.168,0.173,0.17c0.098-0.003,0.172-0.076,0.172-0.173v-3.023
		c0.001-0.098-0.073-0.173-0.17-0.173c-0.098,0-0.176,0.079-0.171,0.173L163.484,24.196z"/>
	<path fill="#FFFFFF" d="M163.486,72.577c0.001,0.094,0.078,0.169,0.171,0.172c0.098-0.005,0.172-0.078,0.172-0.174l0.001-18.143
		c0-0.097-0.073-0.174-0.173-0.171c-0.094,0-0.17,0.076-0.171,0.171V72.577z"/>
	<path fill="#FFFFFF" d="M163.484,78.622c0.003,0.094,0.079,0.17,0.173,0.174c0.097-0.003,0.174-0.081,0.174-0.174l-0.003-3.023
		c0.003-0.095-0.073-0.172-0.17-0.17c-0.098,0-0.171,0.075-0.17,0.17L163.484,78.622z"/>
	<path fill="#FFFFFF" d="M163.829,105.836l0.001-3.025c0-0.097-0.073-0.17-0.171-0.171c-0.095,0.002-0.171,0.075-0.173,0.171v3.025
		c0.001,0.094,0.078,0.172,0.171,0.172C163.755,106.008,163.83,105.93,163.829,105.836z"/>
	<path fill="#FFFFFF" d="M163.486,127.005c0.003,0.094,0.079,0.17,0.171,0.171c0.098,0.002,0.172-0.076,0.173-0.173l-0.001-18.143
		c0-0.097-0.073-0.174-0.169-0.174c-0.097,0.003-0.173,0.079-0.174,0.174V127.005z"/>
	<path fill="#FFFFFF" d="M42.876,184.457c0-0.098-0.075-0.173-0.173-0.174c-0.095,0.003-0.171,0.079-0.171,0.171v3.026
		c0,0.094,0.076,0.17,0.171,0.173c0.098,0,0.174-0.078,0.171-0.173L42.876,184.457z"/>
	<path fill="#FFFFFF" d="M42.878,102.812c-0.003-0.097-0.078-0.171-0.174-0.17c-0.095,0-0.17,0.075-0.169,0.17l-0.003,3.025
		c0,0.095,0.077,0.169,0.17,0.172c0.1-0.002,0.173-0.076,0.176-0.172V102.812z"/>
	<path fill="#FFFFFF" d="M42.534,78.619c0,0.098,0.076,0.174,0.173,0.173c0.094,0.005,0.171-0.073,0.168-0.17V75.6
		c0-0.097-0.076-0.173-0.173-0.173c-0.092-0.003-0.17,0.076-0.171,0.172L42.534,78.619z"/>
	<path fill="#FFFFFF" d="M42.532,86.579l-15.146-0.001c-0.097,0-0.174,0.076-0.171,0.173c-0.002,0.095,0.075,0.172,0.171,0.172
		l15.146,0.002l0.001,12.865c-0.001,0.097,0.075,0.173,0.172,0.173c0.097-0.002,0.17-0.076,0.171-0.173l-0.001-12.865h2.653
		c0.098-0.003,0.173-0.078,0.173-0.173c0.001-0.097-0.076-0.174-0.171-0.173h-2.653l0.001-4.93
		c-0.003-0.097-0.078-0.173-0.174-0.174c-0.095,0.001-0.17,0.075-0.171,0.171V86.579z"/>
	<path fill="#FFFFFF" d="M42.532,72.575c-0.001,0.095,0.076,0.173,0.171,0.173c0.097-0.002,0.171-0.076,0.174-0.174l-0.001-18.145
		c-0.001-0.094-0.075-0.17-0.173-0.173c-0.095,0.003-0.171,0.079-0.171,0.173V72.575z"/>
	<path fill="#FFFFFF" d="M42.534,51.409c-0.001,0.095,0.075,0.17,0.17,0.17c0.098,0,0.174-0.076,0.171-0.171l0.001-3.025
		c0-0.097-0.075-0.173-0.173-0.173c-0.095,0.001-0.17,0.076-0.171,0.171L42.534,51.409z"/>
	<path fill="#FFFFFF" d="M42.876,190.502c-0.001-0.094-0.076-0.168-0.171-0.171c-0.097,0.001-0.173,0.078-0.173,0.174v18.139
		c0.001,0.097,0.077,0.174,0.174,0.174c0.095,0,0.17-0.078,0.173-0.174L42.876,190.502z"/>
	<path fill="#FFFFFF" d="M42.532,211.672v3.021c0,0.097,0.077,0.174,0.173,0.173c0.095,0.001,0.17-0.076,0.171-0.17l-0.001-3.024
		c0.001-0.094-0.075-0.17-0.171-0.17C42.61,211.502,42.534,211.578,42.532,211.672z"/>
	<path fill="#FFFFFF" d="M42.532,108.86L42.534,127c0,0.098,0.076,0.174,0.173,0.173c0.094,0.004,0.171-0.075,0.171-0.172
		l-0.003-18.141c0.003-0.097-0.073-0.172-0.171-0.172C42.61,108.687,42.532,108.765,42.532,108.86z"/>
	<path fill="#FFFFFF" d="M42.532,45.358c0,0.097,0.077,0.174,0.173,0.171c0.094,0.003,0.171-0.075,0.171-0.171l0.001-18.143
		c0-0.095-0.076-0.173-0.171-0.171c-0.098,0-0.174,0.076-0.174,0.174V45.358z"/>
	<path fill="#FFFFFF" d="M42.532,0.002v18.143c0,0.097,0.076,0.173,0.173,0.173c0.095-0.001,0.171-0.078,0.171-0.171V0.003"/>
	<path fill="#FFFFFF" d="M42.878,163.289c-0.001-0.098-0.076-0.173-0.174-0.171c-0.095,0-0.17,0.073-0.17,0.17l0.001,18.145
		c-0.001,0.097,0.075,0.173,0.17,0.171c0.094,0.003,0.171-0.075,0.171-0.173L42.878,163.289z"/>
	<path fill="#FFFFFF" d="M42.534,24.193c0,0.097,0.075,0.173,0.173,0.173c0.094,0,0.171-0.077,0.173-0.174l-0.002-3.022
		c-0.001-0.095-0.078-0.173-0.174-0.171c-0.095-0.001-0.171,0.073-0.171,0.171L42.534,24.193z"/>
	<path fill="#FFFFFF" d="M42.532,238.883v3.026c0.001,0.094,0.077,0.17,0.171,0.17c0.095,0,0.173-0.076,0.174-0.17v-3.026
		c0-0.091-0.076-0.17-0.174-0.173C42.608,238.714,42.534,238.79,42.532,238.883z"/>
	<path fill="#FFFFFF" d="M42.532,272.148l0.001,16.418c-0.001,0.1,0.076,0.176,0.173,0.176c0.094,0.006,0.17-0.076,0.171-0.17
		l-0.001-16.423c0-0.094-0.076-0.17-0.173-0.17C42.608,271.978,42.535,272.054,42.532,272.148z"/>
	<path fill="#FFFFFF" d="M42.534,266.101l0.001,3.023c-0.003,0.1,0.073,0.17,0.172,0.17c0.095,0,0.168-0.07,0.171-0.17l-0.001-3.023
		c-0.001-0.094-0.075-0.176-0.171-0.176C42.61,265.925,42.532,266.008,42.534,266.101z"/>
	<path fill="#FFFFFF" d="M42.878,157.243c-0.001-0.095-0.076-0.174-0.173-0.174c-0.095,0-0.173,0.078-0.172,0.173l-0.001,3.023
		c0.001,0.095,0.076,0.171,0.173,0.173c0.095,0,0.171-0.077,0.173-0.173V157.243z"/>
	<path fill="#FFFFFF" d="M42.875,136.074c0.001-0.095-0.073-0.171-0.17-0.17c-0.097,0-0.173,0.073-0.173,0.17v18.143
		c0,0.095,0.076,0.17,0.171,0.171c0.097-0.002,0.171-0.076,0.171-0.171V136.074z"/>
	<path fill="#FFFFFF" d="M42.878,234.138v-16.419c-0.003-0.092-0.078-0.17-0.174-0.173c-0.095,0.003-0.17,0.08-0.173,0.173
		l0.004,16.422l-4.67,0.003c-0.095,0-0.169,0.076-0.17,0.17v9.507h-10.31c-0.097,0-0.173,0.076-0.171,0.17
		c0,0.097,0.076,0.173,0.171,0.176l10.311-0.006l-0.003,9.508c0,0.094,0.075,0.17,0.171,0.17h4.668l0.001,9.24
		c-0.001,0.094,0.075,0.17,0.172,0.17c0.094,0.006,0.171-0.076,0.168-0.17l0.003-9.24h4.665c0.095,0,0.17-0.076,0.17-0.17
		l0.001-19.355c0.002-0.097-0.076-0.173-0.173-0.173L42.878,234.138z M42.707,244.76c-0.098,0-0.174,0.076-0.172,0.173l-0.001,8.559
		h-4.495v-9.327l7.491-0.003c0.094,0,0.168-0.076,0.171-0.173c0-0.091-0.078-0.17-0.171-0.17l-7.49-0.003v-9.334h4.495l-0.001,1.377
		c-0.001,0.097,0.075,0.176,0.172,0.176c0.098,0,0.173-0.082,0.171-0.176l0.001-1.377h4.492v19.009h-4.494l-0.001-8.562
		C42.878,244.837,42.802,244.76,42.707,244.76z"/>
</g>
<g>
	<path fill="#FFFFFF" d="M54.599,373.579c-0.094-0.003-0.171,0.075-0.17,0.171c0.001,0.094,0.078,0.172,0.171,0.172l18.142,0.001
		c0.097-0.001,0.171-0.078,0.171-0.172c0-0.098-0.075-0.174-0.171-0.174L54.599,373.579z"/>
	<path fill="#FFFFFF" d="M75.767,373.577c-0.097,0-0.172,0.076-0.172,0.173c0,0.097,0.075,0.173,0.173,0.173l3.023-0.001
		c0.097,0,0.171-0.075,0.171-0.172c0.002-0.097-0.075-0.173-0.173-0.173H75.767z"/>
	<path fill="#FFFFFF" d="M21.339,373.577c-0.095,0-0.173,0.078-0.171,0.173c-0.001,0.095,0.073,0.172,0.17,0.17l3.023,0.001
		c0.097,0,0.173-0.076,0.171-0.172c0.001-0.097-0.075-0.173-0.171-0.173H21.339z"/>
	<path fill="#FFFFFF" d="M0.173,373.576c-0.097,0.001-0.171,0.076-0.171,0.174c0,0.095,0.075,0.172,0.17,0.172h18.142
		c0.095,0,0.173-0.078,0.174-0.174c-0.003-0.092-0.079-0.17-0.171-0.172H0.173z"/>
	<path fill="#FFFFFF" d="M48.554,373.577c-0.097,0-0.17,0.076-0.171,0.173c0,0.095,0.075,0.172,0.17,0.17h3.026
		c0.094,0.001,0.17-0.075,0.171-0.171c0.002-0.097-0.076-0.173-0.171-0.172H48.554z"/>
	<path fill="#FFFFFF" d="M81.815,373.577c-0.097,0-0.171,0.076-0.171,0.172c0,0.097,0.075,0.173,0.171,0.171l18.146,0.001
		c0.094,0,0.17-0.076,0.171-0.172c-0.003-0.097-0.077-0.173-0.174-0.173H81.815z"/>
	<path fill="#FFFFFF" d="M293.484,373.579c-0.097,0-0.171,0.075-0.17,0.171c-0.001,0.095,0.076,0.172,0.17,0.17h3.022
		c0.098,0,0.173-0.075,0.173-0.171c0.001-0.095-0.075-0.172-0.171-0.172L293.484,373.579z"/>
	<path fill="#FFFFFF" d="M284.786,373.577v-4.933c0-0.097-0.076-0.171-0.173-0.171c-0.095,0.001-0.17,0.075-0.173,0.174v4.93
		h-12.126c-0.092-0.001-0.171,0.076-0.168,0.173c0.003,0.095,0.076,0.17,0.17,0.173l12.124-0.001l0.001,12.865
		c0,0.097,0.076,0.175,0.172,0.173c0.098,0,0.173-0.075,0.173-0.173l-0.001-12.865l5.675,0.001c0.1-0.004,0.171-0.078,0.173-0.173
		c0-0.098-0.075-0.173-0.173-0.174L284.786,373.577z"/>
	<path fill="#FFFFFF" d="M326.749,373.577c-0.098,0-0.173,0.076-0.172,0.17c-0.004,0.098,0.074,0.177,0.173,0.171h18.14
		c0.097,0.003,0.173-0.076,0.17-0.169c0.001-0.097-0.075-0.173-0.172-0.173H326.749z"/>
	<path fill="#FFFFFF" d="M320.698,373.577c-0.094,0-0.17,0.079-0.173,0.174c0.003,0.094,0.079,0.17,0.173,0.173l3.026-0.003
		c0.094,0,0.171-0.078,0.173-0.173c-0.003-0.094-0.079-0.172-0.171-0.172H320.698z"/>
	<path fill="#FFFFFF" d="M245.103,373.577c-0.098,0-0.176,0.079-0.171,0.173c-0.001,0.097,0.073,0.172,0.17,0.172h18.144
		c0.094,0.003,0.171-0.075,0.173-0.172c0-0.097-0.078-0.173-0.173-0.173H245.103z"/>
	<path fill="#FFFFFF" d="M266.273,373.576c-0.095,0.001-0.173,0.078-0.173,0.174c-0.001,0.095,0.075,0.173,0.171,0.172h3.022
		c0.097,0.003,0.17-0.072,0.174-0.173c-0.004-0.094-0.08-0.172-0.173-0.173H266.273z"/>
	<path fill="#FFFFFF" d="M239.054,373.576c-0.097,0.004-0.17,0.079-0.168,0.172c-0.003,0.101,0.072,0.176,0.17,0.173l3.025,0.004
		c0.095-0.003,0.173-0.08,0.172-0.173c0.003-0.101-0.074-0.176-0.173-0.174L239.054,373.576z"/>
	<path fill="#FFFFFF" d="M375.13,373.576c-0.1,0.004-0.174,0.079-0.173,0.174c-0.001,0.097,0.073,0.174,0.171,0.17l3.022,0.004
		c0.098-0.003,0.173-0.079,0.173-0.174c0.001-0.098-0.072-0.174-0.172-0.173L375.13,373.576z"/>
	<path fill="#FFFFFF" d="M381.178,373.577c-0.098,0-0.174,0.078-0.171,0.172c-0.001,0.097,0.075,0.171,0.171,0.173h18.142
		c0.094,0.003,0.171-0.075,0.171-0.172c0-0.097-0.075-0.173-0.17-0.174L381.178,373.577z"/>
	<path fill="#FFFFFF" d="M217.889,373.577c-0.095,0-0.17,0.075-0.173,0.173c0,0.095,0.079,0.172,0.173,0.172l18.14,0.001
		c0.101-0.004,0.176-0.079,0.174-0.173c0-0.094-0.077-0.171-0.173-0.173H217.889z"/>
	<path fill="#FFFFFF" d="M426.534,373.577h-18.146c-0.092,0-0.17,0.078-0.171,0.173c0.001,0.095,0.078,0.172,0.173,0.173h18.143"/>
	<path fill="#FFFFFF" d="M353.962,373.576c-0.095,0.001-0.173,0.078-0.175,0.174c0.003,0.095,0.079,0.172,0.175,0.173l18.142,0.001
		c0.098-0.006,0.176-0.08,0.173-0.174c0.003-0.098-0.075-0.174-0.17-0.171L353.962,373.576z"/>
	<path fill="#FFFFFF" d="M347.914,373.577c-0.097,0-0.171,0.075-0.171,0.173c-0.001,0.095,0.076,0.172,0.171,0.172h3.025
		c0.094,0.003,0.172-0.075,0.17-0.17c0.001-0.097-0.075-0.174-0.173-0.174H347.914z"/>
	<path fill="#FFFFFF" d="M299.533,373.577c-0.097,0-0.171,0.076-0.173,0.172c0,0.097,0.073,0.174,0.173,0.171l18.144,0.001
		c0.095,0.001,0.17-0.075,0.17-0.172c0-0.098-0.075-0.174-0.171-0.173H299.533z"/>
	<path fill="#FFFFFF" d="M136.245,373.577c-0.097-0.001-0.173,0.076-0.173,0.173c0.003,0.095,0.079,0.172,0.173,0.172l18.143,0.003
		c0.097-0.004,0.171-0.08,0.171-0.171c0.003-0.101-0.073-0.177-0.174-0.174L136.245,373.577z"/>
	<path fill="#FFFFFF" d="M130.196,373.576c-0.097,0.001-0.171,0.079-0.174,0.174c0.001,0.095,0.078,0.172,0.174,0.173l3.023-0.001
		c0.095,0.003,0.173-0.076,0.172-0.172c-0.001-0.095-0.078-0.173-0.173-0.173L130.196,373.576z"/>
	<path fill="#FFFFFF" d="M109.031,373.577c-0.097,0-0.173,0.076-0.173,0.174c-0.002,0.095,0.075,0.173,0.172,0.172l18.143-0.001
		c0.097,0,0.17-0.075,0.17-0.172c0.003-0.097-0.075-0.173-0.17-0.173H109.031z"/>
	<path fill="#FFFFFF" d="M102.985,373.577c-0.098,0-0.173,0.076-0.173,0.173c0,0.095,0.078,0.172,0.17,0.172l3.024,0.001
		c0.095-0.001,0.17-0.076,0.174-0.173c-0.003-0.097-0.079-0.173-0.173-0.173H102.985z"/>
	<path fill="#FFFFFF" d="M160.434,373.922c0.098,0,0.173-0.075,0.173-0.174c0-0.094-0.076-0.17-0.171-0.172l-3.023,0.001
		c-0.095-0.001-0.171,0.076-0.173,0.174c0,0.094,0.076,0.17,0.171,0.172L160.434,373.922z"/>
	<path fill="#FFFFFF" d="M184.624,373.577c-0.094,0-0.171,0.079-0.173,0.174c0.003,0.094,0.079,0.17,0.173,0.173l3.026-0.003
		c0.094,0,0.171-0.078,0.171-0.172c-0.002-0.095-0.078-0.173-0.171-0.173H184.624z"/>
	<path fill="#FFFFFF" d="M211.841,373.577c-0.095,0-0.17,0.075-0.173,0.174c0.003,0.094,0.078,0.17,0.173,0.173l3.026-0.003
		c0.092,0.003,0.17-0.075,0.172-0.172c0-0.097-0.076-0.173-0.173-0.173H211.841z"/>
	<path fill="#FFFFFF" d="M190.676,373.576c-0.101,0.001-0.176,0.078-0.173,0.173c-0.003,0.098,0.073,0.174,0.171,0.171l18.146-0.001
		c0.094,0.004,0.171-0.073,0.171-0.171c-0.003-0.092-0.079-0.17-0.173-0.172H190.676z"/>
	<path fill="#FFFFFF" d="M163.829,373.577v-4.932c0.001-0.098-0.073-0.173-0.169-0.173c-0.098,0-0.174,0.076-0.173,0.171
		l-0.001,4.933h-0.026c-0.098,0-0.171,0.075-0.171,0.173c0,0.095,0.075,0.172,0.173,0.172h0.025l0.001,12.865
		c0,0.097,0.076,0.175,0.173,0.173c0.097,0,0.17-0.076,0.169-0.172v-12.867h17.774c0.098,0,0.173-0.075,0.173-0.172
		c0-0.098-0.078-0.174-0.173-0.173H163.829z"/>
	<path fill="#FFFFFF" d="M217.889,419.542c-0.097,0-0.172,0.075-0.172,0.171c-0.001,0.095,0.075,0.172,0.172,0.172l18.141,0.001
		c0.1-0.001,0.173-0.076,0.173-0.172c0-0.1-0.075-0.174-0.173-0.171L217.889,419.542z"/>
	<path fill="#FFFFFF" d="M211.841,419.54c-0.095-0.001-0.173,0.078-0.173,0.173c0,0.095,0.078,0.172,0.173,0.173l3.023-0.001
		c0.098,0,0.176-0.078,0.174-0.173c-0.001-0.094-0.076-0.17-0.173-0.173L211.841,419.54z"/>
	<path fill="#FFFFFF" d="M130.196,419.543c-0.097,0-0.171,0.075-0.171,0.171c-0.001,0.095,0.075,0.17,0.171,0.17h3.023
		c0.095,0,0.172-0.076,0.172-0.173c0.002-0.095-0.075-0.173-0.172-0.171L130.196,419.543z"/>
	<path fill="#FFFFFF" d="M190.673,419.54c-0.095,0-0.173,0.078-0.173,0.174c0.005,0.094,0.078,0.17,0.173,0.173l18.146-0.003
		c0.095,0,0.172-0.076,0.173-0.173c0-0.097-0.077-0.173-0.173-0.173L190.673,419.54z"/>
	<path fill="#FFFFFF" d="M239.054,419.54c-0.095,0-0.171,0.078-0.17,0.171c0,0.097,0.075,0.173,0.169,0.175l3.028-0.001
		c0.097-0.003,0.172-0.078,0.172-0.172c0.003-0.098-0.075-0.174-0.173-0.173H239.054z"/>
	<path fill="#FFFFFF" d="M184.626,419.54c-0.097,0-0.172,0.075-0.172,0.171c0,0.097,0.075,0.173,0.172,0.173h3.023
		c0.098,0,0.173-0.076,0.171-0.172c0-0.094-0.073-0.174-0.171-0.171L184.626,419.54z"/>
	<path fill="#FFFFFF" d="M136.245,419.54c-0.095,0.001-0.17,0.076-0.171,0.171c0,0.097,0.075,0.173,0.173,0.173h18.143
		c0.095,0,0.17-0.076,0.171-0.173c-0.002-0.094-0.078-0.171-0.173-0.171H136.245z"/>
	<path fill="#FFFFFF" d="M245.103,419.54c-0.098,0.003-0.173,0.078-0.173,0.173c0,0.098,0.075,0.173,0.174,0.172l18.142,0.001
		c0.095-0.001,0.17-0.075,0.173-0.175c-0.001-0.094-0.079-0.171-0.173-0.173L245.103,419.54z"/>
	<path fill="#FFFFFF" d="M157.413,419.884l3.022,0.001c0.097-0.001,0.173-0.079,0.173-0.172c0-0.098-0.073-0.174-0.173-0.171
		l-3.022-0.004c-0.097,0-0.173,0.078-0.171,0.173C157.241,419.808,157.318,419.884,157.413,419.884z"/>
	<path fill="#FFFFFF" d="M163.829,419.54v-2.514c0-0.095-0.073-0.171-0.169-0.173c-0.097,0-0.174,0.078-0.174,0.176l0.001,2.511
		h-0.026c-0.098,0-0.173,0.076-0.173,0.173c-0.003,0.095,0.073,0.173,0.17,0.172h0.026l0.001,0.168
		c0.001,0.094,0.078,0.17,0.173,0.171c0.097-0.001,0.171-0.077,0.17-0.173l0.003-0.167h17.771c0.095,0,0.173-0.076,0.17-0.173
		c0.002-0.095-0.075-0.171-0.17-0.171H163.829z"/>
	<path fill="#FFFFFF" d="M353.961,419.54c-0.095,0-0.173,0.078-0.172,0.171c-0.001,0.097,0.076,0.173,0.173,0.173l18.143,0.001
		c0.098-0.001,0.176-0.079,0.173-0.173c0.001-0.1-0.075-0.174-0.171-0.173H353.961z"/>
	<path fill="#FFFFFF" d="M375.127,419.544c-0.092-0.004-0.171,0.073-0.171,0.168c0.003,0.095,0.078,0.172,0.173,0.173h3.023
		c0.1-0.003,0.172-0.075,0.172-0.175c0-0.097-0.073-0.173-0.17-0.17L375.127,419.544z"/>
	<path fill="#FFFFFF" d="M381.178,419.539c-0.1,0.004-0.174,0.079-0.174,0.173c0,0.1,0.076,0.175,0.174,0.173h18.14
		c0.098,0,0.171-0.075,0.173-0.173c0-0.095-0.076-0.171-0.171-0.173H381.178z"/>
	<path fill="#FFFFFF" d="M426.534,419.542H408.39c-0.095,0.001-0.168,0.073-0.168,0.17c-0.001,0.097,0.073,0.173,0.171,0.173h18.142
		"/>
	<path fill="#FFFFFF" d="M347.914,419.54c-0.095,0-0.173,0.076-0.173,0.173c-0.001,0.097,0.078,0.173,0.172,0.172l3.023,0.001
		c0.098-0.001,0.173-0.076,0.173-0.175c0.001-0.094-0.075-0.171-0.173-0.171H347.914z"/>
	<path fill="#FFFFFF" d="M402.34,419.886l3.025-0.001c0.018,0.001,0.016-0.026,0.028-0.026l0.003,0.19
		c-0.003,0.1,0.073,0.177,0.173,0.173c0.094,0.003,0.171-0.075,0.171-0.173l-0.004-3.017c0.003-0.1-0.072-0.177-0.171-0.173
		c-0.094-0.003-0.165,0.07-0.171,0.17l0.003,2.542c-0.016-0.004-0.013-0.028-0.029-0.031l-3.025,0.001
		c-0.097,0-0.171,0.075-0.173,0.173C402.17,419.808,402.245,419.884,402.34,419.886z"/>
	<path fill="#FFFFFF" d="M266.268,419.544c-0.094-0.004-0.168,0.073-0.168,0.17c0.001,0.092,0.077,0.169,0.171,0.172l3.023-0.001
		c0.092,0.001,0.17-0.076,0.171-0.173c-0.003-0.092-0.079-0.167-0.173-0.171L266.268,419.544z"/>
	<path fill="#FFFFFF" d="M284.786,419.539v-2.511c-0.001-0.097-0.076-0.173-0.173-0.171c-0.095-0.003-0.173,0.075-0.17,0.168
		l-0.001,2.515l-12.126-0.001c-0.094,0.001-0.167,0.078-0.171,0.174c0.001,0.095,0.078,0.172,0.171,0.172h12.123l0.001,0.168
		c0.001,0.094,0.078,0.17,0.173,0.17c0.095,0.003,0.173-0.075,0.173-0.173v-0.165h5.675c0.097,0,0.173-0.076,0.173-0.173
		c-0.003-0.095-0.078-0.171-0.173-0.173H284.786z"/>
	<path fill="#FFFFFF" d="M299.531,419.54c-0.098,0-0.171,0.076-0.17,0.171c-0.001,0.098,0.075,0.175,0.171,0.173h18.142
		c0.098,0,0.173-0.075,0.173-0.173c0-0.094-0.075-0.171-0.17-0.171H299.531z"/>
	<path fill="#FFFFFF" d="M320.699,419.54c-0.095,0.001-0.17,0.076-0.172,0.171c0,0.097,0.075,0.173,0.173,0.173h3.023
		c0.097,0.001,0.173-0.075,0.17-0.172c0.002-0.098-0.073-0.174-0.171-0.171L320.699,419.54z"/>
	<path fill="#FFFFFF" d="M326.747,419.54c-0.095,0-0.173,0.078-0.172,0.171c0,0.097,0.078,0.173,0.172,0.173l18.143,0.001
		c0.095-0.001,0.172-0.081,0.17-0.172c0-0.097-0.075-0.173-0.172-0.171L326.747,419.54z"/>
	<path fill="#FFFFFF" d="M293.484,419.54c-0.1,0.003-0.173,0.078-0.173,0.174c0,0.097,0.075,0.172,0.17,0.17l3.026,0.001
		c0.097-0.001,0.174-0.079,0.171-0.172c0-0.097-0.076-0.174-0.173-0.173L293.484,419.54z"/>
	<path fill="#FFFFFF" d="M21.338,419.542c-0.097,0-0.171,0.075-0.17,0.17c0,0.097,0.076,0.173,0.173,0.173l3.02,0.001
		c0.095-0.001,0.174-0.079,0.171-0.172c0-0.097-0.076-0.174-0.171-0.171L21.338,419.542z"/>
	<path fill="#FFFFFF" d="M0.171,419.54c-0.097,0-0.171,0.078-0.171,0.171c0,0.098,0.075,0.173,0.173,0.173h18.143
		c0.095,0.001,0.171-0.075,0.17-0.173c0-0.094-0.076-0.171-0.171-0.171H0.171z"/>
	<path fill="#FFFFFF" d="M27.384,419.884l15.149-0.001l0.001,0.17c-0.003,0.094,0.073,0.171,0.17,0.17
		c0.097-0.001,0.173-0.076,0.171-0.172l0.001-0.168l2.65,0.001c0.097,0,0.171-0.075,0.171-0.173
		c0.001-0.095-0.075-0.171-0.173-0.171l-2.65-0.001l0.001-2.511c-0.001-0.097-0.078-0.171-0.173-0.174
		c-0.095,0.003-0.173,0.081-0.172,0.171v2.514H27.386c-0.098,0.003-0.173,0.078-0.174,0.173
		C27.212,419.808,27.289,419.886,27.384,419.884z"/>
	<path fill="#FFFFFF" d="M48.553,419.54c-0.095,0-0.17,0.076-0.171,0.171c0,0.098,0.076,0.175,0.173,0.175h3.023
		c0.097-0.001,0.171-0.076,0.173-0.173c-0.001-0.098-0.076-0.173-0.171-0.173H48.553z"/>
	<path fill="#FFFFFF" d="M81.815,419.542c-0.098-0.001-0.171,0.073-0.171,0.171c-0.002,0.095,0.073,0.172,0.171,0.172h18.143
		c0.098,0,0.173-0.073,0.174-0.173c-0.001-0.094-0.077-0.171-0.171-0.171L81.815,419.542z"/>
	<path fill="#FFFFFF" d="M109.031,419.539c-0.097,0-0.174,0.079-0.171,0.173c0,0.095,0.076,0.173,0.173,0.173l18.139,0.001
		c0.097,0,0.174-0.079,0.172-0.172c0-0.097-0.072-0.174-0.169-0.174L109.031,419.539z"/>
	<path fill="#FFFFFF" d="M102.983,419.54c-0.097,0.001-0.171,0.076-0.171,0.171c0,0.097,0.075,0.173,0.171,0.173l3.022,0.001
		c0.095-0.001,0.173-0.079,0.174-0.175c-0.001-0.095-0.079-0.171-0.173-0.173L102.983,419.54z"/>
	<path fill="#FFFFFF" d="M75.769,419.539c-0.095,0-0.173,0.079-0.174,0.174c0.001,0.095,0.077,0.172,0.173,0.173l3.023-0.001
		c0.098,0,0.174-0.078,0.173-0.172c0-0.095-0.076-0.173-0.173-0.173L75.769,419.539z"/>
	<path fill="#FFFFFF" d="M54.602,419.54c-0.097,0-0.174,0.078-0.171,0.171c-0.001,0.097,0.075,0.173,0.171,0.172l18.142,0.001
		c0.094,0,0.17-0.075,0.17-0.17c0-0.097-0.076-0.173-0.173-0.171L54.602,419.54z"/>
	<path fill="#FFFFFF" d="M217.889,530.82c-0.095,0-0.172,0.076-0.174,0.175c0.001,0.091,0.079,0.17,0.174,0.164l18.141,0.006
		c0.098,0,0.173-0.079,0.174-0.176c-0.001-0.091-0.079-0.17-0.173-0.173L217.889,530.82z"/>
	<path fill="#FFFFFF" d="M190.673,530.817c-0.095,0.003-0.17,0.079-0.173,0.173c0,0.097,0.078,0.176,0.174,0.176l18.144-0.003
		c0.094,0.003,0.172-0.076,0.17-0.167c0.002-0.097-0.076-0.175-0.172-0.175L190.673,530.817z"/>
	<path fill="#FFFFFF" d="M211.841,530.82c-0.095,0-0.17,0.073-0.172,0.173c0.003,0.094,0.079,0.17,0.173,0.17h3.022
		c0.097-0.003,0.173-0.076,0.174-0.17c0.002-0.097-0.076-0.173-0.173-0.173H211.841z"/>
	<path fill="#FFFFFF" d="M184.626,530.82c-0.097,0-0.173,0.079-0.172,0.173c-0.001,0.094,0.075,0.167,0.17,0.173h3.026
		c0.097,0,0.17-0.082,0.168-0.173c0.003-0.094-0.075-0.173-0.168-0.176L184.626,530.82z"/>
	<path fill="#FFFFFF" d="M136.245,530.82c-0.095,0-0.171,0.079-0.171,0.173c-0.001,0.094,0.076,0.17,0.173,0.17l18.143-0.003
		c0.097,0,0.17-0.073,0.17-0.17c0-0.091-0.075-0.17-0.171-0.17H136.245z"/>
	<path fill="#FFFFFF" d="M0.173,530.817C0.076,530.82,0,530.899,0,530.99c0,0.097,0.076,0.176,0.173,0.173l18.14,0.003
		c0.1-0.006,0.173-0.079,0.173-0.176c-0.001-0.094-0.076-0.173-0.173-0.17L0.173,530.817z"/>
	<path fill="#FFFFFF" d="M168.667,530.82l0.001-9.507c-0.003-0.094-0.075-0.176-0.171-0.176l-4.667,0.003l0.001-16.422
		c-0.003-0.092-0.079-0.17-0.171-0.173c-0.097,0.003-0.174,0.08-0.173,0.173l-0.001,16.425l-4.667-0.003
		c-0.095,0.003-0.168,0.076-0.17,0.173v9.507h-1.236c-0.097,0-0.173,0.076-0.171,0.17c0,0.097,0.075,0.17,0.171,0.173l1.235,0.003
		l0.001,9.502c0,0.094,0.076,0.17,0.171,0.17h4.664l0.001,9.24c0.001,0.094,0.075,0.176,0.171,0.176
		c0.098,0,0.173-0.088,0.172-0.176l0.003-9.24h4.664c0.097,0,0.172-0.076,0.174-0.17l-0.003-9.502h12.936
		c0.097-0.003,0.171-0.082,0.173-0.176c0-0.091-0.078-0.17-0.173-0.17H168.667z M168.324,540.492h-4.495v-8.559
		c0-0.097-0.073-0.173-0.172-0.17c-0.094-0.003-0.171,0.073-0.171,0.17l0.001,8.559h-4.494l-0.001-9.329h1.446
		c0.094,0.003,0.17-0.076,0.17-0.17c0-0.097-0.075-0.173-0.173-0.173h-1.443l0.001-9.337h4.494v1.377
		c-0.001,0.097,0.076,0.176,0.173,0.176s0.169-0.079,0.17-0.176l-0.001-1.374h4.495l0.001,9.334h-4.865
		c-0.098,0-0.173,0.076-0.173,0.173c0,0.094,0.078,0.173,0.171,0.173h4.865V540.492z"/>
	<path fill="#FFFFFF" d="M266.271,530.82c-0.098,0-0.171,0.073-0.171,0.17c-0.003,0.097,0.075,0.176,0.171,0.176l3.023-0.006
		c0.098,0.003,0.173-0.076,0.173-0.17c0-0.094-0.078-0.17-0.173-0.17H266.271z"/>
	<path fill="#FFFFFF" d="M289.623,530.82v-9.507c-0.001-0.094-0.073-0.173-0.172-0.173l-4.667,0.003l0.001-16.425
		c-0.001-0.092-0.079-0.17-0.173-0.173c-0.095,0.003-0.173,0.08-0.173,0.173v16.425l-4.665-0.003
		c-0.097,0.003-0.172,0.079-0.172,0.173l-0.001,9.507h-7.286c-0.094-0.003-0.167,0.076-0.168,0.17
		c-0.002,0.097,0.075,0.173,0.173,0.173l7.281,0.003l0.001,9.502c-0.001,0.1,0.075,0.17,0.173,0.17h4.663l0.001,9.24
		c0,0.094,0.076,0.176,0.172,0.176c0.097,0,0.174-0.082,0.173-0.176v-9.24h4.667c0.098,0,0.172-0.07,0.172-0.17v-9.502l0.838-0.003
		c0.094,0.003,0.171-0.076,0.171-0.173c-0.001-0.094-0.078-0.17-0.171-0.17H289.623z M279.947,521.483h4.495v1.377
		c-0.001,0.097,0.076,0.176,0.172,0.176c0.097,0,0.171-0.079,0.173-0.176v-1.377l4.491,0.003l0.003,9.334h-9.332L279.947,521.483z
		 M289.277,540.498l-4.492-0.006l0.001-8.562c-0.001-0.094-0.078-0.167-0.174-0.167c-0.094-0.003-0.172,0.073-0.172,0.17
		l0.001,8.559h-4.492l-0.003-9.326h9.334L289.277,540.498z"/>
	<path fill="#FFFFFF" d="M239.055,530.82c-0.098,0-0.171,0.079-0.171,0.17c0,0.097,0.075,0.176,0.171,0.176h3.023
		c0.095,0,0.173-0.079,0.173-0.173c0-0.097-0.078-0.173-0.173-0.173H239.055z"/>
	<path fill="#FFFFFF" d="M245.102,530.82c-0.095,0-0.172,0.079-0.172,0.17c0.001,0.094,0.075,0.176,0.172,0.176h18.144
		c0.095-0.003,0.168-0.079,0.173-0.173c0-0.1-0.078-0.173-0.174-0.173H245.102z"/>
	<path fill="#FFFFFF" d="M102.983,530.817c-0.095,0.003-0.171,0.082-0.173,0.173c0,0.097,0.076,0.173,0.174,0.173l3.022,0.003
		c0.097-0.003,0.173-0.079,0.17-0.173c0.002-0.097-0.076-0.173-0.17-0.173L102.983,530.817z"/>
	<path fill="#FFFFFF" d="M21.339,530.82c-0.097,0-0.173,0.076-0.173,0.173c0,0.091,0.076,0.167,0.171,0.173l3.025-0.003
		c0.095,0.003,0.171-0.076,0.17-0.17c0.001-0.1-0.075-0.173-0.17-0.173H21.339z"/>
	<path fill="#FFFFFF" d="M48.553,530.82c-0.095,0-0.17,0.076-0.17,0.17c-0.003,0.097,0.075,0.176,0.171,0.176h3.022
		c0.097,0,0.173-0.079,0.174-0.176c-0.003-0.091-0.076-0.173-0.171-0.173L48.553,530.82z"/>
	<path fill="#FFFFFF" d="M81.814,530.82c-0.095,0-0.173,0.079-0.17,0.17c0,0.097,0.075,0.173,0.171,0.17l18.143,0.003
		c0.098,0,0.174-0.076,0.173-0.173c0.001-0.097-0.074-0.17-0.172-0.17H81.814z"/>
	<path fill="#FFFFFF" d="M293.484,530.82c-0.094,0-0.171,0.076-0.173,0.173c0.001,0.091,0.076,0.173,0.173,0.17l3.023,0.003
		c0.097-0.003,0.171-0.079,0.171-0.176c0.001-0.097-0.076-0.173-0.171-0.17H293.484z"/>
	<path fill="#FFFFFF" d="M109.029,530.82c-0.095,0-0.169,0.076-0.172,0.173c0.003,0.091,0.078,0.173,0.172,0.173h18.145
		c0.095-0.003,0.169-0.079,0.171-0.173c0.002-0.1-0.076-0.173-0.173-0.173H109.029z"/>
	<path fill="#FFFFFF" d="M130.196,530.82c-0.097,0-0.171,0.073-0.171,0.17c-0.001,0.097,0.076,0.176,0.171,0.173l3.026,0.003
		c0.095-0.006,0.169-0.079,0.171-0.176c-0.003-0.091-0.079-0.17-0.173-0.173L130.196,530.82z"/>
	<path fill="#FFFFFF" d="M75.767,530.82c-0.095,0-0.172,0.079-0.172,0.173c0.002,0.091,0.076,0.17,0.172,0.173l3.023-0.003
		c0.097-0.003,0.173-0.076,0.173-0.17c0.002-0.1-0.075-0.173-0.173-0.173H75.767z"/>
	<path fill="#FFFFFF" d="M54.604,530.82c-0.097,0-0.174,0.079-0.173,0.173c-0.001,0.094,0.075,0.17,0.171,0.173l18.142-0.003
		c0.095,0.003,0.173-0.076,0.17-0.17c0-0.1-0.075-0.173-0.171-0.173H54.604z"/>
	<path fill="#FFFFFF" d="M410.404,521.144l-4.667-0.003l0.001-16.418c0-0.097-0.073-0.178-0.171-0.173
		c-0.094-0.001-0.17,0.072-0.171,0.173l-0.001,16.421l-4.664-0.003c-0.098,0-0.174,0.079-0.173,0.173v19.355
		c-0.001,0.094,0.076,0.17,0.173,0.17l4.665,0.006l-0.001,9.234c0.001,0.094,0.076,0.176,0.173,0.176
		c0.094,0,0.17-0.082,0.171-0.176l-0.003-9.234l4.668-0.006"/>
	<path fill="#FFFFFF" d="M410.234,530.82h-1.843c-0.097,0-0.173,0.076-0.173,0.173c-0.003,0.094,0.073,0.173,0.171,0.173
		l1.846-0.006"/>
	<path fill="#FFFFFF" d="M410.237,540.492l-4.498,0.006l-0.001-8.565c0.003-0.097-0.073-0.173-0.17-0.173
		c-0.094,0-0.171,0.076-0.174,0.173l0.003,8.559h-4.494l-0.003-19.006l4.497-0.003l-0.003,1.383c0.001,0.091,0.079,0.17,0.171,0.17
		c0.097,0,0.174-0.079,0.171-0.173l0.003-1.377h4.496"/>
	<path fill="#FFFFFF" d="M375.13,530.817c-0.1,0.003-0.174,0.082-0.174,0.173c0,0.094,0.079,0.17,0.173,0.176l3.026-0.006
		c0.094,0.006,0.169-0.073,0.169-0.167c0-0.1-0.075-0.173-0.167-0.176H375.13z"/>
	<path fill="#FFFFFF" d="M353.961,530.82c-0.094,0-0.173,0.079-0.173,0.175c0.001,0.091,0.079,0.167,0.175,0.164l18.142,0.006
		c0.097,0,0.171-0.079,0.171-0.17c0.004-0.102-0.072-0.175-0.173-0.175H353.961z"/>
	<path fill="#FFFFFF" d="M347.914,530.82c-0.095,0-0.173,0.076-0.171,0.17c-0.003,0.097,0.075,0.176,0.17,0.173h3.026
		c0.094,0,0.169-0.076,0.173-0.17c-0.001-0.094-0.078-0.173-0.173-0.173H347.914z"/>
	<path fill="#FFFFFF" d="M326.746,530.82c-0.094,0-0.17,0.076-0.171,0.173c-0.002,0.094,0.076,0.173,0.174,0.173l18.142-0.003
		c0.095,0.003,0.173-0.079,0.172-0.17c0-0.1-0.076-0.173-0.172-0.173H326.746z"/>
	<path fill="#FFFFFF" d="M320.701,530.82c-0.097,0-0.173,0.079-0.172,0.17c-0.001,0.097,0.075,0.176,0.172,0.176l3.022-0.003
		c0.095,0.003,0.173-0.076,0.171-0.17c0.003-0.1-0.075-0.173-0.171-0.173H320.701z"/>
	<path fill="#FFFFFF" d="M381.177,530.82c-0.097,0-0.171,0.073-0.173,0.173c0.003,0.091,0.076,0.173,0.173,0.173h18.143
		c0.095-0.006,0.171-0.079,0.171-0.176c-0.001-0.091-0.078-0.17-0.171-0.17H381.177z"/>
	<path fill="#FFFFFF" d="M402.34,530.82c-0.094,0-0.17,0.079-0.171,0.175c0.001,0.091,0.078,0.17,0.174,0.164l3.023,0.006
		c0.095-0.003,0.171-0.079,0.174-0.176c-0.003-0.091-0.079-0.17-0.174-0.173L402.34,530.82z"/>
	<path fill="#FFFFFF" d="M299.531,530.817c-0.098,0-0.171,0.079-0.17,0.173c-0.001,0.097,0.072,0.176,0.17,0.17l18.146,0.006
		c0.097-0.003,0.169-0.079,0.17-0.176c0-0.094-0.073-0.17-0.17-0.17L299.531,530.817z"/>
	<path fill="#FFFFFF" d="M405.396,559.148l-0.001,16.423c0.001,0.094,0.076,0.176,0.173,0.176c0.097-0.006,0.171-0.082,0.173-0.182
		l-0.001-16.418c0-0.094-0.077-0.176-0.171-0.176C405.472,558.972,405.396,559.054,405.396,559.148z"/>
	<path fill="#FFFFFF" d="M405.736,423.076c0.003-0.098-0.072-0.171-0.17-0.17c-0.094-0.003-0.171,0.072-0.168,0.168l-0.001,18.142
		c0,0.098,0.076,0.174,0.171,0.171c0.098,0,0.173-0.076,0.17-0.17L405.736,423.076z"/>
	<path fill="#FFFFFF" d="M405.396,498.671l-0.003,3.025c0.003,0.094,0.079,0.17,0.174,0.174c0.097-0.004,0.174-0.084,0.173-0.174
		l-0.001-3.024c-0.001-0.091-0.075-0.174-0.171-0.171C405.474,498.497,405.397,498.575,405.396,498.671z"/>
	<path fill="#FFFFFF" d="M405.738,477.502c0-0.094-0.076-0.168-0.171-0.171c-0.097,0.003-0.17,0.076-0.171,0.171l-0.001,18.142
		c0.003,0.097,0.078,0.17,0.173,0.174c0.1,0,0.173-0.078,0.17-0.174L405.738,477.502z"/>
	<path fill="#FFFFFF" d="M405.738,471.457c-0.001-0.097-0.072-0.174-0.171-0.172c-0.094-0.003-0.168,0.073-0.173,0.173l0.003,3.022
		c-0.003,0.098,0.075,0.174,0.171,0.171c0.094,0,0.17-0.078,0.167-0.17L405.738,471.457z"/>
	<path fill="#FFFFFF" d="M405.396,373.607c-0.015-0.004-0.013-0.029-0.029-0.029h-3.026c-0.094,0-0.171,0.078-0.168,0.17
		c0,0.098,0.075,0.174,0.173,0.174h3.022c0.016,0,0.013-0.025,0.031-0.031l-0.004,12.896c0.003,0.097,0.079,0.172,0.174,0.173
		c0.097,0,0.173-0.076,0.168-0.17l0.003-18.145c0.001-0.095-0.076-0.173-0.171-0.171c-0.095-0.001-0.171,0.075-0.173,0.173
		L405.396,373.607z"/>
	<path fill="#FFFFFF" d="M405.394,365.622c0.003,0.094,0.079,0.17,0.173,0.173c0.094,0.001,0.17-0.076,0.173-0.173l-0.003-3.022
		c0.003-0.098-0.073-0.173-0.171-0.171c-0.094-0.004-0.17,0.073-0.168,0.169L405.394,365.622z"/>
	<path fill="#FFFFFF" d="M405.74,389.809c-0.001-0.095-0.075-0.169-0.17-0.172c-0.098,0.003-0.176,0.078-0.176,0.176l0.001,3.023
		c0.001,0.094,0.076,0.17,0.174,0.167c0.094,0.004,0.17-0.073,0.167-0.167L405.74,389.809z"/>
	<path fill="#FFFFFF" d="M405.74,450.285c-0.003-0.092-0.078-0.167-0.17-0.17c-0.1,0.003-0.174,0.076-0.174,0.173v18.145
		c-0.001,0.098,0.073,0.173,0.171,0.173c0.095,0,0.17-0.075,0.173-0.173V450.285z"/>
	<path fill="#FFFFFF" d="M405.738,444.241c0.001-0.095-0.075-0.173-0.171-0.173c-0.097,0.001-0.174,0.079-0.171,0.173l-0.001,3.023
		c0.001,0.095,0.078,0.173,0.173,0.173c0.097,0,0.171-0.077,0.17-0.173L405.738,444.241z"/>
	<path fill="#FFFFFF" d="M405.394,395.86v18.144c0.001,0.094,0.078,0.17,0.173,0.171c0.097-0.002,0.17-0.076,0.171-0.171
		l0.001-18.143c-0.001-0.098-0.076-0.173-0.173-0.173C405.472,395.687,405.393,395.765,405.394,395.86z"/>
	<path fill="#FFFFFF" d="M405.396,287l0.001,18.144c-0.001,0.095,0.075,0.171,0.171,0.171c0.094,0.003,0.17-0.076,0.17-0.171
		l-0.001-18.14"/>
	<path fill="#FFFFFF" d="M405.393,311.194c0.001,0.095,0.078,0.167,0.173,0.171c0.101-0.003,0.17-0.073,0.173-0.173l0.001-3.023
		c-0.001-0.097-0.076-0.171-0.173-0.173c-0.095,0-0.174,0.079-0.171,0.171L405.393,311.194z"/>
	<path fill="#FFFFFF" d="M405.393,525.889l0.003,3.02c0,0.094,0.076,0.17,0.171,0.17c0.097,0,0.174-0.076,0.171-0.17v-3.026
		c-0.003-0.091-0.075-0.173-0.171-0.17C405.472,525.714,405.396,525.79,405.393,525.889z"/>
	<path fill="#FFFFFF" d="M405.393,553.101l0.003,3.018c0,0.1,0.073,0.182,0.173,0.176c0.094,0.006,0.167-0.076,0.168-0.17
		l-0.001-3.023c0.003-0.094-0.07-0.176-0.17-0.17C405.471,552.925,405.399,553.002,405.393,553.101z"/>
	<path fill="#FFFFFF" d="M405.394,359.577c-0.001,0.095,0.075,0.172,0.173,0.172c0.097-0.004,0.168-0.078,0.173-0.174l-0.001-18.145
		c0-0.097-0.075-0.171-0.171-0.171c-0.094,0-0.168,0.075-0.171,0.171L405.394,359.577z"/>
	<path fill="#FFFFFF" d="M405.394,338.407c0,0.097,0.076,0.173,0.173,0.168c0.094,0.005,0.171-0.073,0.17-0.17l0.001-3.023
		c-0.001-0.095-0.075-0.174-0.171-0.17c-0.094-0.005-0.171,0.075-0.171,0.171L405.394,338.407z"/>
	<path fill="#FFFFFF" d="M405.396,332.358c-0.001,0.1,0.075,0.174,0.173,0.174c0.094,0,0.168-0.075,0.171-0.173l-0.001-18.145
		c0-0.094-0.075-0.168-0.171-0.171c-0.097,0-0.174,0.078-0.173,0.174L405.396,332.358z"/>
	<path fill="#FFFFFF" d="M284.444,359.574c-0.003,0.097,0.073,0.173,0.171,0.171c0.092,0.003,0.172-0.075,0.173-0.174l-0.002-18.142
		c-0.001-0.094-0.079-0.168-0.173-0.173c-0.097,0.003-0.174,0.081-0.173,0.174L284.444,359.574z"/>
	<path fill="#FFFFFF" d="M284.441,338.409c0,0.094,0.076,0.17,0.173,0.167c0.097,0.001,0.173-0.072,0.173-0.168l-0.001-3.026
		c0-0.094-0.078-0.17-0.171-0.17c-0.098,0.001-0.172,0.075-0.172,0.17L284.441,338.409z"/>
	<path fill="#FFFFFF" d="M284.444,365.619c-0.004,0.1,0.072,0.177,0.171,0.173c0.092,0.001,0.17-0.073,0.17-0.17V362.6
		c0-0.097-0.076-0.173-0.171-0.171c-0.097,0-0.173,0.075-0.172,0.171L284.444,365.619z"/>
	<path fill="#FFFFFF" d="M284.441,525.883v3.026c0.001,0.094,0.076,0.17,0.173,0.17c0.097,0,0.174-0.076,0.171-0.17l0.001-3.026
		c0-0.094-0.078-0.173-0.173-0.173C284.518,525.711,284.442,525.787,284.441,525.883z"/>
	<path fill="#FFFFFF" d="M284.441,553.101v3.023c0.001,0.1,0.078,0.17,0.173,0.176c0.097,0,0.171-0.076,0.173-0.176v-3.023
		c0-0.1-0.076-0.176-0.173-0.176C284.518,552.925,284.441,553.008,284.441,553.101z"/>
	<path fill="#FFFFFF" d="M284.442,559.148v16.418c-0.001,0.1,0.075,0.182,0.17,0.182c0.097,0,0.173-0.082,0.174-0.182l-0.001-16.418
		c0.001-0.094-0.075-0.176-0.171-0.17C284.517,558.978,284.441,559.054,284.442,559.148z"/>
	<path fill="#FFFFFF" d="M284.441,447.264c0.001,0.094,0.078,0.171,0.173,0.173c0.095,0,0.173-0.077,0.173-0.173l0.002-3.026
		c-0.003-0.092-0.079-0.17-0.173-0.171c-0.098,0.006-0.173,0.081-0.173,0.173L284.441,447.264z"/>
	<path fill="#FFFFFF" d="M284.441,332.361c0.001,0.094,0.078,0.171,0.173,0.173c0.095-0.001,0.173-0.079,0.171-0.171v-18.143
		c0-0.098-0.078-0.173-0.171-0.173c-0.095-0.003-0.173,0.075-0.173,0.173V332.361z"/>
	<path fill="#FFFFFF" d="M284.785,392.836l0.001-3.023c0-0.098-0.076-0.173-0.173-0.173c-0.097,0.002-0.173,0.076-0.172,0.169
		l-0.001,3.027c0.003,0.094,0.078,0.169,0.173,0.173C284.709,393.008,284.788,392.93,284.785,392.836z"/>
	<path fill="#FFFFFF" d="M284.785,441.218v-18.14c0.001-0.098-0.076-0.173-0.173-0.173c-0.095-0.001-0.17,0.073-0.172,0.171
		l0.001,18.142c-0.001,0.097,0.075,0.173,0.172,0.171C284.707,441.391,284.785,441.314,284.785,441.218z"/>
	<path fill="#FFFFFF" d="M284.441,287.003l0.001,18.142c-0.001,0.097,0.076,0.173,0.172,0.171c0.097,0,0.17-0.073,0.173-0.171
		v-18.143"/>
	<path fill="#FFFFFF" d="M284.441,311.193c0.001,0.097,0.076,0.171,0.173,0.173c0.095,0,0.171-0.075,0.173-0.173l-0.001-3.023
		c0-0.098-0.075-0.173-0.171-0.173c-0.097,0-0.172,0.075-0.172,0.173L284.441,311.193z"/>
	<path fill="#FFFFFF" d="M284.442,474.481c-0.001,0.095,0.076,0.173,0.172,0.17c0.097,0.001,0.171-0.073,0.173-0.173v-3.02
		c-0.004-0.095-0.079-0.172-0.173-0.173c-0.097,0.001-0.172,0.076-0.172,0.171V474.481z"/>
	<path fill="#FFFFFF" d="M284.441,468.435c0.003,0.094,0.078,0.17,0.173,0.17c0.094,0,0.173-0.076,0.171-0.17v-18.146
		c0.001-0.098-0.075-0.174-0.171-0.171c-0.097-0.003-0.174,0.075-0.174,0.171L284.441,468.435z"/>
	<path fill="#FFFFFF" d="M284.442,495.644c0,0.097,0.073,0.174,0.172,0.174c0.095,0,0.173-0.078,0.173-0.174v-18.142
		c-0.001-0.092-0.079-0.168-0.173-0.171c-0.097,0.003-0.174,0.08-0.173,0.173L284.442,495.644z"/>
	<path fill="#FFFFFF" d="M284.441,414.004c0.001,0.095,0.076,0.17,0.173,0.173c0.097-0.003,0.17-0.076,0.174-0.174l-0.002-18.144
		c-0.001-0.094-0.079-0.17-0.172-0.173c-0.1,0.004-0.174,0.077-0.174,0.174V414.004z"/>
	<path fill="#FFFFFF" d="M284.441,501.695c0,0.094,0.078,0.17,0.173,0.171c0.097-0.001,0.171-0.078,0.171-0.171l0.001-3.024
		c-0.003-0.094-0.076-0.17-0.173-0.17c-0.095-0.001-0.173,0.079-0.172,0.17L284.441,501.695z"/>
	<path fill="#FFFFFF" d="M163.486,468.435c0.001,0.092,0.078,0.17,0.173,0.17c0.097,0,0.173-0.078,0.17-0.17v-18.146
		c0.001-0.097-0.073-0.173-0.17-0.171c-0.095-0.001-0.173,0.073-0.173,0.17V468.435z"/>
	<path fill="#FFFFFF" d="M163.486,447.264c0.001,0.098,0.076,0.173,0.174,0.173c0.095,0,0.169-0.075,0.169-0.171v-3.025
		c0-0.097-0.073-0.171-0.172-0.171c-0.091-0.001-0.17,0.078-0.171,0.173V447.264z"/>
	<path fill="#FFFFFF" d="M163.486,495.648c0.001,0.092,0.076,0.17,0.171,0.17c0.098,0,0.174-0.078,0.172-0.172l0.001-18.142
		c0-0.098-0.075-0.173-0.173-0.173c-0.094,0-0.17,0.076-0.171,0.171V495.648z"/>
	<path fill="#FFFFFF" d="M163.487,501.692c-0.001,0.097,0.076,0.173,0.173,0.173c0.095,0,0.169-0.076,0.169-0.17v-3.024
		c0-0.091-0.073-0.171-0.17-0.17c-0.095-0.001-0.173,0.079-0.173,0.17L163.487,501.692z"/>
	<path fill="#FFFFFF" d="M163.83,528.91l-0.001-3.026c0.001-0.097-0.073-0.173-0.17-0.173c-0.097,0-0.171,0.076-0.173,0.173v3.026
		c0,0.094,0.078,0.17,0.173,0.17C163.755,529.08,163.83,529.007,163.83,528.91z"/>
	<path fill="#FFFFFF" d="M163.486,474.479c0,0.097,0.076,0.174,0.173,0.173c0.097,0,0.17-0.076,0.17-0.173l0.003-3.023
		c0-0.097-0.076-0.173-0.171-0.171c-0.097,0.001-0.174,0.079-0.173,0.171L163.486,474.479z"/>
	<path fill="#FFFFFF" d="M163.829,441.216l0.003-18.142c0-0.097-0.076-0.173-0.173-0.173c-0.097,0.001-0.173,0.078-0.171,0.173
		v18.143c-0.001,0.097,0.075,0.173,0.17,0.17C163.755,441.388,163.831,441.313,163.829,441.216z"/>
	<path fill="#FFFFFF" d="M163.486,553.101v3.023c0.001,0.1,0.078,0.17,0.173,0.176c0.097,0,0.17-0.082,0.169-0.176l0.003-3.029
		c-0.001-0.094-0.075-0.17-0.17-0.17C163.563,552.925,163.486,553.008,163.486,553.101z"/>
	<path fill="#FFFFFF" d="M163.487,559.148v16.418c-0.001,0.1,0.076,0.182,0.173,0.182c0.095,0,0.17-0.082,0.169-0.176v-16.423
		c0.003-0.094-0.073-0.176-0.17-0.17C163.56,558.978,163.486,559.054,163.487,559.148z"/>
	<path fill="#FFFFFF" d="M163.487,332.359c-0.003,0.098,0.073,0.176,0.171,0.173c0.097,0,0.17-0.075,0.17-0.173v-18.142
		c0-0.097-0.073-0.171-0.169-0.174c-0.098,0.003-0.174,0.078-0.171,0.171L163.487,332.359z"/>
	<path fill="#FFFFFF" d="M163.487,338.406c-0.001,0.097,0.076,0.171,0.171,0.171c0.097,0,0.171-0.075,0.17-0.168v-3.025
		c0.003-0.098-0.073-0.176-0.172-0.173c-0.094-0.003-0.171,0.076-0.17,0.17V338.406z"/>
	<path fill="#FFFFFF" d="M163.487,287.001v18.143c0,0.097,0.075,0.171,0.173,0.171c0.095,0,0.17-0.075,0.17-0.171v-18.143"/>
	<path fill="#FFFFFF" d="M163.484,311.196c0.003,0.094,0.078,0.168,0.173,0.17c0.098-0.003,0.172-0.076,0.172-0.173v-3.023
		c0.001-0.098-0.073-0.173-0.17-0.173c-0.098,0-0.176,0.079-0.171,0.173L163.484,311.196z"/>
	<path fill="#FFFFFF" d="M163.486,359.577c0.001,0.094,0.078,0.169,0.171,0.172c0.098-0.004,0.172-0.078,0.172-0.174l0.001-18.143
		c0-0.097-0.073-0.174-0.173-0.171c-0.094,0-0.17,0.076-0.171,0.171V359.577z"/>
	<path fill="#FFFFFF" d="M163.484,365.622c0.003,0.094,0.079,0.17,0.173,0.174c0.097-0.003,0.174-0.081,0.174-0.174l-0.003-3.023
		c0.003-0.095-0.073-0.172-0.17-0.17c-0.098,0-0.171,0.075-0.17,0.17L163.484,365.622z"/>
	<path fill="#FFFFFF" d="M163.829,392.836l0.001-3.025c0-0.097-0.073-0.17-0.171-0.171c-0.095,0.002-0.171,0.075-0.173,0.171v3.025
		c0.001,0.094,0.078,0.172,0.171,0.172C163.755,393.008,163.83,392.93,163.829,392.836z"/>
	<path fill="#FFFFFF" d="M163.486,414.004c0.003,0.094,0.079,0.17,0.171,0.171c0.098,0.001,0.172-0.076,0.173-0.173l-0.001-18.143
		c0-0.097-0.073-0.174-0.169-0.174c-0.097,0.003-0.173,0.079-0.174,0.174V414.004z"/>
	<path fill="#FFFFFF" d="M42.876,471.457c0-0.098-0.075-0.173-0.173-0.174c-0.095,0.003-0.171,0.079-0.171,0.171v3.026
		c0,0.094,0.076,0.17,0.171,0.173c0.098,0,0.174-0.078,0.171-0.173L42.876,471.457z"/>
	<path fill="#FFFFFF" d="M42.878,389.812c-0.003-0.097-0.078-0.171-0.174-0.17c-0.095,0-0.17,0.075-0.169,0.17l-0.003,3.025
		c0,0.095,0.077,0.169,0.17,0.172c0.1-0.001,0.173-0.076,0.176-0.172V389.812z"/>
	<path fill="#FFFFFF" d="M42.534,365.619c0,0.098,0.076,0.174,0.173,0.173c0.094,0.004,0.171-0.073,0.168-0.17V362.6
		c0-0.097-0.076-0.173-0.173-0.173c-0.092-0.003-0.17,0.076-0.171,0.172L42.534,365.619z"/>
	<path fill="#FFFFFF" d="M42.532,373.579l-15.146-0.001c-0.097,0-0.174,0.076-0.171,0.173c-0.002,0.095,0.075,0.172,0.171,0.172
		l15.146,0.001l0.001,12.865c-0.001,0.097,0.075,0.173,0.172,0.173c0.097-0.001,0.17-0.076,0.171-0.173l-0.001-12.865h2.653
		c0.098-0.003,0.173-0.078,0.173-0.173c0.001-0.097-0.076-0.174-0.171-0.173h-2.653l0.001-4.93
		c-0.003-0.097-0.078-0.173-0.174-0.174c-0.095,0.001-0.17,0.075-0.171,0.171V373.579z"/>
	<path fill="#FFFFFF" d="M42.532,359.575c-0.001,0.095,0.076,0.173,0.171,0.173c0.097-0.001,0.171-0.076,0.174-0.174l-0.001-18.145
		c-0.001-0.094-0.075-0.17-0.173-0.173c-0.095,0.003-0.171,0.079-0.171,0.173V359.575z"/>
	<path fill="#FFFFFF" d="M42.534,338.409c-0.001,0.095,0.075,0.17,0.17,0.17c0.098,0,0.174-0.076,0.171-0.171l0.001-3.025
		c0-0.097-0.075-0.173-0.173-0.173c-0.095,0.002-0.17,0.076-0.171,0.171L42.534,338.409z"/>
	<path fill="#FFFFFF" d="M42.876,477.502c-0.001-0.094-0.076-0.168-0.171-0.171c-0.097,0.002-0.173,0.078-0.173,0.174v18.139
		c0.001,0.097,0.077,0.174,0.174,0.174c0.095,0,0.17-0.078,0.173-0.174L42.876,477.502z"/>
	<path fill="#FFFFFF" d="M42.532,498.672v3.021c0,0.097,0.077,0.174,0.173,0.173c0.095,0.001,0.17-0.076,0.171-0.17l-0.001-3.024
		c0.001-0.094-0.075-0.17-0.171-0.17C42.61,498.502,42.534,498.578,42.532,498.672z"/>
	<path fill="#FFFFFF" d="M42.532,395.86L42.534,414c0,0.098,0.076,0.174,0.173,0.173c0.094,0.004,0.171-0.075,0.171-0.172
		l-0.003-18.141c0.003-0.097-0.073-0.172-0.171-0.172C42.61,395.687,42.532,395.765,42.532,395.86z"/>
	<path fill="#FFFFFF" d="M42.532,332.358c0,0.097,0.077,0.174,0.173,0.171c0.094,0.003,0.171-0.075,0.171-0.171l0.001-18.143
		c0-0.095-0.076-0.173-0.171-0.171c-0.098,0-0.174,0.076-0.174,0.174V332.358z"/>
	<path fill="#FFFFFF" d="M42.532,287.001v18.143c0,0.097,0.076,0.173,0.173,0.173c0.095-0.001,0.171-0.078,0.171-0.171v-18.143"/>
	<path fill="#FFFFFF" d="M42.878,450.289c-0.001-0.098-0.076-0.173-0.174-0.171c-0.095,0-0.17,0.073-0.17,0.17l0.001,18.145
		c-0.001,0.097,0.075,0.173,0.17,0.171c0.094,0.003,0.171-0.075,0.171-0.173L42.878,450.289z"/>
	<path fill="#FFFFFF" d="M42.534,311.193c0,0.097,0.075,0.173,0.173,0.173c0.094,0,0.171-0.077,0.173-0.174l-0.002-3.022
		c-0.001-0.095-0.078-0.173-0.174-0.171c-0.095-0.001-0.171,0.073-0.171,0.171L42.534,311.193z"/>
	<path fill="#FFFFFF" d="M42.532,525.883v3.026c0.001,0.094,0.077,0.17,0.171,0.17c0.095,0,0.173-0.076,0.174-0.17v-3.026
		c0-0.091-0.076-0.17-0.174-0.173C42.608,525.714,42.534,525.79,42.532,525.883z"/>
	<path fill="#FFFFFF" d="M42.532,559.148l0.001,16.418c-0.001,0.1,0.076,0.176,0.173,0.176c0.094,0.006,0.17-0.076,0.171-0.17
		l-0.001-16.423c0-0.094-0.076-0.17-0.173-0.17C42.608,558.978,42.535,559.054,42.532,559.148z"/>
	<path fill="#FFFFFF" d="M42.534,553.101l0.001,3.023c-0.003,0.1,0.073,0.17,0.172,0.17c0.095,0,0.168-0.07,0.171-0.17l-0.001-3.023
		c-0.001-0.094-0.075-0.176-0.171-0.176C42.61,552.925,42.532,553.008,42.534,553.101z"/>
	<path fill="#FFFFFF" d="M42.878,444.243c-0.001-0.095-0.076-0.174-0.173-0.174c-0.095,0-0.173,0.078-0.172,0.173l-0.001,3.023
		c0.001,0.095,0.076,0.171,0.173,0.173c0.095,0,0.171-0.077,0.173-0.173V444.243z"/>
	<path fill="#FFFFFF" d="M42.875,423.074c0.001-0.095-0.073-0.171-0.17-0.17c-0.097,0-0.173,0.073-0.173,0.17v18.143
		c0,0.095,0.076,0.17,0.171,0.171c0.097-0.001,0.171-0.076,0.171-0.171V423.074z"/>
	<path fill="#FFFFFF" d="M42.878,521.138v-16.419c-0.003-0.092-0.078-0.17-0.174-0.173c-0.095,0.003-0.17,0.08-0.173,0.173
		l0.004,16.422l-4.67,0.003c-0.095,0-0.169,0.076-0.17,0.17v9.507h-10.31c-0.097,0-0.173,0.076-0.171,0.17
		c0,0.097,0.076,0.173,0.171,0.176l10.311-0.006l-0.003,9.508c0,0.094,0.075,0.17,0.171,0.17h4.668l0.001,9.24
		c-0.001,0.094,0.075,0.17,0.172,0.17c0.094,0.006,0.171-0.076,0.168-0.17l0.003-9.24h4.665c0.095,0,0.17-0.076,0.17-0.17
		l0.001-19.355c0.002-0.097-0.076-0.173-0.173-0.173L42.878,521.138z M42.707,531.76c-0.098,0-0.174,0.076-0.172,0.173l-0.001,8.559
		h-4.495v-9.326l7.491-0.003c0.094,0,0.168-0.076,0.171-0.173c0-0.091-0.078-0.17-0.171-0.17l-7.49-0.003v-9.334h4.495l-0.001,1.377
		c-0.001,0.097,0.075,0.176,0.172,0.176c0.098,0,0.173-0.082,0.171-0.176l0.001-1.377h4.492v19.009h-4.494l-0.001-8.562
		C42.878,531.836,42.802,531.76,42.707,531.76z"/>
</g>
</svg>
