<?xml version="1.0" encoding="utf-8"?>
<!-- Generator: Adobe Illustrator 24.0.1, SVG Export Plug-In . SVG Version: 6.00 Build 0)  -->
<svg version="1.1" id="Layer_1" xmlns="http://www.w3.org/2000/svg" xmlns:xlink="http://www.w3.org/1999/xlink" x="0px" y="0px"
	 viewBox="0 0 91.76 79.33" enable-background="new 0 0 91.76 79.33" xml:space="preserve">
<g id="a861ecb4-d4d5-4046-af7b-71a7c5f77858">
	<g id="fc0b8839-01bc-4123-b660-fa00af487c92">
		<path fill="#FFFFFF" d="M71.6,79.31l-51.35-7c-1.32-0.171-2.252-1.38-2.081-2.699c0.035-0.272,0.117-0.536,0.241-0.781L23,59.64
			c0.463-0.926,1.465-1.453,2.49-1.31l51.35,7c1.324,0.179,2.253,1.398,2.073,2.723c-0.036,0.264-0.115,0.519-0.233,0.757L74.09,78
			C73.623,78.922,72.624,79.447,71.6,79.31z"/>
		<path fill="#FEDC9E" d="M75.16,66.73l-26.39,2.8c-0.674,0.083-1.288-0.397-1.37-1.071c-0.019-0.153-0.008-0.309,0.03-0.459
			l1.18-5.15c0.095-0.534,0.531-0.942,1.07-1l26.39-2.8c0.681-0.073,1.292,0.421,1.364,1.102c0.015,0.137,0.006,0.274-0.024,0.408
			l-1.18,5.14C76.147,66.246,75.709,66.668,75.16,66.73z"/>
		<path fill="#D0AAD0" d="M43.72,76.43l-26.4,2.8c-0.676,0.067-1.278-0.427-1.345-1.103C15.961,77.994,15.97,77.86,16,77.73
			l1.17-5.15c0.099-0.536,0.538-0.943,1.08-1l26.39-2.8c0.672-0.097,1.296,0.369,1.393,1.042c0.025,0.17,0.013,0.343-0.033,0.508
			l-1.18,5.15C44.703,76.004,44.256,76.39,43.72,76.43z"/>
		<path fill="#FFFFFF" d="M4.88,49c-0.298,0-0.54-0.242-0.54-0.54l0,0v-1.22c0-0.293,0.237-0.53,0.53-0.53c0.003,0,0.007,0,0.01,0
			h3.21c0.293-0.006,0.534,0.227,0.54,0.52c0,0.003,0,0.007,0,0.01v3.41c0.024,2.38-1.886,4.329-4.266,4.354
			c-0.075,0.001-0.149,0-0.224-0.004C1.783,54.881-0.052,52.909,0,50.55v-5.4c-0.011-2.419,1.941-4.389,4.36-4.4
			c0.007,0,0.013,0,0.02,0c1.78,0.002,3.372,1.105,4,2.77c0.1,0.281-0.047,0.59-0.328,0.69c-0.024,0.008-0.048,0.015-0.072,0.02
			l-1.22,0.28c-0.253,0.05-0.507-0.083-0.61-0.32c-0.439-0.846-1.414-1.264-2.33-1c-0.89,0.249-1.494,1.076-1.46,2v5.54
			c-0.005,1.105,0.886,2.004,1.991,2.009c0.066,0,0.133-0.003,0.199-0.009c1.034-0.093,1.824-0.962,1.82-2v-1
			c0.109-0.278-0.028-0.591-0.306-0.7C5.974,48.995,5.876,48.984,5.78,49H4.88z"/>
		<path fill="#FFFFFF" d="M16.75,50.63v-9.36c0-0.298,0.242-0.54,0.54-0.54h0h1.22c0.294,0.005,0.53,0.246,0.53,0.54v9.36
			c-0.004,2.38-1.936,4.307-4.317,4.303c-0.054,0-0.109-0.001-0.163-0.003c-2.337-0.118-4.164-2.06-4.14-4.4v-9.26
			c0-0.294,0.236-0.535,0.53-0.54h1.22c0.298,0,0.54,0.242,0.54,0.54l0,0v9.3c-0.005,1.034,0.78,1.902,1.81,2
			c1.1,0.105,2.076-0.701,2.181-1.801c0.006-0.066,0.009-0.133,0.009-0.199L16.75,50.63z"/>
		<path fill="#FFFFFF" d="M21,43.16c-0.294-0.005-0.53-0.246-0.53-0.54v-1.21c0-0.294,0.236-0.535,0.53-0.54h6.56
			c0.298,0,0.54,0.242,0.54,0.54l0,0v1.21c0,0.298-0.242,0.54-0.54,0.54h0H26c-0.298,0-0.54,0.242-0.54,0.54l0,0v10.8
			c-0.005,0.294-0.246,0.53-0.54,0.53H23.7c-0.293,0-0.53-0.237-0.53-0.53V43.7c0-0.298-0.242-0.54-0.54-0.54h0H21z"/>
		<path fill="#FFFFFF" d="M30.2,55.13c-0.294,0-0.535-0.236-0.54-0.53V41.46c0.005-0.294,0.246-0.53,0.54-0.53h6.61
			c0.294,0,0.535,0.236,0.54,0.53v1.22c0,0.298-0.242,0.54-0.54,0.54l0,0h-4.3c-0.298,0-0.54,0.242-0.54,0.54l0,0v2.53
			c0,0.293,0.237,0.53,0.53,0.53c0.003,0,0.007,0,0.01,0h2.43c0.298,0,0.54,0.242,0.54,0.54l0,0v1.22c0,0.298-0.242,0.54-0.54,0.54
			l0,0h-2.43c-0.294,0-0.535,0.236-0.54,0.53v2.57c0,0.298,0.242,0.54,0.54,0.54l0,0h4.3c0.298,0,0.54,0.242,0.54,0.54l0,0v1.22
			c-0.005,0.294-0.246,0.53-0.54,0.53H30.2V55.13z"/>
		<path fill="#FFFFFF" d="M48.3,48.7c-0.298,0-0.54-0.242-0.54-0.54l0,0v-1.22c0.005-0.294,0.246-0.53,0.54-0.53h3.21
			c0.294,0,0.535,0.236,0.54,0.53v3.41c-0.009,2.391-1.956,4.322-4.347,4.313c-0.048,0-0.095-0.001-0.143-0.003
			c-2.339-0.123-4.165-2.068-4.14-4.41v-5.4c-0.011-2.419,1.941-4.389,4.36-4.4c0.007,0,0.013,0,0.02,0
			c1.779,0.005,3.37,1.107,4,2.77c0.101,0.286-0.049,0.601-0.336,0.702c-0.021,0.007-0.043,0.014-0.064,0.018l-1.22,0.28
			c-0.253,0.05-0.507-0.083-0.61-0.32c-0.42-0.874-1.406-1.321-2.34-1.06c-0.886,0.253-1.485,1.079-1.45,2v5.54
			c-0.005,1.105,0.886,2.004,1.991,2.009c0.066,0,0.133-0.003,0.199-0.009c1.049-0.1,1.841-0.996,1.81-2.05v-1
			c0.006-0.293-0.227-0.534-0.52-0.54c-0.003,0-0.007,0-0.01,0h-0.9L48.3,48.7z"/>
		<path fill="#FFFFFF" d="M60.31,54.76h-5.58c-0.298,0-0.54-0.242-0.54-0.54l0,0V41.11c0-0.298,0.242-0.54,0.54-0.54l0,0H56
			c0.293,0,0.53,0.237,0.53,0.53c0,0.003,0,0.007,0,0.01v10.8c0.005,0.294,0.246,0.53,0.54,0.53h3.27c0.298,0,0.54,0.242,0.54,0.54
			l0,0v1.22c0,0.298-0.242,0.54-0.54,0.54l0,0L60.31,54.76z"/>
		<path fill="#FFFFFF" d="M63.63,54.76h-1.27c-0.298,0.006-0.545-0.231-0.551-0.529c-0.001-0.065,0.009-0.13,0.031-0.191L66,40.93
			c0.086-0.225,0.299-0.375,0.54-0.38h0.88c0.241,0.005,0.454,0.155,0.54,0.38L72,54c0.099,0.281-0.048,0.59-0.329,0.689
			c-0.055,0.019-0.113,0.03-0.171,0.031h-1.23c-0.241-0.005-0.454-0.155-0.54-0.38l-0.56-1.76c-0.086-0.225-0.299-0.375-0.54-0.38
			h-3.36c-0.241,0.005-0.454,0.155-0.54,0.38l-0.56,1.76C64.098,54.581,63.881,54.749,63.63,54.76z M66.74,46.25l-1.07,3.38
			c-0.033,0.117,0.034,0.239,0.151,0.272c0.016,0.005,0.032,0.007,0.049,0.008H68c0.121-0.006,0.215-0.11,0.208-0.231
			c-0.001-0.016-0.004-0.033-0.008-0.049l-1.06-3.38c-0.035-0.11-0.154-0.171-0.264-0.136C66.811,46.135,66.761,46.185,66.74,46.25z
			"/>
		<path fill="#FFFFFF" d="M79.35,47c1.539,0.589,2.559,2.062,2.57,3.71v0.06c0,2.209-1.791,4-4,4h-0.63
			c-1.683,0.009-3.185-1.057-3.73-2.65c-0.103-0.28,0.04-0.59,0.32-0.694c0.033-0.012,0.066-0.021,0.1-0.026l1.21-0.22
			c0.239-0.041,0.476,0.081,0.58,0.3c0.256,0.603,0.845,0.996,1.5,1h0.63c0.911,0.006,1.654-0.729,1.66-1.64c0-0.003,0-0.007,0-0.01
			v-0.06c0.007-0.688-0.417-1.307-1.06-1.55l-2.61-1c-1.699-0.671-2.728-2.407-2.5-4.22c0.276-1.992,1.989-3.469,4-3.45H78
			c1.711,0.01,3.227,1.107,3.77,2.73c0.093,0.295-0.071,0.609-0.366,0.702C81.38,43.99,81.355,43.996,81.33,44l-1.23,0.18
			c-0.239,0.041-0.476-0.081-0.58-0.3c-0.272-0.607-0.875-0.999-1.54-1H77.3c-0.911,0.001-1.649,0.741-1.648,1.652
			c0,0.053,0.003,0.105,0.008,0.158c0.067,0.64,0.494,1.184,1.1,1.4l2.55,1L79.35,47z"/>
		<path fill="#FFFFFF" d="M89.18,47c1.543,0.586,2.568,2.059,2.58,3.71v0.06c0,2.209-1.791,4-4,4h-0.64
			c-1.681,0.008-3.178-1.059-3.72-2.65c-0.103-0.28,0.04-0.59,0.32-0.694c0.033-0.012,0.066-0.021,0.1-0.026l1.21-0.22
			c0.239-0.041,0.476,0.081,0.58,0.3c0.252,0.601,0.838,0.995,1.49,1h0.64c0.906,0.006,1.644-0.724,1.65-1.63
			c0-0.007,0-0.013,0-0.02v-0.06c0.019-0.674-0.378-1.29-1-1.55l-2.61-1c-1.719-0.653-2.771-2.394-2.55-4.22
			c0.276-1.992,1.989-3.469,4-3.45h0.54c1.711,0.01,3.227,1.107,3.77,2.73c0.093,0.295-0.071,0.609-0.366,0.702
			C91.15,43.99,91.125,43.996,91.1,44l-1.24,0.18c-0.239,0.041-0.476-0.081-0.58-0.3c-0.266-0.608-0.867-1-1.53-1h-0.64
			c-0.911,0.007-1.644,0.751-1.638,1.662c0,0.049,0.003,0.099,0.008,0.148c0.067,0.636,0.49,1.179,1.09,1.4l2.55,1L89.18,47z"/>
		<path fill="#FFFFFF" d="M30.36,29.82c-0.079-0.014-0.161-0.014-0.24,0c-0.068,0.021-0.13,0.059-0.18,0.11
			c-0.128,0.126-0.197,0.3-0.19,0.48v0.07c-0.009,0.187,0.056,0.37,0.18,0.51l0.15,0.13l0.2,0.12l0.16,0.1
			c0.042,0.019,0.077,0.05,0.1,0.09c0.032,0.032,0.059,0.069,0.08,0.11c0.006,0.06,0.006,0.12,0,0.18v0.18
			c0.007,0.081-0.014,0.163-0.06,0.23c-0.059,0.056-0.139,0.085-0.22,0.08c-0.079,0.007-0.156-0.023-0.21-0.08
			c-0.054-0.064-0.08-0.147-0.07-0.23v-0.36h-0.33v0.36c-0.009,0.18,0.06,0.355,0.19,0.48c0.052,0.051,0.113,0.092,0.18,0.12
			c0.08,0.01,0.16,0.01,0.24,0c0.157,0.007,0.311-0.046,0.43-0.15c0.126-0.127,0.192-0.302,0.18-0.48v-0.18
			c0.009-0.187-0.056-0.37-0.18-0.51c-0.046-0.052-0.1-0.095-0.16-0.13L30.44,31l-0.16-0.1c-0.042-0.019-0.077-0.05-0.1-0.09
			c-0.073-0.078-0.109-0.184-0.1-0.29v-0.07c-0.007-0.083,0.018-0.165,0.07-0.23c0.055-0.055,0.133-0.081,0.21-0.07
			c0.08-0.008,0.16,0.017,0.22,0.07c0.045,0.068,0.066,0.149,0.06,0.23v0.25H31v-0.25c0.011-0.178-0.055-0.353-0.18-0.48
			C30.694,29.859,30.527,29.804,30.36,29.82z"/>
		<polygon fill="#FFFFFF" points="31.57,32.54 32.63,32.54 32.63,32.21 31.9,32.21 31.9,31.33 32.41,31.33 32.41,31 31.9,31 
			31.9,30.18 32.63,30.18 32.63,29.85 31.57,29.85 		"/>
		<path fill="#FFFFFF" d="M33.86,29.85h-0.61v2.69h0.61c0.152,0.005,0.301-0.045,0.42-0.14c0.13-0.125,0.199-0.3,0.19-0.48v-1.43
			c0.007-0.183-0.062-0.36-0.19-0.49C34.164,29.898,34.014,29.844,33.86,29.85z M34.14,31.92c0.006,0.087-0.023,0.174-0.08,0.24
			c-0.06,0.037-0.13,0.054-0.2,0.05h-0.28v-2h0.28c0.077-0.011,0.155,0.015,0.21,0.07c0.054,0.068,0.079,0.154,0.07,0.24
			L34.14,31.92z"/>
		<path fill="#FFFFFF" d="M35.54,29.85L35,32.54h0.34l0.1-0.56H36l0.11,0.56h0.33l-0.56-2.69H35.54z M35.47,31.66l0.22-1.16
			l0.22,1.16H35.47z"/>
		<polygon fill="#FFFFFF" points="37.9,31.48 37.15,29.85 36.97,29.85 36.97,32.54 37.3,32.54 37.3,30.92 38.05,32.54 38.23,32.54 
			38.23,29.85 37.9,29.85 		"/>
		<polygon fill="#FFFFFF" points="52.46,30.07 52.46,30.48 52.89,30.16 52.89,32.33 53.21,32.33 53.21,29.65 53.03,29.65 		"/>
		<path fill="#FFFFFF" d="M54.7,29.61c-0.155-0.009-0.306,0.045-0.42,0.15c-0.132,0.128-0.201,0.307-0.19,0.49v0.33
			c-0.014,0.181,0.056,0.358,0.19,0.48c0.114,0.105,0.265,0.159,0.42,0.15c0.096,0.004,0.191-0.013,0.28-0.05v0.58
			c0.007,0.083-0.018,0.165-0.07,0.23c-0.057,0.052-0.133,0.078-0.21,0.07c-0.08,0.008-0.16-0.017-0.22-0.07
			c-0.045-0.068-0.066-0.149-0.06-0.23v-0.22h-0.33v0.22c-0.014,0.181,0.056,0.358,0.19,0.48c0.114,0.105,0.265,0.159,0.42,0.15
			c0.154,0.008,0.306-0.046,0.42-0.15c0.134-0.122,0.204-0.299,0.19-0.48v-1.49c0.011-0.183-0.058-0.362-0.19-0.49
			C55.006,29.656,54.854,29.602,54.7,29.61z M54.98,30.61c0.011,0.083-0.014,0.167-0.07,0.23c-0.055,0.056-0.132,0.085-0.21,0.08
			c-0.081,0.005-0.161-0.024-0.22-0.08c-0.048-0.067-0.069-0.149-0.06-0.23v-0.33c-0.009-0.081,0.012-0.163,0.06-0.23
			c0.057-0.06,0.138-0.09,0.22-0.08c0.079-0.01,0.158,0.02,0.21,0.08c0.056,0.063,0.081,0.147,0.07,0.23V30.61z"/>
		<path fill="#FFFFFF" d="M56.77,29.61c-0.157-0.007-0.311,0.046-0.43,0.15c-0.125,0.132-0.19,0.309-0.18,0.49v0.07
			c-0.005,0.186,0.059,0.368,0.18,0.51c0.036,0.038,0.076,0.072,0.12,0.1c-0.045,0.035-0.085,0.075-0.12,0.12
			c-0.124,0.14-0.189,0.323-0.18,0.51v0.18c-0.012,0.178,0.054,0.353,0.18,0.48c0.119,0.104,0.273,0.157,0.43,0.15
			c0.154,0.006,0.304-0.048,0.42-0.15c0.126-0.127,0.192-0.302,0.18-0.48v-0.18c0.009-0.187-0.056-0.37-0.18-0.51l-0.12-0.12
			c0.044-0.028,0.084-0.062,0.12-0.1c0.124-0.14,0.189-0.323,0.18-0.51v-0.07c0.01-0.181-0.055-0.358-0.18-0.49
			C57.074,29.658,56.924,29.604,56.77,29.61z M57.05,31.74c0.016,0.09-0.002,0.182-0.05,0.26c-0.057,0.051-0.133,0.076-0.21,0.07
			c-0.08,0.008-0.16-0.017-0.22-0.07c-0.048-0.067-0.073-0.148-0.07-0.23v-0.18c-0.011-0.059-0.011-0.121,0-0.18
			c0.015-0.044,0.039-0.085,0.07-0.12c0.054-0.058,0.118-0.106,0.19-0.14l0.18,0.14c0.028,0.037,0.051,0.078,0.07,0.12
			c0.011,0.059,0.011,0.121,0,0.18L57.05,31.74z M57.05,30.32c0.003,0.106-0.033,0.208-0.1,0.29l-0.18,0.14
			c-0.07-0.037-0.134-0.085-0.19-0.14c-0.072-0.079-0.108-0.184-0.1-0.29v-0.07c-0.006-0.083,0.019-0.165,0.07-0.23
			c0.057-0.06,0.138-0.09,0.22-0.08c0.082-0.02,0.168,0.003,0.23,0.06c0.051,0.065,0.076,0.147,0.07,0.23L57.05,30.32z"/>
		<path fill="#FFFFFF" d="M58.84,29.61c-0.155-0.009-0.306,0.045-0.42,0.15c-0.134,0.122-0.204,0.299-0.19,0.48v0.38h0.33v-0.38
			c-0.007-0.083,0.018-0.165,0.07-0.23c0.124-0.093,0.296-0.093,0.42,0c0.052,0.065,0.077,0.147,0.07,0.23v0.13
			c0.005,0.109-0.031,0.216-0.1,0.3c-0.078,0.072-0.165,0.133-0.26,0.18l-0.2,0.12c-0.054,0.038-0.105,0.081-0.15,0.13
			c-0.121,0.142-0.185,0.324-0.18,0.51v0.72h1.22V32h-0.89v-0.4c-0.005-0.104,0.027-0.207,0.09-0.29l0.11-0.09l0.16-0.09L59.13,31
			c0.052-0.038,0.099-0.081,0.14-0.13c0.121-0.142,0.185-0.324,0.18-0.51v-0.13c0.014-0.181-0.056-0.358-0.19-0.48
			C59.145,29.649,58.993,29.598,58.84,29.61z"/>
		<path fill="#FFFFFF" d="M54.18,17.88c0-3.995-2.837-7.427-6.76-8.18h-0.1c-0.093,0.177-0.163,0.365-0.21,0.56
			c4.225,0.686,7.093,4.668,6.407,8.892s-4.668,7.093-8.892,6.407c-4.225-0.686-7.093-4.668-6.407-8.892
			c0.251-1.544,0.963-2.976,2.042-4.107c1.157-1.202,2.573-2.126,4.14-2.7c-1.325,0.663-2.44,1.681-3.22,2.94
			c4.38,1.6,5.37-2.73,5.59-3.45c0.158-0.683,0.663-1.233,1.33-1.45c0,0-7.53-2.79-8.18,4.15c-3.045,3.086-3.202,7.996-0.36,11.27
			l0,0l5.24,12.76c0.332,0.599,1.086,0.816,1.685,0.485c0.204-0.113,0.372-0.281,0.485-0.485l5.21-12.71v-0.05l0,0
			C53.479,21.806,54.189,19.875,54.18,17.88z M41.06,25.55l-0.52-1.27c0.254,0.213,0.521,0.41,0.8,0.59L41.06,25.55z M42.06,27.89
			L42.06,27.89L41.4,26.3l0,0l0.47-1.14c0.354,0.196,0.722,0.367,1.1,0.51L42,27.89H42.06z M43.06,30.23L43.06,30.23l-0.66-1.6
			l1.14-2.78c0.396,0.117,0.801,0.204,1.21,0.26L43,30.23H43.06z M44.06,32.57L44.06,32.57L43.3,31l0,0v-0.06l2-4.79
			c0.2,0,0.4,0,0.6,0s0.48,0,0.71,0l-2.62,6.4L44.06,32.57z M45.06,34.9L45.06,34.9l-0.65-1.59l3-7.22
			c0.5-0.084,0.992-0.211,1.47-0.38L45.06,34.9z M46.56,35.9c-0.163,0.301-0.54,0.413-0.841,0.249
			c-0.106-0.057-0.192-0.144-0.249-0.249l-0.11-0.27L49.4,25.4c0.637-0.299,1.235-0.675,1.78-1.12L46.56,35.9z"/>
		<path fill="#FFFFFF" d="M40.48,14.4c0.386,0.534,0.95,0.914,1.59,1.07c1.14,0.19,1.61-0.8,2.67-0.75c0,0-1.17-1.4-2.29-1.47
			c-0.747,0.006-1.475,0.236-2.09,0.66c0.992-0.355,2.091-0.253,3,0.28C42.407,13.899,41.38,13.974,40.48,14.4z"/>
		<polygon fill="#FFFFFF" points="31.97,19.89 31.41,20.01 31.61,20.92 30.62,21.13 30.48,20.5 29.92,20.62 30.06,21.25 
			29.16,21.44 28.97,20.53 28.41,20.65 28.72,22.12 32.28,21.36 		"/>
		<polygon fill="#FFFFFF" points="31.82,18.07 31.11,18.07 30.66,17.88 31.82,17.43 31.82,16.81 29.91,17.56 28.18,16.83 
			28.18,17.45 29.66,18.08 28.18,18.09 28.19,18.66 31.83,18.64 		"/>
		<path fill="#FFFFFF" d="M29.19,15.25l1.9,0.37c0.246,0.066,0.509,0.022,0.72-0.12c0.334-0.296,0.432-0.777,0.24-1.18
			c-0.145-0.208-0.369-0.349-0.62-0.39l-1.9-0.38c-0.247-0.052-0.504-0.009-0.72,0.12c-0.172,0.137-0.286,0.333-0.32,0.55
			c-0.054,0.217-0.022,0.446,0.09,0.64C28.721,15.069,28.941,15.21,29.19,15.25z M29.19,14.14c0.087-0.035,0.183-0.035,0.27,0
			l1.9,0.38c0.093,0.013,0.178,0.059,0.24,0.13c0.028,0.071,0.028,0.149,0,0.22c-0.011,0.078-0.05,0.149-0.11,0.2
			c-0.086,0.039-0.184,0.039-0.27,0l-1.89-0.37c-0.13,0-0.21-0.07-0.24-0.13c-0.031-0.07-0.031-0.15,0-0.22
			c-0.008-0.075,0.013-0.15,0.06-0.21H29.19z"/>
		<polygon fill="#FFFFFF" points="32.34,12.16 29.51,10.98 29.29,11.51 32.65,12.91 33.23,11.52 32.7,11.3 		"/>
		<path fill="#FFFFFF" d="M31.45,9l1.6,1.08c0.203,0.153,0.46,0.215,0.71,0.17c0.217-0.053,0.404-0.189,0.52-0.38
			c0.131-0.178,0.188-0.4,0.16-0.62c-0.05-0.25-0.202-0.468-0.42-0.6l-1.6-1.08c-0.203-0.153-0.46-0.215-0.71-0.17
			c-0.213,0.056-0.396,0.192-0.51,0.38c-0.134,0.177-0.195,0.399-0.17,0.62C31.08,8.65,31.232,8.868,31.45,9z M31.67,8.1
			c0.06-0.08,0.11-0.13,0.17-0.14C31.929,7.938,32.022,7.952,32.1,8l1.6,1.1c0.085,0.041,0.147,0.118,0.17,0.21
			c0.007,0.077-0.019,0.153-0.07,0.21c-0.035,0.068-0.097,0.119-0.17,0.14c-0.094,0.011-0.188-0.018-0.26-0.08l-1.6-1.09
			c-0.082-0.044-0.144-0.12-0.17-0.21c-0.007-0.077,0.019-0.153,0.07-0.21V8.1z"/>
		<path fill="#FFFFFF" d="M35.28,5.48l-0.62,0.59l0.4,0.41l0.2-0.19l0.48,0.49c0.08,0.09,0.13,0.17,0.12,0.24
			c-0.037,0.149-0.159,0.263-0.31,0.29c-0.07,0-0.15,0-0.23-0.13L34,5.79c-0.067-0.063-0.11-0.148-0.12-0.24
			c0.031-0.155,0.154-0.274,0.31-0.3c0.092,0.008,0.176,0.056,0.23,0.13l0.23,0.24l0.41-0.4L34.81,5
			c-0.166-0.193-0.406-0.306-0.66-0.31c-0.454,0.027-0.822,0.378-0.87,0.83c-0.005,0.253,0.097,0.496,0.28,0.67l1.34,1.4
			c0.173,0.183,0.409,0.293,0.66,0.31c0.224-0.013,0.434-0.109,0.59-0.27c0.166-0.145,0.267-0.35,0.28-0.57
			c0.006-0.253-0.096-0.497-0.28-0.67L35.28,5.48z"/>
		
			<rect x="36.699" y="2.727" transform="matrix(0.828 -0.5608 0.5608 0.828 3.8129 21.5221)" fill="#FFFFFF" width="0.57" height="3.64"/>
		<path fill="#FFFFFF" d="M38.18,2.8c0.063,0.144,0.159,0.27,0.28,0.37c0.121,0.107,0.265,0.186,0.42,0.23
			c0.137,0.037,0.278,0.057,0.42,0.06c0.083-0.014,0.167-0.014,0.25,0c0.154,0.04,0.282,0.147,0.35,0.29L40,4
			c0.041,0.085,0.041,0.185,0,0.27c0,0.06-0.08,0.1-0.17,0.15c-0.071,0.028-0.149,0.028-0.22,0c-0.073,0-0.133-0.07-0.18-0.21
			l-0.19-0.43l-0.52,0.24l0.19,0.43c0.094,0.236,0.283,0.421,0.52,0.51c0.205,0.083,0.435,0.083,0.64,0
			c0.205-0.087,0.369-0.247,0.46-0.45c0.087-0.236,0.069-0.498-0.05-0.72l-0.09-0.21c-0.128-0.299-0.386-0.524-0.7-0.61
			c-0.144-0.038-0.291-0.059-0.44-0.06h-0.23c-0.154-0.045-0.282-0.154-0.35-0.3V2.53c-0.037-0.086-0.037-0.184,0-0.27
			c0.038-0.066,0.098-0.116,0.17-0.14C38.877,2.062,38.934,2.019,39,2c0.07,0,0.13,0.08,0.18,0.2l0.14,0.29l0.52-0.24L39.72,2
			c-0.097-0.234-0.285-0.418-0.52-0.51c-0.213-0.063-0.442-0.042-0.64,0.06C38.352,1.632,38.187,1.794,38.1,2
			c-0.103,0.232-0.103,0.498,0,0.73L38.18,2.8z"/>
		<polygon fill="#FFFFFF" points="42.59,4.04 42.43,3.34 42.53,2.85 43.21,3.9 43.81,3.77 42.68,2.06 43.03,0.21 42.42,0.34 
			42.12,1.92 41.8,0.48 41.24,0.6 42.03,4.16 		"/>
		<polygon fill="#FFFFFF" points="45.34,0.59 45.38,3.66 45.95,3.65 45.91,0.58 46.49,0.57 46.48,0 44.75,0.03 44.76,0.6 		"/>
		<polygon fill="#FFFFFF" points="50.42,2.74 50.98,2.92 50.49,4.42 51.04,4.6 52.16,1.14 51.61,0.96 51.16,2.38 50.6,2.2 
			51.06,0.78 50.52,0.61 49.4,4.07 49.94,4.25 		"/>
		<path fill="#FFFFFF" d="M52.6,5.35L53,4.9l0.56,0.33l-0.2,0.55l0.51,0.3l1.2-3.51l-0.49-0.29l-2.49,2.77L52.6,5.35z M54.21,3.45
			l-0.46,1.24l-0.4-0.23L54.21,3.45z"/>
		<polygon fill="#FFFFFF" points="58.09,4.9 56.85,6.25 57.45,4.3 57.21,4.08 54.74,6.75 55.16,7.14 56.41,5.79 55.8,7.73 
			56.05,7.96 58.52,5.28 		"/>
		<polygon fill="#FFFFFF" points="60.3,8.42 60.76,8.09 59.74,6.68 59.28,7.01 59.62,7.48 57.13,9.28 57.47,9.74 59.95,7.95 		"/>
		<polygon fill="#FFFFFF" points="58.86,12.29 62.48,11.48 62.25,10.95 59.82,11.55 61.9,10.16 61.66,9.63 58.63,11.77 		"/>
		<polygon fill="#FFFFFF" points="59.79,15.53 60.35,15.41 60.16,14.5 61.14,14.29 61.28,14.92 61.84,14.8 61.7,14.17 62.6,13.97 
			62.79,14.89 63.35,14.77 63.04,13.3 59.48,14.06 		"/>
		<path fill="#FFFFFF" d="M59.94,17.33h1.46v0.26l-1.46,0.3v0.59l1.6-0.35c0.018,0.034,0.041,0.065,0.07,0.09
			c0.181,0.176,0.428,0.267,0.68,0.25h0.39c0.463,0.028,0.861-0.325,0.889-0.788c0.002-0.027,0.002-0.055,0.001-0.082v-0.86h-3.64
			L59.94,17.33z M63,17.33v0.29c0.006,0.078-0.015,0.156-0.06,0.22c-0.074,0.058-0.166,0.086-0.26,0.08H62.3
			c-0.094,0.015-0.19-0.015-0.26-0.08c-0.054-0.068-0.069-0.158-0.04-0.24v-0.29L63,17.33z"/>
		<polygon fill="#FFFFFF" points="59.71,20.25 60.41,20.39 60.81,20.67 59.58,20.88 59.46,21.48 61.48,21.14 63.03,22.2 
			63.15,21.59 61.83,20.68 63.28,20.97 63.39,20.41 59.82,19.69 		"/>
		<path fill="#B3DDDF" d="M73.54,77.3H15.85c-1.491-0.003-2.697-1.215-2.694-2.706c0.001-0.294,0.049-0.586,0.144-0.864L17,62.89
			c0.373-1.09,1.398-1.822,2.55-1.82h57.71c1.491,0.003,2.697,1.215,2.694,2.706c-0.001,0.294-0.049,0.586-0.144,0.864l-3.73,10.84
			C75.711,76.569,74.689,77.301,73.54,77.3z"/>
		<circle fill="#FEDC9E" cx="14.58" cy="75.48" r="1.29"/>
		<circle fill="#B3DDDF" cx="10.88" cy="68.82" r="1.29"/>
		<circle fill="#D0AAD0" cx="77.64" cy="69.18" r="1.39"/>
		<circle fill="#FEDC9E" cx="81.01" cy="63.52" r="2.03"/>
		<path fill="#FFFFFF" d="M23.66,66h0.61l-1.2,6.85H22l0.61-3.42l-1.3,2.35h-0.62l-0.45-2.35l-0.61,3.42h-1.09L19.75,66h0.61l1,3.8
			L23.66,66z"/>
		<path fill="#FFFFFF" d="M25.22,72.92c-0.395,0.033-0.785-0.114-1.06-0.4c-0.214-0.246-0.325-0.565-0.31-0.89
			c-0.015-0.13-0.015-0.26,0-0.39L24,70.38h1.08l-0.15,0.86c0,0.09,0,0.17,0,0.23c-0.012,0.093,0.013,0.186,0.07,0.26
			c0.111,0.085,0.251,0.124,0.39,0.11c0.148,0.007,0.295-0.031,0.42-0.11c0.133-0.132,0.218-0.304,0.24-0.49L27,66h1.07l-0.92,5.25
			c-0.076,0.498-0.327,0.952-0.71,1.28C26.09,72.796,25.659,72.933,25.22,72.92z"/>
		<path fill="#FFFFFF" d="M29.16,72.92c-0.398,0.032-0.79-0.115-1.07-0.4c-0.207-0.249-0.313-0.566-0.3-0.89
			c-0.015-0.13-0.015-0.26,0-0.39L28.75,66h1.08l-0.92,5.25c-0.009,0.076-0.009,0.154,0,0.23c-0.012,0.093,0.013,0.186,0.07,0.26
			c0.111,0.085,0.251,0.124,0.39,0.11c0.318,0.039,0.607-0.187,0.646-0.505c0.004-0.031,0.005-0.063,0.004-0.095l0.9-5.25H32
			l-0.92,5.25c-0.076,0.498-0.327,0.952-0.71,1.28C30.023,72.794,29.596,72.931,29.16,72.92z"/>
		<path fill="#FFFFFF" d="M34.23,69.24l0.74,3.6h-1.16l-0.45-2.19l-0.51,0.85l-0.24,1.34h-1.08L32.74,66h1.07l-0.49,2.78L35,66h1.17
			L34.23,69.24z"/>
		<path fill="#FFFFFF" d="M36.87,72.92c-0.662,0.091-1.272-0.372-1.363-1.035c-0.012-0.088-0.014-0.177-0.007-0.265
			c-0.01-0.126-0.01-0.254,0-0.38l0.65-3.65c0.076-0.498,0.327-0.952,0.71-1.28c0.341-0.269,0.766-0.41,1.2-0.4
			c0.398-0.03,0.789,0.116,1.07,0.4c0.215,0.245,0.327,0.564,0.31,0.89c0.01,0.13,0.01,0.26,0,0.39l-0.11,0.61h-1.08l0.11-0.61
			c0-0.09,0-0.16,0-0.21c0.007-0.1-0.022-0.199-0.08-0.28c-0.107-0.094-0.249-0.137-0.39-0.12c-0.15-0.009-0.298,0.033-0.42,0.12
			c-0.072,0.056-0.124,0.133-0.15,0.22c-0.036,0.087-0.063,0.178-0.08,0.27l-0.64,3.65c-0.009,0.066-0.009,0.134,0,0.2
			c-0.012,0.103,0.017,0.207,0.08,0.29c0.107,0.085,0.244,0.125,0.38,0.11c0.151,0.006,0.3-0.032,0.43-0.11
			c0.126-0.134,0.203-0.307,0.22-0.49L37.94,70H37.4l0.19-1.07h1.61l-0.41,2.36c-0.066,0.501-0.32,0.958-0.71,1.28
			C37.728,72.821,37.301,72.944,36.87,72.92z"/>
		<path fill="#FFFFFF" d="M39.21,72.84L40.42,66h1.07l-1,5.78h1.76l-0.19,1.07L39.21,72.84z"/>
		<path fill="#FFFFFF" d="M45.13,72.84v-1.08H43.9l-0.4,1.08h-1.09L45,66h1.08l0.17,6.85L45.13,72.84z M44.27,70.68h0.86v-2.46
			L44.27,70.68z"/>
		<path fill="#FFFFFF" d="M48.22,72.92c-0.399,0.034-0.792-0.112-1.07-0.4c-0.214-0.246-0.325-0.565-0.31-0.89
			c-0.01-0.13-0.01-0.26,0-0.39l0.16-0.9h1.08l-0.16,0.9c-0.004,0.067-0.004,0.133,0,0.2c-0.007,0.103,0.022,0.205,0.08,0.29
			c0.108,0.083,0.244,0.123,0.38,0.11c0.148,0.01,0.296-0.028,0.42-0.11c0.135-0.13,0.22-0.304,0.24-0.49l0.08-0.44
			c0.003-0.057,0.003-0.113,0-0.17c0.001-0.228-0.089-0.448-0.25-0.61c-0.114-0.097-0.238-0.181-0.37-0.25
			c-0.211-0.127-0.412-0.271-0.6-0.43c-0.313-0.321-0.485-0.752-0.48-1.2c-0.016-0.126-0.016-0.254,0-0.38v-0.17
			c0.066-0.501,0.32-0.958,0.71-1.28c0.343-0.273,0.772-0.415,1.21-0.4c0.398-0.026,0.787,0.119,1.07,0.4
			c0.207,0.249,0.314,0.566,0.3,0.89c0.015,0.13,0.015,0.26,0,0.39l-0.11,0.6h-1l0.1-0.6c0.009-0.066,0.009-0.134,0-0.2
			c0.007-0.103-0.022-0.205-0.08-0.29c-0.107-0.094-0.249-0.137-0.39-0.12c-0.149-0.006-0.296,0.036-0.42,0.12
			c-0.066,0.061-0.117,0.137-0.15,0.22c-0.037,0.086-0.061,0.177-0.07,0.27v0.17c-0.007,0.063-0.007,0.127,0,0.19
			c-0.005,0.218,0.082,0.429,0.24,0.58l0.15,0.12l0.19,0.12c0.229,0.116,0.439,0.268,0.62,0.45c0.315,0.327,0.487,0.766,0.48,1.22
			c0.009,0.12,0.009,0.24,0,0.36l-0.07,0.44c-0.069,0.503-0.326,0.96-0.72,1.28C49.123,72.802,48.675,72.945,48.22,72.92z"/>
		<path fill="#FFFFFF" d="M51.94,72.92c-0.399,0.034-0.792-0.112-1.07-0.4c-0.207-0.249-0.313-0.566-0.3-0.89
			c-0.01-0.13-0.01-0.26,0-0.39l0.16-0.9h1.08l-0.16,0.9c-0.004,0.067-0.004,0.133,0,0.2c-0.007,0.103,0.022,0.205,0.08,0.29
			c0.108,0.083,0.244,0.123,0.38,0.11c0.151,0.008,0.301-0.03,0.43-0.11c0.131-0.132,0.213-0.305,0.23-0.49l0.08-0.44
			c0.003-0.057,0.003-0.113,0-0.17c0.006-0.229-0.085-0.451-0.25-0.61c-0.114-0.097-0.238-0.181-0.37-0.25
			c-0.209-0.13-0.41-0.273-0.6-0.43c-0.313-0.321-0.485-0.752-0.48-1.2c-0.011-0.126-0.011-0.254,0-0.38v-0.17
			c0.102-0.523,0.408-0.984,0.85-1.28c0.338-0.275,0.765-0.417,1.2-0.4c0.398-0.029,0.789,0.117,1.07,0.4
			c0.207,0.249,0.314,0.566,0.3,0.89c0.015,0.13,0.015,0.26,0,0.39l-0.1,0.6h-1.15l0.11-0.6c0.004-0.067,0.004-0.133,0-0.2
			c0.009-0.105-0.023-0.209-0.09-0.29c-0.096-0.075-0.218-0.111-0.34-0.1c-0.15-0.009-0.298,0.033-0.42,0.12
			c-0.072,0.058-0.127,0.134-0.16,0.22c-0.033,0.087-0.056,0.178-0.07,0.27v0.17c0,0.09,0,0.16,0,0.19
			c-0.005,0.22,0.086,0.432,0.25,0.58c0.041,0.047,0.088,0.087,0.14,0.12l0.19,0.12c0.232,0.116,0.445,0.268,0.63,0.45
			c0.295,0.329,0.453,0.758,0.44,1.2c0.009,0.12,0.009,0.24,0,0.36l-0.08,0.44c-0.069,0.503-0.326,0.96-0.72,1.28
			C52.843,72.802,52.395,72.945,51.94,72.92z"/>
		<path fill="#FFFFFF" d="M55.83,72.84H54.2L55.41,66h1.48c0.391-0.03,0.777,0.108,1.06,0.38c0.149,0.149,0.247,0.342,0.28,0.55
			c0.011,0.106,0.011,0.214,0,0.32c0.01,0.133,0.01,0.267,0,0.4l-0.12,0.64c-0.062,0.411-0.268,0.786-0.58,1.06
			c0.251,0.212,0.382,0.533,0.35,0.86c0.009,0.123,0.009,0.247,0,0.37l-0.1,0.63c-0.052,0.248-0.139,0.487-0.26,0.71
			c-0.112,0.217-0.273,0.406-0.47,0.55C56.7,72.733,56.268,72.864,55.83,72.84z M55.46,71.77H56c0.152,0.015,0.304-0.024,0.43-0.11
			c0.132-0.119,0.214-0.283,0.23-0.46l0.11-0.63c0-0.09,0-0.16,0-0.22c0.006-0.097-0.022-0.192-0.08-0.27
			c-0.106-0.089-0.242-0.132-0.38-0.12h-0.55L55.46,71.77z M56,68.88h0.41c0.149,0.013,0.297-0.026,0.42-0.11
			c0.129-0.133,0.21-0.306,0.23-0.49l0.12-0.64c0.006-0.06,0.006-0.12,0-0.18c0.013-0.102-0.012-0.205-0.07-0.29
			c-0.11-0.087-0.251-0.126-0.39-0.11h-0.4L56,68.88z"/>
		<path fill="#FFFFFF" d="M60.52,72.84v-1.08h-1.24l-0.39,1.08H57.8L60.37,66h1.08l0.17,6.85L60.52,72.84z M59.66,70.68h0.86v-2.46
			L59.66,70.68z"/>
		<path fill="#FFFFFF" d="M65.37,72.84h-1.1l-0.07-2.75h-0.49l-0.49,2.75h-1.07l1.2-6.84H65c0.375-0.016,0.739,0.129,1,0.4
			c0.213,0.242,0.324,0.558,0.31,0.88c0.01,0.13,0.01,0.26,0,0.39l-0.13,0.74c-0.066,0.501-0.32,0.958-0.71,1.28l-0.19,0.13
			L65.37,72.84z M65.23,67.67c0.004-0.07,0.004-0.14,0-0.21c0.007-0.1-0.022-0.199-0.08-0.28c-0.104-0.092-0.242-0.136-0.38-0.12
			h-0.55l-0.34,2h0.55c0.149,0.006,0.296-0.036,0.42-0.12c0.134-0.125,0.216-0.297,0.23-0.48L65.23,67.67z"/>
		<path fill="#FFFFFF" d="M69.89,67.06h-1.76l-0.3,1.73H69l-0.18,1.07h-1.18l-0.34,1.91h1.76l-0.18,1.07H66L67.24,66h2.84
			L69.89,67.06z"/>
		<path fill="#FFFFFF" d="M74.06,66l-1.21,6.85h-0.62l-1-3.47l-0.62,3.47H69.5L70.71,66h0.62l1,3.46L73,66H74.06z"/>
		<circle fill="#D0AAD0" cx="18.51" cy="61.98" r="2.72"/>
		<circle fill="#509498" cx="76.3" cy="76" r="2.48"/>
	</g>
</g>
</svg>
