<?xml version="1.0" encoding="utf-8"?>
<!-- Generator: Adobe Illustrator 24.0.1, SVG Export Plug-In . SVG Version: 6.00 Build 0)  -->
<svg version="1.1" id="Lager_1" xmlns="http://www.w3.org/2000/svg" xmlns:xlink="http://www.w3.org/1999/xlink" x="0px" y="0px"
	 viewBox="0 0 91.8 67" enable-background="new 0 0 91.8 67" xml:space="preserve">
<g>
	<g>
		<path fill="#FFFFFF" d="M4.9,49c-0.3,0-0.5-0.2-0.5-0.5v-1.2c0-0.3,0.2-0.5,0.5-0.5h3.2c0.3,0,0.5,0.2,0.5,0.5v3.4
			c0,2.4-2,4.4-4.5,4.3C1.8,54.9,0,52.9,0,50.6v-5.4c0-2.4,2-4.4,4.4-4.4c1.8,0,3.3,1.1,3.9,2.8c0.1,0.3-0.1,0.6-0.4,0.7l-1.2,0.3
			c-0.3,0.1-0.5-0.1-0.6-0.3c-0.4-0.8-1.4-1.3-2.3-1.1s-1.5,1.1-1.5,2v5.5c0,1.2,1,2.1,2.2,2c1-0.1,1.8-1,1.8-2.1v-1
			c0-0.3-0.2-0.5-0.5-0.5L4.9,49L4.9,49z"/>
		<path fill="#FFFFFF" d="M16.8,50.6v-9.4c0-0.3,0.2-0.5,0.5-0.5h1.2c0.3,0,0.5,0.2,0.5,0.5v9.4c0,2.4-2,4.4-4.5,4.3
			c-2.3-0.1-4.1-2.1-4.1-4.4v-9.3c0-0.3,0.2-0.5,0.5-0.5h1.2c0.3,0,0.5,0.2,0.5,0.5v9.3c0,1,0.8,2,1.8,2.1
			C15.7,52.7,16.7,51.8,16.8,50.6L16.8,50.6z"/>
		<path fill="#FFFFFF" d="M21,43.2c-0.3,0-0.5-0.2-0.5-0.5v-1.2c0-0.3,0.2-0.5,0.5-0.5h6.6c0.3,0,0.5,0.2,0.5,0.5v1.2
			c0,0.3-0.2,0.5-0.5,0.5H26c-0.3,0-0.5,0.2-0.5,0.5v10.8c0,0.3-0.2,0.5-0.5,0.5h-1.2c-0.3,0-0.5-0.2-0.5-0.5V43.7
			c0-0.3-0.2-0.5-0.5-0.5H21L21,43.2z"/>
		<path fill="#FFFFFF" d="M30.2,55.1c-0.3,0-0.5-0.2-0.5-0.5V41.5c0-0.3,0.2-0.5,0.5-0.5h6.6c0.3,0,0.5,0.2,0.5,0.5v1.2
			c0,0.3-0.2,0.5-0.5,0.5h-4.3c-0.3,0-0.5,0.2-0.5,0.5v2.5c0,0.3,0.2,0.5,0.5,0.5h2.4c0.3,0,0.5,0.2,0.5,0.5v1.2
			c0,0.3-0.2,0.5-0.5,0.5h-2.4c-0.3,0-0.5,0.2-0.5,0.5V52c0,0.3,0.2,0.5,0.5,0.5h4.3c0.3,0,0.5,0.2,0.5,0.5v1.2
			c0,0.3-0.2,0.5-0.5,0.5L30.2,55.1L30.2,55.1z"/>
		<g>
			<path fill="#FFFFFF" d="M48.3,48.7c-0.3,0-0.5-0.2-0.5-0.5V47c0-0.3,0.2-0.5,0.5-0.5h3.2c0.3,0,0.5,0.2,0.5,0.5v3.4
				c0,2.4-2,4.4-4.5,4.3c-2.3-0.1-4.1-2.1-4.1-4.4v-5.4c0-2.4,2-4.4,4.4-4.4c1.8,0,3.3,1.1,3.9,2.8c0.1,0.3-0.1,0.6-0.4,0.7
				l-1.2,0.3c-0.3,0.1-0.5-0.1-0.6-0.3c-0.4-0.8-1.4-1.3-2.3-1.1c-0.9,0.2-1.5,1.1-1.5,2v5.5c0,1.2,1,2.1,2.2,2c1-0.1,1.8-1,1.8-2.1
				v-1c0-0.3-0.2-0.5-0.5-0.5L48.3,48.7L48.3,48.7z"/>
			<path fill="#FFFFFF" d="M60.3,54.8h-5.6c-0.3,0-0.5-0.2-0.5-0.5V41.1c0-0.3,0.2-0.5,0.5-0.5h1.2c0.3,0,0.5,0.2,0.5,0.5v10.8
				c0,0.3,0.2,0.5,0.5,0.5h3.3c0.3,0,0.5,0.2,0.5,0.5v1.2C60.8,54.5,60.6,54.7,60.3,54.8L60.3,54.8z"/>
			<path fill="#FFFFFF" d="M63.6,54.8h-1.3c-0.4,0-0.6-0.4-0.5-0.7L66,40.9c0.1-0.2,0.3-0.4,0.5-0.4h0.9c0.2,0,0.5,0.2,0.5,0.4
				L72,54c0.1,0.4-0.1,0.7-0.5,0.7h-1.3c-0.2,0-0.5-0.2-0.5-0.4l-0.6-1.8c-0.1-0.2-0.3-0.4-0.5-0.4h-3.4c-0.2,0-0.5,0.2-0.5,0.4
				l-0.6,1.8C64.1,54.6,63.9,54.8,63.6,54.8z M66.7,46.2l-1.1,3.4c0,0.1,0.1,0.3,0.2,0.3H68c0.1,0,0.2-0.1,0.2-0.3l-1.1-3.4
				C67.1,46,66.8,46,66.7,46.2z"/>
			<path fill="#FFFFFF" d="M79.3,47c1.5,0.6,2.6,2.1,2.6,3.7v0.1c0,2.2-1.8,4-4,4h-0.6c-1.7,0-3.2-1.1-3.7-2.7
				c-0.1-0.3,0.1-0.7,0.4-0.7l1.2-0.2c0.2,0,0.5,0.1,0.6,0.3c0.3,0.6,0.8,1,1.5,1h0.6c0.9,0,1.7-0.7,1.7-1.7v-0.1
				c0-0.7-0.4-1.3-1.1-1.6l-2.6-1c-1.7-0.6-2.8-2.4-2.5-4.2c0.3-2,2-3.4,4-3.4H78c1.7,0,3.2,1.1,3.8,2.7c0.1,0.3-0.1,0.7-0.4,0.7
				L80,44.2c-0.2,0-0.5-0.1-0.6-0.3c-0.3-0.6-0.9-1-1.5-1h-0.6c-1,0-1.7,0.8-1.6,1.8c0.1,0.6,0.5,1.2,1.1,1.4L79.3,47L79.3,47z"/>
			<path fill="#FFFFFF" d="M89.2,47c1.5,0.6,2.6,2.1,2.6,3.7v0.1c0,2.2-1.8,4-4,4h-0.6c-1.7,0-3.2-1.1-3.7-2.7
				c-0.1-0.3,0.1-0.7,0.4-0.7l1.2-0.2c0.2,0,0.5,0.1,0.6,0.3c0.3,0.6,0.8,1,1.5,1h0.6c0.9,0,1.7-0.7,1.7-1.7v-0.1
				c0-0.7-0.4-1.3-1.1-1.6l-2.6-1c-1.7-0.6-2.8-2.4-2.5-4.2c0.3-2,2-3.4,4-3.4h0.5c1.7,0,3.2,1.1,3.8,2.7c0.1,0.3-0.1,0.7-0.4,0.7
				L90,44.1c-0.2,0-0.5-0.1-0.6-0.3c-0.3-0.6-0.9-1-1.5-1h-0.6c-1,0-1.7,0.8-1.6,1.8c0.1,0.6,0.5,1.2,1.1,1.4L89.2,47L89.2,47z"/>
		</g>
	</g>
	<g>
		<path fill="#FFFFFF" d="M30.4,29.8c-0.1,0-0.2,0-0.2,0c-0.1,0-0.1,0.1-0.2,0.1c-0.1,0.1-0.2,0.3-0.2,0.5v0.1
			c0,0.2,0.1,0.4,0.2,0.5l0.1,0.1c0.1,0,0.1,0.1,0.2,0.1s0.1,0.1,0.2,0.1s0.1,0.1,0.1,0.1l0.1,0.1c0,0,0,0.1,0,0.2v0.2
			c0,0.1,0,0.2-0.1,0.2c0,0-0.1,0.1-0.2,0.1s-0.2,0-0.2-0.1s-0.1-0.1-0.1-0.2v-0.4h-0.3v0.4c0,0.2,0.1,0.4,0.2,0.5
			c0.1,0,0.1,0.1,0.2,0.1s0.2,0,0.2,0c0.2,0,0.3,0,0.4-0.1s0.2-0.3,0.2-0.5v-0.2c0-0.2-0.1-0.4-0.2-0.5c0-0.1-0.1-0.1-0.2-0.1
			S30.5,31,30.4,31s-0.1-0.1-0.2-0.1l-0.1-0.1C30,30.7,30,30.6,30,30.5v-0.1c0-0.1,0-0.2,0.1-0.2c0-0.1,0.1-0.1,0.2-0.1
			s0.2,0,0.2,0.1c0,0,0.1,0.1,0.1,0.2v0.2H31v-0.2c0-0.2-0.1-0.4-0.2-0.5C30.7,29.9,30.5,29.8,30.4,29.8z"/>
		<polygon fill="#FFFFFF" points="31.6,32.5 32.6,32.5 32.6,32.2 31.9,32.2 31.9,31.3 32.4,31.3 32.4,31 31.9,31 31.9,30.2 
			32.6,30.2 32.6,29.9 31.6,29.9 		"/>
		<path fill="#FFFFFF" d="M33.9,29.9h-0.6v2.7h0.6c0.2,0,0.3,0,0.4-0.1c0.1-0.1,0.2-0.3,0.2-0.5v-1.4c0-0.2-0.1-0.4-0.2-0.5
			C34.2,29.9,34,29.9,33.9,29.9z M34.1,31.9c0,0.1,0,0.2-0.1,0.2c0,0-0.1,0.1-0.2,0.1h-0.3v-2h0.3c0.1,0,0.2,0,0.2,0.1
			s0.1,0.1,0.1,0.2V31.9z"/>
		<path fill="#FFFFFF" d="M35.5,29.9L35,32.5h0.3l0.1-0.6H36l0.1,0.6h0.3l-0.6-2.7h-0.3V29.9z M35.5,31.7l0.2-1.2l0.2,1.2H35.5z"/>
		<polygon fill="#FFFFFF" points="37.9,31.5 37.2,29.9 37,29.9 37,32.5 37.3,32.5 37.3,30.9 38,32.5 38.2,32.5 38.2,29.9 37.9,29.9 
					"/>
		<polygon fill="#FFFFFF" points="52.5,30.1 52.5,30.5 52.9,30.2 52.9,32.3 53.2,32.3 53.2,29.6 53,29.6 		"/>
		<path fill="#FFFFFF" d="M54.7,29.6c-0.2,0-0.3,0.1-0.4,0.1c-0.1,0.1-0.2,0.3-0.2,0.5v0.3c0,0.2,0.1,0.4,0.2,0.5
			c0.1,0.1,0.2,0.1,0.4,0.1c0.1,0,0.2,0,0.3-0.1v0.6c0,0.1,0,0.2-0.1,0.2c0,0-0.1,0.1-0.2,0.1c-0.1,0-0.2,0-0.2-0.1
			s-0.1-0.1-0.1-0.2v-0.2h-0.3v0.2c0,0.2,0.1,0.4,0.2,0.5c0.1,0.1,0.2,0.1,0.4,0.1s0.3,0,0.4-0.1c0.1-0.1,0.2-0.3,0.2-0.5v-1.5
			c0-0.2-0.1-0.4-0.2-0.5C55,29.7,54.9,29.6,54.7,29.6z M55,30.6c0,0.1,0,0.2-0.1,0.2c0,0-0.1,0.1-0.2,0.1c-0.1,0-0.2,0-0.2-0.1
			c0,0-0.1-0.1-0.1-0.2v-0.3c0-0.1,0-0.2,0.1-0.2c0-0.1,0.1-0.1,0.2-0.1c0.1,0,0.2,0,0.2,0.1c0,0,0.1,0.1,0.1,0.2V30.6z"/>
		<path fill="#FFFFFF" d="M56.8,29.6c-0.2,0-0.3,0.1-0.4,0.1c-0.1,0.1-0.2,0.3-0.2,0.5v0.1c0,0.2,0.1,0.4,0.2,0.5l0.1,0.1
			c-0.1,0-0.1,0.1-0.1,0.1c-0.1,0.1-0.2,0.3-0.2,0.5v0.2c0,0.2,0.1,0.4,0.2,0.5c0.1,0.1,0.3,0.1,0.4,0.1c0.2,0,0.3,0,0.4-0.1
			c0.1-0.1,0.2-0.3,0.2-0.5v-0.2c0-0.2-0.1-0.4-0.2-0.5l-0.1-0.1c0.1,0,0.1-0.1,0.1-0.1c0.1-0.1,0.2-0.3,0.2-0.5v-0.1
			c0-0.2-0.1-0.4-0.2-0.5C57.1,29.7,56.9,29.6,56.8,29.6z M57,31.7c0,0.1,0,0.2-0.1,0.2c0,0-0.1,0.1-0.2,0.1c-0.1,0-0.2,0-0.2-0.1
			s-0.1-0.1-0.1-0.2v-0.2c0-0.1,0-0.1,0-0.2c0,0,0-0.1,0.1-0.1c0,0,0.1-0.1,0.2-0.1c0.1,0.1,0.1,0.1,0.2,0.1l0.1,0.1
			c0,0,0,0.1,0,0.2V31.7z M57,30.3c0,0.1,0,0.2-0.1,0.3c0,0-0.1,0.1-0.2,0.1c-0.1,0-0.1-0.1-0.2-0.1c-0.1-0.1-0.1-0.2-0.1-0.3v-0.1
			c0-0.1,0-0.2,0.1-0.2c0-0.1,0.1-0.1,0.2-0.1c0.1,0,0.2,0,0.2,0.1C57,30.1,57,30.1,57,30.3L57,30.3z"/>
		<path fill="#FFFFFF" d="M58.8,29.6c-0.2,0-0.3,0.1-0.4,0.1c-0.1,0.1-0.2,0.3-0.2,0.5v0.4h0.3v-0.4c0-0.1,0-0.2,0.1-0.2
			c0,0,0.1-0.1,0.2-0.1c0.1,0,0.2,0,0.2,0.1c0,0,0.1,0.1,0.1,0.2v0.1c0,0.1,0,0.2-0.1,0.3c0,0.1-0.1,0.1-0.3,0.2
			c-0.1,0-0.1,0.1-0.2,0.1c-0.1,0-0.1,0.1-0.1,0.1c-0.1,0.1-0.2,0.3-0.2,0.5v0.7h1.2V32h-0.9v-0.4c0-0.1,0-0.2,0.1-0.3l0.1-0.1
			c0,0,0.1-0.1,0.2-0.1C59,31,59.1,31,59.1,31l0.1-0.1c0.1-0.1,0.2-0.3,0.2-0.5v-0.1c0-0.2-0.1-0.4-0.2-0.5
			C59.2,29.7,59,29.6,58.8,29.6z"/>
		<path fill="#FFFFFF" d="M54.2,17.9c0-4.1-2.9-7.4-6.8-8.2h-0.1c-0.1,0.2-0.2,0.6-0.2,0.6c3.7,0.6,6.5,3.8,6.5,7.6
			c0,4.3-3.5,7.7-7.7,7.7c-4.3,0-7.7-3.5-7.7-7.7c0-2.1,0.8-3.9,2.1-5.3c0-0.1,1.9-2,4.1-2.7c0,0-2,0.9-3.2,2.9
			c4.4,1.6,5.4-2.7,5.6-3.4C47.2,8.2,48.1,8,48.1,8s-7.5-2.8-8.2,4.1c-1.5,1.5-2.4,3.6-2.4,5.8c0,2.1,0.8,4,2,5.4l0,0l5.2,12.8
			c0.2,0.4,0.6,0.6,1.1,0.6s0.9-0.3,1.1-0.6l5.2-12.7v-0.1l0,0C53.4,21.9,54.2,20,54.2,17.9z M41.1,25.6l-0.5-1.3
			c0.3,0.2,0.5,0.4,0.8,0.6L41.1,25.6L41.1,25.6L41.1,25.6z M42,27.9L42,27.9l-0.7-1.6l0,0l0,0l0.5-1.1c0.4,0.2,0.7,0.4,1.1,0.5
			L42,27.9L42,27.9z M43,30.2L43,30.2l-0.7-1.6l1.1-2.8c0.4,0.1,0.8,0.2,1.2,0.3L43,30.2L43,30.2z M43.9,32.6L43.9,32.6L43.3,31l0,0
			v-0.1l2-4.8c0.2,0,0.4,0,0.6,0c0.2,0,0.5,0,0.7,0L43.9,32.6L43.9,32.6z M44.9,34.9L44.9,34.9L44.9,34.9l-0.7-1.6l3-7.2
			c0.5-0.1,1-0.2,1.5-0.4L44.9,34.9z M46.4,35.9c-0.1,0.2-0.3,0.3-0.5,0.3s-0.4-0.1-0.5-0.3l-0.1-0.3l4.2-10.2
			c0.6-0.3,1.2-0.7,1.8-1.1L46.4,35.9z"/>
		<path fill="#FFFFFF" d="M40.5,14.4c0.3,0.4,0.9,1,1.6,1.1c1.1,0.2,1.6-0.8,2.7-0.8c0,0-1.2-1.4-2.3-1.5c-0.9-0.1-1.7,0.4-2.1,0.7
			c0,0,1.7-0.6,3,0.3C43.4,14.2,41.8,13.7,40.5,14.4z"/>
		<polygon fill="#FFFFFF" points="32,19.9 31.4,20 31.6,20.9 30.6,21.1 30.5,20.5 29.9,20.6 30.1,21.3 29.2,21.4 29,20.5 28.4,20.6 
			28.7,22.1 32.3,21.4 		"/>
		<polygon fill="#FFFFFF" points="31.8,18.1 31.1,18.1 30.7,17.9 31.8,17.4 31.8,16.8 29.9,17.6 28.2,16.8 28.2,17.5 29.7,18.1 
			28.2,18.1 28.2,18.7 31.8,18.6 		"/>
		<path fill="#FFFFFF" d="M29.2,15.2l1.9,0.4c0.3,0.1,0.5,0,0.7-0.1c0.2-0.1,0.3-0.3,0.3-0.5s0-0.5-0.1-0.6
			c-0.1-0.2-0.3-0.3-0.6-0.4l-1.9-0.4c-0.3-0.1-0.5,0-0.7,0.1s-0.3,0.3-0.3,0.5s0,0.5,0.1,0.6C28.7,15.1,28.9,15.2,29.2,15.2z
			 M29.2,14.1c0.1,0,0.1-0.1,0.3,0l1.9,0.4c0.1,0,0.2,0.1,0.2,0.1s0,0.1,0,0.2c0,0.1-0.1,0.2-0.1,0.2c-0.1,0-0.1,0-0.3,0l-1.9-0.4
			c-0.1,0-0.2-0.1-0.2-0.1c0-0.1,0-0.1,0-0.2C29.1,14.2,29.1,14.2,29.2,14.1z"/>
		<polygon fill="#FFFFFF" points="32.3,12.2 29.5,11 29.3,11.5 32.6,12.9 33.2,11.5 32.7,11.3 		"/>
		<path fill="#FFFFFF" d="M31.5,9l1.6,1.1c0.2,0.2,0.5,0.2,0.7,0.2s0.4-0.2,0.5-0.4s0.2-0.4,0.2-0.6c0-0.2-0.2-0.4-0.4-0.6l-1.6-1.1
			c-0.2-0.2-0.5-0.2-0.7-0.2s-0.4,0.2-0.5,0.4C31.1,8,31,8.2,31,8.4C31.1,8.6,31.2,8.8,31.5,9z M31.7,8.1C31.8,8,31.8,8,31.9,8
			c0.1,0,0.2,0,0.3,0.1l1.6,1.1C33.9,9.3,34,9.3,34,9.4c0,0.1,0,0.1-0.1,0.2c-0.1,0.1-0.1,0.1-0.2,0.1c-0.1,0-0.2,0-0.3-0.1
			l-1.6-1.1c-0.1-0.1-0.2-0.1-0.2-0.2C31.6,8.2,31.6,8.2,31.7,8.1z"/>
		<path fill="#FFFFFF" d="M35.3,5.5l-0.6,0.6l0.4,0.4l0.2-0.2l0.5,0.5C35.9,6.9,35.9,7,35.9,7c0,0.1,0,0.1-0.1,0.2s-0.1,0.1-0.2,0.1
			c-0.1,0-0.1,0-0.2-0.1L34,5.8c-0.1-0.1-0.1-0.2-0.1-0.2c0-0.1,0-0.1,0.1-0.2s0.1-0.1,0.2-0.1c0.1,0,0.1,0,0.2,0.1l0.2,0.2L35,5.2
			L34.8,5c-0.2-0.2-0.4-0.3-0.7-0.3c-0.2,0-0.4,0.1-0.6,0.3c-0.2,0.2-0.3,0.4-0.3,0.6s0.1,0.5,0.3,0.7l1.3,1.4C35,7.9,35.2,8,35.5,8
			c0.2,0,0.4-0.1,0.6-0.3c0.2-0.2,0.3-0.4,0.3-0.6s-0.1-0.5-0.3-0.7L35.3,5.5z"/>
		
			<rect x="36.668" y="2.7" transform="matrix(0.828 -0.5608 0.5608 0.828 3.8364 21.5052)" fill="#FFFFFF" width="0.6" height="3.6"/>
		<path fill="#FFFFFF" d="M38.2,2.8c0.1,0.1,0.2,0.3,0.3,0.4c0.1,0.1,0.3,0.2,0.4,0.2c0.1,0,0.2,0,0.4,0.1c0.1,0,0.2,0,0.3,0
			c0.2,0.1,0.3,0.2,0.3,0.3L40,4c0.1,0.1,0.1,0.2,0,0.3c0,0.1-0.1,0.1-0.2,0.1c-0.1,0-0.2,0.1-0.2,0c-0.1,0-0.1-0.1-0.2-0.2
			l-0.2-0.4L38.7,4l0.2,0.4c0.1,0.3,0.3,0.4,0.5,0.5s0.4,0,0.6-0.1c0.2-0.1,0.4-0.3,0.5-0.4c0.1-0.2,0.1-0.5,0-0.7l-0.1-0.2
			C40.3,3.2,40,3,39.7,2.9c-0.1,0-0.2,0-0.4-0.1c-0.1,0-0.2,0-0.2,0c-0.2-0.1-0.3-0.1-0.3-0.3V2.4c-0.1-0.1-0.1-0.2,0-0.3
			C38.8,2,38.9,2,39,2c-0.1,0,0,0,0,0c0.1,0,0.1,0.1,0.2,0.2l0.1,0.3l0.5-0.2L39.7,2c-0.1-0.3-0.3-0.4-0.5-0.5s-0.4,0-0.6,0.1
			c-0.2,0.1-0.4,0.3-0.5,0.4C38,2.2,38,2.5,38.2,2.8L38.2,2.8z"/>
		<polygon fill="#FFFFFF" points="42.6,4 42.4,3.3 42.5,2.9 43.2,3.9 43.8,3.8 42.7,2.1 43,0.2 42.4,0.3 42.1,1.9 41.8,0.5 
			41.2,0.6 42,4.2 		"/>
		<polygon fill="#FFFFFF" points="45.3,0.6 45.4,3.7 46,3.6 45.9,0.6 46.5,0.6 46.5,0 44.7,0 44.8,0.6 		"/>
		<polygon fill="#FFFFFF" points="50.4,2.7 51,2.9 50.5,4.4 51,4.6 52.2,1.1 51.6,1 51.2,2.4 50.6,2.2 51.1,0.8 50.5,0.6 49.4,4.1 
			49.9,4.2 		"/>
		<path fill="#FFFFFF" d="M52.6,5.3L53,4.9l0.6,0.3l-0.2,0.6l0.5,0.3l1.2-3.5l-0.5-0.3l-2.5,2.8L52.6,5.3z M54.2,3.4l-0.5,1.2
			l-0.4-0.2L54.2,3.4z"/>
		<polygon fill="#FFFFFF" points="58.1,4.9 56.8,6.2 57.5,4.3 57.2,4.1 54.7,6.8 55.2,7.1 56.4,5.8 55.8,7.7 56,8 58.5,5.3 		"/>
		<polygon fill="#FFFFFF" points="60.3,8.4 60.8,8.1 59.7,6.7 59.3,7 59.6,7.5 57.1,9.3 57.5,9.7 60,7.9 		"/>
		<polygon fill="#FFFFFF" points="58.9,12.3 62.5,11.5 62.2,11 59.8,11.6 61.9,10.2 61.7,9.6 58.6,11.8 		"/>
		<polygon fill="#FFFFFF" points="59.8,15.5 60.4,15.4 60.2,14.5 61.1,14.3 61.3,14.9 61.8,14.8 61.7,14.2 62.6,14 62.8,14.9 
			63.4,14.8 63,13.3 59.5,14.1 		"/>
		<path fill="#FFFFFF" d="M59.9,17.3h1.5v0.3l-1.5,0.3v0.6l1.6-0.3c0,0,0,0.1,0.1,0.1c0.2,0.2,0.4,0.3,0.7,0.3h0.4
			c0.3,0,0.5-0.1,0.7-0.3c0.1-0.2,0.2-0.4,0.2-0.6v-0.9H60L59.9,17.3z M63,17.3v0.3c0,0.1,0,0.2-0.1,0.2c-0.1,0.1-0.1,0.1-0.3,0.1
			h-0.4c-0.1,0-0.2,0-0.3-0.1c0,0-0.1-0.1-0.1-0.2v-0.3H63z"/>
		<polygon fill="#FFFFFF" points="59.7,20.2 60.4,20.4 60.8,20.7 59.6,20.9 59.5,21.5 61.5,21.1 63,22.2 63.1,21.6 61.8,20.7 
			63.3,21 63.4,20.4 59.8,19.7 		"/>
	</g>
	<g>
		<path fill="#FFFFFF" d="M16.9,67c-0.4,0-0.7-0.1-1-0.3c-0.3-0.3-0.4-0.6-0.4-1.1v-3.4c0-0.5,0.1-0.8,0.4-1.1
			c0.3-0.2,0.6-0.3,1-0.3s0.7,0.1,1,0.3c0.3,0.3,0.4,0.6,0.4,1.1v0.6h-0.7v-0.6c0-0.2-0.1-0.4-0.2-0.5s-0.3-0.2-0.5-0.2
			s-0.4,0.1-0.5,0.2c-0.1,0.1-0.2,0.3-0.2,0.5v3.4c0,0.2,0.1,0.4,0.2,0.5s0.3,0.2,0.5,0.2s0.4-0.1,0.5-0.2s0.2-0.3,0.2-0.5v-1.3H17
			v-0.7h1.4v2.1c0,0.5-0.1,0.8-0.4,1.1C17.6,66.9,17.3,67,16.9,67z"/>
		<path fill="#FFFFFF" d="M21,67c-0.4,0-0.7-0.1-1-0.3c-0.3-0.3-0.4-0.6-0.4-1.1v-3.4c0-0.5,0.1-0.8,0.4-1.1c0.3-0.2,0.6-0.3,1-0.3
			s0.7,0.1,1,0.3c0.3,0.3,0.4,0.6,0.4,1.1v3.4c0,0.5-0.1,0.8-0.4,1.1C21.7,66.9,21.4,67,21,67z M21,61.5c-0.2,0-0.4,0.1-0.5,0.2
			c-0.1,0.1-0.2,0.3-0.2,0.5v3.4c0,0.2,0.1,0.4,0.2,0.5s0.3,0.2,0.5,0.2s0.4-0.1,0.5-0.2s0.2-0.3,0.2-0.5v-3.4
			c0-0.2-0.1-0.4-0.2-0.5C21.4,61.5,21.2,61.5,21,61.5z"/>
		<path fill="#FFFFFF" d="M26.3,60.8v0.7h-1V67h-0.7v-5.4h-1v-0.7h2.7V60.8z"/>
		<path fill="#FFFFFF" d="M27.4,67v-6.1h0.7v5.4h1.7V67H27.4z"/>
		<path fill="#FFFFFF" d="M32.9,67l-0.2-1.3h-1.3L31.2,67h-0.8l1.3-6.1h0.7l1.3,6.1H32.9z M31.7,59.8c-0.1-0.1-0.2-0.1-0.3-0.1
			c-0.1,0-0.2,0-0.3,0.1S31,60,31,60.1s0,0.2,0.1,0.3s0.2,0.1,0.3,0.1c0.1,0,0.2,0,0.3-0.1c0.1-0.1,0.1-0.2,0.1-0.3
			S31.8,59.9,31.7,59.8z M31.5,64.9h1L32,62.3L31.5,64.9z M33,59.8c-0.1-0.1-0.2-0.1-0.3-0.1s-0.2,0-0.3,0.1s-0.1,0.2-0.1,0.3
			s0,0.2,0.1,0.3s0.2,0.1,0.3,0.1s0.2,0,0.3-0.1s0.1-0.2,0.1-0.3S33,59.9,33,59.8z"/>
		<path fill="#FFFFFF" d="M35.6,63.3V67h-0.7v-6.1h0.4l1.7,3.7v-3.7h0.7V67h-0.4L35.6,63.3z"/>
		<path fill="#FFFFFF" d="M40.5,67h-1.4v-6.1h1.4c0.4,0,0.7,0.1,1,0.3c0.3,0.3,0.4,0.6,0.4,1.1v3.3c0,0.5-0.1,0.8-0.4,1.1
			C41.3,66.9,40.9,67,40.5,67z M39.9,66.2h0.6c0.2,0,0.4,0,0.5-0.1s0.2-0.3,0.2-0.5v-3.3c0-0.2-0.1-0.4-0.2-0.5s-0.3-0.2-0.5-0.2
			h-0.6V66.2z"/>
		<path fill="#FFFFFF" d="M44.6,67c-0.2,0-0.4,0-0.5-0.1c-0.2-0.1-0.3-0.1-0.4-0.3c-0.3-0.3-0.4-0.6-0.4-1.1v-0.8H44v0.8
			c0,0.2,0.1,0.4,0.2,0.5s0.3,0.2,0.5,0.2s0.4-0.1,0.5-0.2s0.2-0.3,0.2-0.5v-0.4c0-0.2,0-0.3-0.1-0.4S45,64.6,45,64.5
			c-0.1-0.1-0.1-0.1-0.2-0.2s-0.2-0.1-0.4-0.2s-0.3-0.2-0.5-0.3c-0.1-0.1-0.2-0.2-0.3-0.3c-0.3-0.3-0.4-0.7-0.4-1.2v-0.2
			c0-0.5,0.1-0.8,0.4-1.1c0.1-0.1,0.3-0.2,0.4-0.3c0.2-0.1,0.3-0.1,0.5-0.1c0.4,0,0.7,0.1,1,0.3c0.3,0.3,0.4,0.6,0.4,1.1v0.6h-0.7
			V62c0-0.2-0.1-0.4-0.2-0.5s-0.3-0.2-0.5-0.2s-0.4,0.1-0.5,0.2s-0.2,0.3-0.2,0.5v0.2c0,0.3,0.1,0.5,0.2,0.7
			c0.1,0.1,0.1,0.1,0.2,0.2s0.2,0.1,0.4,0.2c0.2,0.1,0.3,0.2,0.5,0.3s0.2,0.2,0.3,0.3c0.3,0.3,0.4,0.7,0.4,1.2v0.4
			c0,0.5-0.1,0.8-0.4,1.1C45.3,66.9,45,67,44.6,67z"/>
		<path fill="#FFFFFF" d="M48,65.5V67h-0.7v-6.1H48v3l1.4-3h0.8l-1.4,2.9l1.4,3.2h-0.8l-1-2.3L48,65.5z"/>
		<path fill="#FFFFFF" d="M54.8,67c-0.4,0-0.7-0.1-1-0.3c-0.3-0.3-0.4-0.6-0.4-1.1v-3.4c0-0.5,0.1-0.8,0.4-1.1
			c0.3-0.2,0.6-0.3,1-0.3s0.7,0.1,1,0.3c0.3,0.3,0.4,0.6,0.4,1.1v0.6h-0.7v-0.6c0-0.2-0.1-0.4-0.2-0.5s-0.3-0.2-0.5-0.2
			s-0.4,0.1-0.5,0.2s-0.2,0.3-0.2,0.5v3.4c0,0.2,0.1,0.4,0.2,0.5s0.3,0.2,0.5,0.2s0.4-0.1,0.5-0.2s0.2-0.3,0.2-0.5v-1.3h-0.6v-0.7
			h1.4v2.1c0,0.5-0.1,0.8-0.4,1.1C55.5,66.9,55.2,67,54.8,67z"/>
		<path fill="#FFFFFF" d="M58.9,67c-0.4,0-0.7-0.1-1-0.3c-0.3-0.3-0.4-0.6-0.4-1.1v-3.4c0-0.5,0.1-0.8,0.4-1.1
			c0.3-0.2,0.6-0.3,1-0.3s0.7,0.1,1,0.3c0.3,0.3,0.4,0.6,0.4,1.1v3.4c0,0.5-0.1,0.8-0.4,1.1C59.6,66.9,59.3,67,58.9,67z M58.9,61.5
			c-0.2,0-0.4,0.1-0.5,0.2s-0.2,0.3-0.2,0.5v3.4c0,0.2,0.1,0.4,0.2,0.5s0.3,0.2,0.5,0.2s0.4-0.1,0.5-0.2s0.2-0.3,0.2-0.5v-3.4
			c0-0.2-0.1-0.4-0.2-0.5S59.1,61.5,58.9,61.5z"/>
		<path fill="#FFFFFF" d="M63,67h-1.4v-6.1H63c0.4,0,0.7,0.1,1,0.3c0.3,0.3,0.4,0.6,0.4,1.1v3.3c0,0.5-0.1,0.8-0.4,1.1
			C63.7,66.9,63.4,67,63,67z M62.4,66.2H63c0.2,0,0.4,0,0.5-0.1s0.2-0.3,0.2-0.5v-3.3c0-0.2-0.1-0.4-0.2-0.5s-0.3-0.2-0.5-0.2h-0.6
			V66.2z"/>
		<path fill="#FFFFFF" d="M67.8,60.8h0.7V67h-0.7v-2.8h-1.3V67h-0.7v-6.1h0.7v2.6h1.3V60.8z"/>
		<path fill="#FFFFFF" d="M72.4,61.6h-1.7v1.9h1.2v0.7h-1.2v2h1.7V67H70v-6.1h2.4V61.6z"/>
		<path fill="#FFFFFF" d="M76.3,60.8v0.7h-1V67h-0.7v-5.4h-1v-0.7h2.7V60.8z"/>
	</g>
</g>
</svg>
