<svg width="194" height="147" viewBox="0 0 194 147" fill="none" xmlns="http://www.w3.org/2000/svg">
<g clip-path="url(#clip0_3_10)">
<path d="M10.3174 103.745C10.0146 103.745 9.72417 103.624 9.51007 103.41C9.29596 103.195 9.17568 102.905 9.17568 102.601V100.018C9.17565 99.8693 9.20532 99.7216 9.26295 99.584C9.32058 99.4465 9.40501 99.3218 9.51131 99.2174C9.61761 99.1129 9.74365 99.0307 9.88205 98.9755C10.0204 98.9204 10.1684 98.8935 10.3174 98.8963H17.104C17.2529 98.8935 17.4009 98.9204 17.5393 98.9755C17.6777 99.0307 17.8037 99.1129 17.91 99.2174C18.0163 99.3218 18.1007 99.4465 18.1584 99.584C18.216 99.7216 18.2457 99.8693 18.2456 100.018V107.238C18.2582 108.476 18.019 109.704 17.5425 110.847C17.0661 111.99 16.3624 113.023 15.4744 113.885C14.5863 114.746 13.5324 115.418 12.3768 115.859C11.2213 116.299 9.98826 116.5 8.75283 116.448C6.35633 116.328 4.10126 115.276 2.46683 113.516C0.832403 111.757 -0.0525577 109.429 1.56974e-06 107.026V95.5934C-0.00556756 94.372 0.229846 93.1616 0.692722 92.0316C1.1556 90.9016 1.83682 89.8742 2.69727 89.0086C3.55772 88.143 4.58044 87.4561 5.70671 86.9875C6.83298 86.5188 8.04061 86.2775 9.26025 86.2775C11.0978 86.2796 12.8911 86.8418 14.4018 87.8894C15.9124 88.9371 17.0688 90.4205 17.7171 92.1423C17.7718 92.2964 17.793 92.4604 17.779 92.6233C17.765 92.7863 17.7163 92.9443 17.6362 93.0868C17.556 93.2293 17.4463 93.3529 17.3143 93.4493C17.1824 93.5457 17.0314 93.6126 16.8714 93.6455L14.2921 94.2383C14.0322 94.2894 13.7627 94.25 13.5282 94.1268C13.2937 94.0036 13.1082 93.8039 13.0024 93.5608C12.5521 92.6922 11.8153 92.0066 10.9172 91.6206C10.0191 91.2346 9.01522 91.172 8.07629 91.4436C7.16167 91.6997 6.35979 92.2567 5.79983 93.0249C5.23987 93.7931 4.95445 94.7277 4.98954 95.6781V107.408C4.98687 107.999 5.10802 108.585 5.34518 109.127C5.58234 109.669 5.93025 110.155 6.36648 110.554C6.80272 110.952 7.31759 111.255 7.87791 111.443C8.43823 111.63 9.03156 111.698 9.61966 111.642C10.6739 111.547 11.6541 111.059 12.3665 110.275C13.0789 109.491 13.4718 108.468 13.4675 107.408V105.29C13.5411 105.102 13.5637 104.898 13.5329 104.699C13.5022 104.499 13.4193 104.311 13.2925 104.154C13.1658 103.997 12.9998 103.877 12.8115 103.805C12.6231 103.733 12.4191 103.712 12.2201 103.745H10.3174Z" fill="white"/>
<path d="M35.413 107.196V87.3785C35.413 87.0753 35.5333 86.7845 35.7474 86.5701C35.9615 86.3557 36.2519 86.2352 36.5547 86.2352H39.134C39.4332 86.2407 39.7181 86.3636 39.9277 86.5775C40.1372 86.7913 40.2546 87.0789 40.2546 87.3785V107.196C40.2527 108.423 40.0035 109.638 39.522 110.767C39.0405 111.895 38.3365 112.915 37.4522 113.765C36.568 114.615 35.5215 115.278 34.3756 115.713C33.2296 116.149 32.0077 116.348 30.7829 116.3C28.405 116.18 26.1657 115.143 24.5341 113.406C22.9025 111.67 22.0052 109.368 22.0301 106.984V87.3785C22.03 87.0789 22.1474 86.7913 22.357 86.5775C22.5665 86.3636 22.8515 86.2407 23.1506 86.2352H25.7299C26.0327 86.2352 26.3231 86.3557 26.5372 86.5701C26.7513 86.7845 26.8716 87.0753 26.8716 87.3785V107.069C26.8668 108.126 27.2568 109.146 27.9648 109.929C28.6729 110.713 29.6479 111.203 30.6983 111.303C31.2864 111.36 31.8798 111.292 32.4401 111.104C33.0004 110.917 33.5153 110.614 33.9515 110.215C34.3877 109.816 34.7357 109.33 34.9728 108.788C35.21 108.246 35.3311 107.66 35.3285 107.069L35.413 107.196Z" fill="white"/>
<path d="M44.3984 91.3801C44.0993 91.3746 43.8143 91.2516 43.6048 91.0378C43.3952 90.824 43.2778 90.5364 43.2779 90.2368V87.6749C43.2778 87.3753 43.3952 87.0877 43.6048 86.8739C43.8143 86.6601 44.0993 86.5372 44.3984 86.5316H58.2677C58.5704 86.5316 58.8608 86.6521 59.0749 86.8665C59.289 87.0809 59.4093 87.3717 59.4093 87.6749V90.2368C59.4093 90.54 59.289 90.8308 59.0749 91.0452C58.8608 91.2596 58.5704 91.3801 58.2677 91.3801H54.9695C54.6667 91.3801 54.3763 91.5006 54.1622 91.715C53.9481 91.9294 53.8278 92.2202 53.8278 92.5234V115.39C53.8223 115.689 53.6995 115.975 53.486 116.184C53.2725 116.394 52.9853 116.512 52.6861 116.512H50.1068C49.9597 116.512 49.8139 116.483 49.678 116.426C49.542 116.37 49.4185 116.287 49.3145 116.183C49.2104 116.079 49.1279 115.955 49.0716 115.819C49.0153 115.683 48.9863 115.537 48.9863 115.39V92.5234C48.9863 92.2202 48.866 91.9294 48.6519 91.715C48.4378 91.5006 48.1474 91.3801 47.8446 91.3801H44.3984Z" fill="white"/>
<path d="M63.8492 116.723C63.55 116.723 63.2628 116.606 63.0493 116.396C62.8358 116.186 62.713 115.901 62.7075 115.601V87.7808C62.713 87.4812 62.8358 87.1958 63.0493 86.986C63.2628 86.7761 63.55 86.6586 63.8492 86.6586H77.8241C78.1233 86.6586 78.4105 86.7761 78.624 86.986C78.8375 87.1958 78.9602 87.4812 78.9658 87.7808V90.3638C78.9658 90.667 78.8455 90.9578 78.6314 91.1722C78.4173 91.3867 78.1269 91.5071 77.8241 91.5071H68.733C68.4302 91.5071 68.1398 91.6276 67.9257 91.842C67.7116 92.0564 67.5913 92.3472 67.5913 92.6504V98.007C67.5913 98.1562 67.621 98.3039 67.6786 98.4414C67.7362 98.579 67.8207 98.7036 67.927 98.8081C68.0333 98.9126 68.1593 98.9948 68.2977 99.0499C68.4361 99.105 68.5841 99.132 68.733 99.1292H73.8705C74.1733 99.1292 74.4637 99.2496 74.6778 99.464C74.8919 99.6785 75.0122 99.9693 75.0122 100.272V102.856C75.0122 103.159 74.8919 103.45 74.6778 103.664C74.4637 103.878 74.1733 103.999 73.8705 103.999H68.733C68.4338 103.999 68.1466 104.116 67.9331 104.326C67.7196 104.536 67.5969 104.821 67.5913 105.121V110.562C67.5913 110.866 67.7116 111.156 67.9257 111.371C68.1398 111.585 68.4302 111.706 68.733 111.706H77.8241C78.1269 111.706 78.4173 111.826 78.6314 112.04C78.8455 112.255 78.9658 112.546 78.9658 112.849V115.432C78.9602 115.731 78.8375 116.017 78.624 116.227C78.4105 116.437 78.1233 116.554 77.8241 116.554H63.8492V116.723Z" fill="white"/>
<path d="M102.116 103.11C101.814 103.11 101.523 102.989 101.309 102.775C101.095 102.56 100.975 102.27 100.975 101.966V99.3833C100.98 99.0837 101.103 98.7983 101.316 98.5885C101.53 98.3786 101.817 98.2611 102.116 98.2611H108.903C109.202 98.2611 109.489 98.3786 109.703 98.5885C109.916 98.7983 110.039 99.0837 110.045 99.3833V106.603C110.04 107.832 109.788 109.048 109.305 110.178C108.821 111.308 108.115 112.329 107.23 113.181C106.344 114.032 105.296 114.696 104.149 115.134C103.002 115.572 101.779 115.774 100.552 115.728C98.1721 115.603 95.9327 114.561 94.3017 112.821C92.6706 111.082 91.7739 108.778 91.799 106.391V94.9582C91.7935 93.7369 92.0289 92.5264 92.4918 91.3964C92.9546 90.2664 93.6359 89.2391 94.4963 88.3735C95.3568 87.5079 96.3795 86.821 97.5058 86.3523C98.632 85.8836 99.8397 85.6424 101.059 85.6424C102.896 85.6474 104.688 86.2108 106.198 87.2581C107.708 88.3053 108.865 89.787 109.516 91.5072C109.571 91.6626 109.592 91.8279 109.578 91.9922C109.564 92.1565 109.516 92.3159 109.436 92.46C109.356 92.6041 109.247 92.7296 109.115 92.8281C108.983 92.9267 108.831 92.996 108.67 93.0316L106.091 93.6244C105.831 93.6754 105.562 93.6361 105.327 93.5129C105.093 93.3897 104.907 93.19 104.801 92.9469C104.371 92.0506 103.64 91.3345 102.735 90.9242C101.831 90.5138 100.811 90.4354 99.8542 90.7026C98.9435 90.9627 98.1464 91.5214 97.5905 92.2892C97.0347 93.057 96.7523 93.9894 96.7886 94.9371V106.667C96.7859 107.258 96.9071 107.844 97.1442 108.386C97.3814 108.928 97.7293 109.414 98.1655 109.813C98.6018 110.211 99.1166 110.514 99.677 110.702C100.237 110.889 100.831 110.957 101.419 110.901C102.488 110.799 103.478 110.294 104.189 109.488C104.899 108.682 105.277 107.636 105.245 106.561V104.443C105.248 104.294 105.221 104.146 105.166 104.008C105.111 103.869 105.029 103.743 104.925 103.636C104.82 103.53 104.696 103.445 104.559 103.388C104.421 103.33 104.274 103.3 104.125 103.3H102.222L102.116 103.11Z" fill="white"/>
<path d="M127.508 115.94H115.711C115.408 115.94 115.118 115.82 114.903 115.605C114.689 115.391 114.569 115.1 114.569 114.797V87.0398C114.569 86.7365 114.689 86.4457 114.903 86.2313C115.118 86.0169 115.408 85.8965 115.711 85.8965H118.396C118.545 85.8964 118.692 85.9261 118.83 85.9839C118.967 86.0416 119.091 86.1261 119.196 86.2326C119.3 86.339 119.382 86.4652 119.437 86.6038C119.492 86.7424 119.519 86.8906 119.516 87.0398V109.906C119.522 110.206 119.645 110.491 119.858 110.701C120.072 110.911 120.359 111.028 120.658 111.028H127.571C127.874 111.028 128.165 111.149 128.379 111.363C128.593 111.577 128.713 111.868 128.713 112.171V114.754C128.713 115.058 128.593 115.348 128.379 115.563C128.165 115.777 127.874 115.898 127.571 115.898L127.508 115.94Z" fill="white"/>
<path d="M134.527 115.94H131.842C131.658 115.944 131.475 115.903 131.31 115.82C131.144 115.738 131.002 115.616 130.894 115.466C130.785 115.317 130.715 115.143 130.689 114.96C130.663 114.777 130.681 114.59 130.743 114.416L139.538 86.6586C139.626 86.4258 139.782 86.2248 139.986 86.0815C140.189 85.9381 140.431 85.8589 140.68 85.8541H142.54C142.789 85.8589 143.03 85.9381 143.234 86.0815C143.437 86.2248 143.593 86.4258 143.682 86.6586L152.223 114.331C152.284 114.502 152.302 114.685 152.278 114.864C152.254 115.044 152.188 115.215 152.085 115.364C151.981 115.513 151.844 115.635 151.684 115.721C151.525 115.806 151.347 115.852 151.166 115.855H148.566C148.317 115.851 148.075 115.771 147.872 115.628C147.668 115.485 147.512 115.284 147.424 115.051L146.24 111.325C146.151 111.092 145.995 110.891 145.792 110.747C145.589 110.604 145.347 110.525 145.098 110.52H137.995C137.746 110.525 137.504 110.604 137.301 110.747C137.097 110.891 136.941 111.092 136.853 111.325L135.669 115.051C135.594 115.299 135.445 115.519 135.24 115.678C135.035 115.837 134.786 115.929 134.527 115.94ZM141.102 97.9224L138.84 105.079C138.821 105.146 138.817 105.217 138.829 105.286C138.841 105.355 138.868 105.42 138.909 105.477C138.95 105.534 139.003 105.581 139.064 105.615C139.125 105.648 139.193 105.668 139.263 105.671H143.766C143.836 105.668 143.904 105.648 143.966 105.615C144.027 105.581 144.08 105.534 144.12 105.477C144.161 105.42 144.188 105.355 144.2 105.286C144.212 105.217 144.208 105.146 144.189 105.079L141.948 97.9224C141.919 97.8326 141.863 97.7543 141.787 97.6988C141.711 97.6433 141.619 97.6133 141.525 97.6133C141.431 97.6133 141.34 97.6433 141.264 97.6988C141.188 97.7543 141.131 97.8326 141.102 97.9224Z" fill="white"/>
<path d="M167.763 99.5103C169.353 100.12 170.722 101.196 171.691 102.597C172.661 103.999 173.185 105.66 173.196 107.365V107.492C173.196 109.738 172.305 111.892 170.719 113.481C169.133 115.069 166.982 115.961 164.739 115.961H163.407C161.672 115.971 159.977 115.434 158.562 114.428C157.147 113.421 156.084 111.995 155.521 110.351C155.463 110.192 155.44 110.023 155.455 109.855C155.47 109.687 155.521 109.524 155.606 109.379C155.691 109.233 155.807 109.108 155.946 109.012C156.085 108.917 156.243 108.853 156.409 108.826L158.968 108.36C159.213 108.318 159.466 108.357 159.687 108.471C159.909 108.586 160.087 108.77 160.194 108.996C160.458 109.62 160.899 110.153 161.463 110.53C162.026 110.906 162.688 111.109 163.365 111.113H164.697C165.157 111.116 165.613 111.027 166.038 110.853C166.464 110.679 166.851 110.422 167.177 110.097C167.504 109.772 167.762 109.386 167.939 108.961C168.116 108.536 168.207 108.08 168.207 107.619V107.492C168.214 106.781 168.002 106.085 167.602 105.498C167.201 104.912 166.63 104.462 165.966 104.211L160.447 102.093C158.701 101.403 157.234 100.15 156.277 98.5324C155.32 96.9147 154.928 95.0241 155.162 93.1586C155.444 91.1198 156.459 89.2539 158.015 87.9096C159.572 86.5652 161.564 85.8345 163.619 85.8541H164.908C166.673 85.8643 168.39 86.427 169.82 87.4635C171.249 88.5 172.319 89.9583 172.879 91.6341C172.93 91.7956 172.945 91.966 172.925 92.134C172.904 92.302 172.848 92.4637 172.76 92.6081C172.672 92.7525 172.554 92.8763 172.414 92.9713C172.274 93.0662 172.115 93.1301 171.949 93.1586L169.348 93.5397C169.103 93.5824 168.85 93.5434 168.628 93.4287C168.407 93.314 168.229 93.1299 168.122 92.9045C167.841 92.2749 167.384 91.7401 166.806 91.3644C166.229 90.9888 165.555 90.7884 164.866 90.7873H163.429C162.942 90.7879 162.462 90.8904 162.017 91.088C161.573 91.2857 161.175 91.5742 160.848 91.935C160.522 92.2959 160.274 92.7211 160.121 93.1834C159.969 93.6457 159.914 94.1348 159.961 94.6195C160.03 95.2829 160.285 95.9133 160.697 96.4378C161.108 96.9623 161.659 97.3595 162.287 97.5836L167.678 99.7008L167.763 99.5103Z" fill="white"/>
<path d="M188.545 99.5103C190.139 100.116 191.513 101.191 192.486 102.592C193.46 103.994 193.987 105.658 194 107.365V107.492C194 109.738 193.109 111.892 191.523 113.481C189.937 115.069 187.786 115.961 185.543 115.961H184.19C182.457 115.969 180.766 115.432 179.355 114.425C177.943 113.419 176.884 111.993 176.325 110.351C176.267 110.192 176.244 110.023 176.259 109.855C176.274 109.687 176.325 109.524 176.41 109.379C176.495 109.233 176.611 109.108 176.75 109.012C176.889 108.917 177.047 108.853 177.213 108.826L179.771 108.36C180.017 108.318 180.27 108.357 180.491 108.471C180.713 108.586 180.89 108.77 180.998 108.996C181.258 109.618 181.696 110.151 182.256 110.527C182.816 110.904 183.473 111.107 184.148 111.113H185.501C185.96 111.116 186.415 111.027 186.839 110.853C187.264 110.678 187.649 110.421 187.974 110.096C188.298 109.771 188.555 109.385 188.729 108.96C188.904 108.534 188.992 108.079 188.989 107.619V107.492C189.009 106.795 188.818 106.109 188.44 105.523C188.063 104.937 187.517 104.48 186.875 104.211L181.357 102.093C179.591 101.421 178.1 100.176 177.123 98.5567C176.146 96.9373 175.739 95.0369 175.966 93.1586C176.248 91.1198 177.263 89.2539 178.819 87.9096C180.375 86.5652 182.367 85.8345 184.423 85.8541H185.564C187.329 85.8643 189.046 86.427 190.476 87.4635C191.905 88.5 192.975 89.9583 193.535 91.6341C193.586 91.7956 193.601 91.966 193.581 92.134C193.56 92.302 193.504 92.4637 193.416 92.6081C193.328 92.7525 193.21 92.8763 193.07 92.9713C192.93 93.0662 192.771 93.1301 192.605 93.1586L189.983 93.5397C189.737 93.5824 189.485 93.5434 189.263 93.4287C189.042 93.314 188.864 93.1299 188.757 92.9045C188.481 92.2749 188.029 91.7394 187.454 91.3634C186.88 90.9873 186.208 90.7871 185.522 90.7873H184.169C183.684 90.7908 183.206 90.8955 182.764 91.0944C182.322 91.2934 181.927 91.5823 181.603 91.9428C181.278 92.3033 181.033 92.7275 180.881 93.1884C180.73 93.6492 180.676 94.1366 180.723 94.6195C180.792 95.2797 181.045 95.9072 181.452 96.431C181.86 96.9549 182.405 97.3541 183.027 97.5836L188.418 99.7008L188.545 99.5103Z" fill="white"/>
<path d="M64.1874 63.1361C64.0197 63.1055 63.8478 63.1055 63.68 63.1361C63.5355 63.18 63.4045 63.2602 63.2995 63.369C63.1657 63.5012 63.0609 63.6598 62.9918 63.8348C62.9226 64.0097 62.8906 64.1972 62.8978 64.3853V64.5335C62.8797 64.9293 63.0162 65.3165 63.2783 65.6133L63.5955 65.8885L64.0183 66.1426L64.3566 66.3543C64.4452 66.3942 64.5191 66.4608 64.568 66.5449C64.6361 66.6132 64.6932 66.6918 64.7371 66.7778C64.7499 66.9045 64.7499 67.0321 64.7371 67.1589V67.54C64.7529 67.7121 64.708 67.8844 64.6103 68.0269C64.5488 68.086 64.4756 68.1315 64.3955 68.1607C64.3155 68.1899 64.2302 68.202 64.1452 68.1963C64.0632 68.2031 63.9808 68.1914 63.9039 68.1621C63.8271 68.1328 63.7578 68.0866 63.7012 68.0269C63.6443 67.9604 63.6018 67.8827 63.5763 67.7989C63.5509 67.7151 63.543 67.627 63.5532 67.54V66.7778H62.8555V67.54C62.8456 67.7283 62.8764 67.9166 62.9457 68.092C63.015 68.2673 63.1213 68.4257 63.2572 68.5562C63.3667 68.6645 63.4959 68.7507 63.6377 68.8103C63.8063 68.8307 63.9766 68.8307 64.1452 68.8103C64.4778 68.8259 64.8035 68.7121 65.0543 68.4927C65.1864 68.3603 65.2887 68.2011 65.3543 68.0258C65.42 67.8505 65.4474 67.6632 65.4348 67.4764V67.0953C65.4529 66.6996 65.3164 66.3123 65.0543 66.0155C64.9569 65.9064 64.8427 65.8134 64.716 65.7403L64.3566 65.6344L64.0183 65.4227C63.9297 65.3829 63.8558 65.3162 63.8069 65.2322C63.731 65.1502 63.673 65.0532 63.6366 64.9475C63.6002 64.8418 63.5862 64.7296 63.5955 64.6182V64.47C63.5797 64.2945 63.6328 64.1199 63.7435 63.983C63.8011 63.9258 63.8712 63.8827 63.9482 63.857C64.0252 63.8313 64.107 63.8237 64.1874 63.8348C64.271 63.8263 64.3554 63.835 64.4354 63.8605C64.5154 63.886 64.5893 63.9277 64.6526 63.983C64.7472 64.1269 64.7918 64.2981 64.7794 64.47V64.9993H65.5405V64.47C65.5518 64.2833 65.5237 64.0964 65.4581 63.9213C65.3926 63.7462 65.291 63.5869 65.16 63.4537C65.0281 63.3371 64.8738 63.2488 64.7065 63.1942C64.5392 63.1396 64.3626 63.1198 64.1874 63.1361Z" fill="white"/>
<path d="M66.7456 68.895H68.9867V68.1963H67.4433V66.3332H68.5216V65.6345H67.4433V63.8983H68.9867V63.1996H66.7456V68.895Z" fill="white"/>
<path d="M71.5872 63.1996H70.2975V68.895H71.5872C71.909 68.9051 72.2238 68.8 72.4752 68.5986C72.6111 68.4681 72.7173 68.3097 72.7867 68.1343C72.856 67.9589 72.8867 67.7707 72.8769 67.5823V64.5547C72.8844 64.3634 72.8527 64.1726 72.7836 63.9942C72.7145 63.8157 72.6095 63.6534 72.4752 63.5172C72.2309 63.301 71.9129 63.1873 71.5872 63.1996ZM72.1792 67.5823C72.1857 67.674 72.1742 67.7661 72.1452 67.8533C72.1161 67.9405 72.0702 68.0211 72.01 68.0905C71.8834 68.1687 71.7357 68.2057 71.5872 68.1963H70.9952V63.9618H71.5872C71.6676 63.9508 71.7495 63.9584 71.8265 63.9841C71.9035 64.0098 71.9735 64.0529 72.0312 64.1101C72.1451 64.2534 72.1983 64.4359 72.1792 64.6182V67.5823Z" fill="white"/>
<path d="M75.1391 63.1996L73.9974 68.895H74.7162L74.9276 67.7094H76.1116L76.3442 68.895H77.0419L75.8579 63.1996H75.1391ZM74.9911 67.0318L75.4562 64.5759L75.9213 67.0318H74.9911Z" fill="white"/>
<path d="M80.1286 66.6507L78.5429 63.1996H78.1624V68.895H78.8601V65.4651L80.4457 68.895H80.8263V63.1996H80.1286V66.6507Z" fill="white"/>
<path d="M110.912 63.6654V64.5335L111.821 63.856V68.4504H112.497V62.7762H112.117L110.912 63.6654Z" fill="white"/>
<path d="M115.647 62.6915C115.486 62.6819 115.324 62.7051 115.171 62.7597C115.018 62.8143 114.878 62.8991 114.759 63.0091C114.622 63.1428 114.515 63.3048 114.445 63.4838C114.376 63.6629 114.346 63.8548 114.358 64.0465V64.7452C114.343 64.934 114.372 65.1236 114.442 65.2997C114.511 65.4757 114.62 65.6337 114.759 65.7615C114.878 65.8715 115.018 65.9563 115.171 66.0109C115.324 66.0654 115.486 66.0886 115.647 66.0791C115.85 66.0873 116.052 66.0512 116.239 65.9732V67.2012C116.255 67.3766 116.202 67.5513 116.091 67.6882C116.032 67.7429 115.962 67.7844 115.885 67.8099C115.809 67.8355 115.728 67.8445 115.647 67.8364C115.564 67.8449 115.479 67.8361 115.399 67.8106C115.319 67.7851 115.245 67.7435 115.182 67.6882C115.088 67.5442 115.043 67.3731 115.055 67.2012V66.7354H114.358V67.2012C114.343 67.39 114.372 67.5796 114.442 67.7557C114.511 67.9317 114.62 68.0897 114.759 68.2175C114.878 68.3275 115.018 68.4123 115.171 68.4669C115.324 68.5214 115.486 68.5446 115.647 68.5351C115.809 68.5434 115.971 68.5197 116.123 68.4652C116.275 68.4107 116.416 68.3265 116.535 68.2175C116.675 68.0897 116.783 67.9317 116.853 67.7557C116.923 67.5796 116.951 67.39 116.937 67.2012V64.0465C116.949 63.8548 116.919 63.6629 116.849 63.4838C116.78 63.3048 116.673 63.1428 116.535 63.0091C116.416 62.9001 116.275 62.8159 116.123 62.7614C115.971 62.7069 115.809 62.6831 115.647 62.6915ZM116.239 64.8087C116.251 64.8958 116.244 64.9843 116.218 65.0683C116.193 65.1523 116.149 65.2298 116.091 65.2957C116.034 65.3542 115.964 65.3996 115.888 65.4288C115.811 65.4581 115.729 65.4704 115.647 65.4651C115.562 65.4708 115.477 65.4586 115.397 65.4295C115.317 65.4003 115.244 65.3547 115.182 65.2957C115.081 65.1548 115.036 64.9812 115.055 64.8087V64.11C115.036 63.9376 115.081 63.764 115.182 63.6231C115.241 63.5604 115.314 63.5124 115.395 63.483C115.475 63.4536 115.562 63.4435 115.647 63.4537C115.73 63.4435 115.813 63.4536 115.89 63.4831C115.968 63.5127 116.037 63.5607 116.091 63.6231C116.149 63.6889 116.193 63.7665 116.218 63.8505C116.244 63.9345 116.251 64.023 116.239 64.11V64.8087Z" fill="white"/>
<path d="M120.024 62.6915C119.691 62.6758 119.365 62.7896 119.115 63.0091C118.984 63.147 118.883 63.3101 118.818 63.4885C118.752 63.6669 118.724 63.8568 118.734 64.0465V64.1947C118.724 64.5892 118.86 64.9735 119.115 65.2745C119.19 65.3554 119.275 65.4265 119.368 65.4862C119.273 65.5596 119.188 65.645 119.115 65.7403C118.853 66.037 118.716 66.4243 118.734 66.8201V67.2012C118.722 67.388 118.749 67.5753 118.815 67.7506C118.88 67.9259 118.983 68.0851 119.115 68.2175C119.365 68.4369 119.691 68.5507 120.024 68.5351C120.35 68.5474 120.667 68.4337 120.912 68.2175C121.044 68.0851 121.146 67.9259 121.212 67.7506C121.277 67.5753 121.305 67.388 121.292 67.2012V66.8201C121.31 66.4243 121.174 66.037 120.912 65.7403L120.658 65.4862C120.751 65.4265 120.836 65.3554 120.912 65.2745C121.174 64.9778 121.31 64.5905 121.292 64.1947V64.0465C121.303 63.8568 121.274 63.6669 121.209 63.4885C121.143 63.3101 121.042 63.147 120.912 63.0091C120.667 62.7929 120.35 62.6792 120.024 62.6915ZM120.616 67.2012C120.65 67.3915 120.612 67.5875 120.51 67.7517C120.45 67.8053 120.38 67.8461 120.303 67.8716C120.227 67.8971 120.146 67.9067 120.066 67.8999C119.983 67.9084 119.898 67.8996 119.818 67.8741C119.738 67.8486 119.664 67.807 119.601 67.7517C119.499 67.6104 119.447 67.439 119.453 67.2647V66.8836C119.429 66.7577 119.429 66.6284 119.453 66.5025C119.485 66.4088 119.535 66.3224 119.601 66.2485C119.715 66.1248 119.851 66.0242 120.003 65.952L120.383 66.2485C120.442 66.3274 120.491 66.4126 120.531 66.5025C120.555 66.6284 120.555 66.7577 120.531 66.8836L120.616 67.2012ZM120.616 64.1947C120.621 64.4182 120.546 64.6361 120.404 64.8087L120.024 65.1051C119.877 65.0258 119.741 64.926 119.622 64.8087C119.547 64.726 119.49 64.6289 119.454 64.5234C119.417 64.4179 119.403 64.3061 119.411 64.1947V64.0465C119.397 63.8713 119.45 63.6975 119.559 63.5596C119.618 63.4969 119.69 63.4489 119.771 63.4195C119.852 63.3901 119.938 63.38 120.024 63.3902C120.109 63.3693 120.198 63.3699 120.283 63.3921C120.368 63.4143 120.446 63.4573 120.51 63.5172C120.619 63.6551 120.672 63.829 120.658 64.0042L120.616 64.1947Z" fill="white"/>
<path d="M124.4 62.6915C124.238 62.682 124.076 62.7052 123.924 62.7597C123.771 62.8143 123.631 62.8991 123.512 63.0091C123.373 63.1369 123.264 63.2948 123.194 63.4709C123.125 63.647 123.096 63.8366 123.111 64.0254V64.8299H123.808V64.0254C123.792 63.85 123.846 63.6753 123.956 63.5384C124.084 63.4422 124.24 63.3902 124.4 63.3902C124.56 63.3902 124.716 63.4422 124.844 63.5384C124.955 63.6753 125.008 63.85 124.992 64.0254V64.3006C125.003 64.5313 124.927 64.7576 124.781 64.9358C124.617 65.0884 124.431 65.2168 124.231 65.3169L123.808 65.571C123.693 65.6511 123.587 65.7434 123.491 65.8462C123.236 66.1472 123.101 66.5315 123.111 66.926V68.4504H125.69V67.7517H123.808V66.9048C123.797 66.684 123.864 66.4664 123.998 66.2908L124.231 66.1003L124.569 65.9097L125.013 65.6345C125.123 65.5551 125.222 65.4626 125.309 65.3592C125.564 65.0582 125.699 64.6739 125.69 64.2794V64.0042C125.704 63.8154 125.675 63.6258 125.606 63.4497C125.536 63.2737 125.428 63.1158 125.288 62.9879C125.167 62.8817 125.027 62.8008 124.874 62.7499C124.722 62.699 124.56 62.6791 124.4 62.6915Z" fill="white"/>
<path d="M114.548 37.8563C114.548 33.7558 113.121 29.7836 110.512 26.6228C107.904 23.462 104.277 21.3101 100.256 20.5373H100.044C99.8481 20.9126 99.699 21.3108 99.6005 21.7229C103.214 22.3108 106.527 24.0937 109.011 26.7873C111.495 29.4809 113.006 32.9299 113.304 36.5842C113.602 40.2384 112.669 43.8873 110.655 46.9486C108.64 50.0099 105.66 52.3074 102.189 53.4744C98.7181 54.6414 94.9571 54.6108 91.5058 53.3873C88.0545 52.1639 85.1118 49.8182 83.1472 46.7244C81.1825 43.6306 80.3092 39.967 80.6664 36.3181C81.0236 32.6693 82.5909 29.2453 85.1181 26.5926C87.5649 24.0468 90.5581 22.0919 93.871 20.876C91.07 22.2796 88.7132 24.4346 87.0632 27.1007C96.3235 30.4883 98.4165 21.3206 98.8817 19.7962C99.0464 19.0852 99.3919 18.4289 99.8845 17.891C100.377 17.3531 101 16.9519 101.694 16.7262C101.694 16.7262 85.7735 10.8191 84.3993 25.5128C81.2953 28.6632 79.4927 32.8706 79.3516 37.2941C79.2105 41.7177 80.7413 46.0317 83.6382 49.3741L94.7167 76.3901C94.9434 76.8004 95.2757 77.1424 95.6791 77.3806C96.0825 77.6188 96.5423 77.7444 97.0106 77.7444C97.4789 77.7444 97.9386 77.6188 98.342 77.3806C98.7454 77.1424 99.0778 76.8004 99.3045 76.3901L110.32 49.4799V49.3741C113.065 46.1684 114.566 42.0796 114.548 37.8563ZM86.8095 54.0955L85.7101 51.4066C86.247 51.8583 86.8119 52.2756 87.4015 52.6558L86.8095 54.0955ZM88.9237 59.0499L87.5283 55.6834L88.522 53.2698C89.2704 53.685 90.0477 54.0458 90.8477 54.3496L88.7969 59.0499H88.9237ZM91.0379 64.0042L89.6426 60.6166L92.0528 54.7307C92.8903 54.979 93.7455 55.163 94.6109 55.2812L90.9111 64.0042H91.0379ZM93.1521 68.9585L91.5453 65.6345V65.5074L95.7738 55.3659C96.1966 55.3659 96.6195 55.3659 97.0423 55.3659C97.4651 55.3659 98.0571 55.3659 98.5434 55.3659L93.0042 68.9162L93.1521 68.9585ZM95.2664 73.8917L93.8921 70.5253L100.235 55.2388C101.292 55.0608 102.332 54.7916 103.343 54.4343L95.2664 73.8917ZM98.4377 76.0089C98.3251 76.2167 98.1587 76.3902 97.9559 76.5111C97.7531 76.632 97.5214 76.6958 97.2854 76.6958C97.0494 76.6958 96.8178 76.632 96.615 76.5111C96.4122 76.3902 96.2457 76.2167 96.1332 76.0089L95.9006 75.4373L104.442 53.7779C105.788 53.1443 107.052 52.3479 108.205 51.4066L98.4377 76.0089Z" fill="white"/>
<path d="M85.5833 30.4882C86.3989 31.6199 87.5909 32.4231 88.9449 32.7537C91.3551 33.156 92.3487 31.0599 94.5898 31.1657C94.5898 31.1657 92.1162 28.2016 89.7483 28.0534C88.1689 28.0656 86.6295 28.5524 85.3296 29.4508C86.3658 29.0792 87.4707 28.9397 88.5666 29.0421C89.6625 29.1445 90.7226 29.4864 91.6722 30.0436C89.6581 29.4274 87.4868 29.5859 85.5833 30.4882Z" fill="white"/>
<path d="M67.5913 42.1119L66.4074 42.366L66.8302 44.2927L64.7371 44.7373L64.4411 43.4035L63.2572 43.6575L63.5532 44.9914L61.6504 45.3937L61.2487 43.467L60.0647 43.721L60.7201 46.8334L68.2467 45.2243L67.5913 42.1119Z" fill="white"/>
<path d="M67.2742 38.2585H65.7731L64.8217 37.8563L67.2742 36.9035V35.5908L63.236 37.1788L59.5785 35.6332V36.9459L62.7075 38.2797L59.5785 38.3009L59.5996 39.5077L67.2953 39.4654L67.2742 38.2585Z" fill="white"/>
<path d="M61.7138 32.2879L65.7308 33.0713C65.9879 33.1405 66.2569 33.1536 66.5195 33.1098C66.7821 33.0659 67.0322 32.9662 67.253 32.8172C67.5972 32.5125 67.8328 32.1039 67.9244 31.6531C68.0159 31.2023 67.9584 30.734 67.7605 30.3189C67.6083 30.1004 67.4138 29.9147 67.1887 29.7729C66.9635 29.6311 66.7122 29.5359 66.4496 29.4931L62.4326 28.6886C61.9114 28.5782 61.3677 28.6689 60.9104 28.9427C60.5478 29.2327 60.3064 29.6481 60.2339 30.1071C60.119 30.5664 60.1872 31.0525 60.4241 31.4622C60.5713 31.6809 60.7616 31.867 60.9834 32.009C61.2053 32.1511 61.4539 32.246 61.7138 32.2879ZM61.7138 29.9378C61.8969 29.8636 62.1016 29.8636 62.2847 29.9378L66.3017 30.7423C66.4984 30.7699 66.6786 30.8676 66.8091 31.0176C66.868 31.1672 66.868 31.3337 66.8091 31.4834C66.7862 31.6483 66.7034 31.7991 66.5765 31.9068C66.4867 31.9471 66.3895 31.9679 66.2911 31.9679C66.1927 31.9679 66.0954 31.9471 66.0057 31.9068L62.0098 31.1234C61.735 31.1234 61.5658 30.9752 61.5024 30.8482C61.4697 30.7749 61.4529 30.6955 61.4529 30.6153C61.4529 30.535 61.4697 30.4557 61.5024 30.3824C61.4852 30.2233 61.5307 30.0638 61.6292 29.9378H61.7138Z" fill="white"/>
<path d="M68.3736 25.7457L62.3904 23.2473L61.9252 24.3695L69.029 27.3336L70.2552 24.3906L69.1347 23.9248L68.3736 25.7457Z" fill="white"/>
<path d="M66.4919 19.0551L69.8747 21.3418C70.0865 21.5023 70.3292 21.6171 70.5876 21.6791C70.8459 21.741 71.1143 21.7487 71.3758 21.7017C71.6028 21.6466 71.8169 21.5472 72.0055 21.4091C72.1942 21.2711 72.3538 21.0971 72.4751 20.8971C72.7524 20.5195 72.8736 20.0493 72.8134 19.5845C72.7614 19.3227 72.6555 19.0746 72.5027 18.8559C72.3498 18.6372 72.1533 18.4527 71.9255 18.3141L68.5427 16.0275C68.3309 15.867 68.0881 15.7521 67.8298 15.6902C67.5714 15.6282 67.3031 15.6205 67.0416 15.6676C66.5918 15.7859 66.2053 16.0743 65.9634 16.4721C65.6806 16.8477 65.552 17.3173 65.604 17.7848C65.656 18.0466 65.7618 18.2947 65.9147 18.5134C66.0676 18.7321 66.2641 18.9166 66.4919 19.0551ZM66.9571 17.1496C67.0839 16.9803 67.1896 16.8744 67.3165 16.8532C67.4091 16.8301 67.5055 16.8256 67.5998 16.8402C67.6942 16.8547 67.7847 16.8879 67.8662 16.9379L71.2489 19.2669C71.3376 19.3102 71.4157 19.3725 71.4778 19.4493C71.5399 19.5261 71.5844 19.6156 71.6083 19.7115C71.6151 19.7918 71.6055 19.8726 71.5801 19.9491C71.5546 20.0255 71.5139 20.096 71.4603 20.1561C71.4235 20.2273 71.3727 20.2902 71.3109 20.3412C71.2492 20.3921 71.1777 20.43 71.1009 20.4525C71.0026 20.4637 70.903 20.4544 70.8084 20.4253C70.7138 20.3961 70.6263 20.3478 70.5512 20.2831L67.1685 17.9754C67.0821 17.9288 67.0059 17.8655 66.9442 17.7892C66.8825 17.7128 66.8366 17.625 66.8091 17.5307C66.8023 17.4504 66.8119 17.3696 66.8373 17.2932C66.8628 17.2167 66.9035 17.1463 66.9571 17.0861V17.1496Z" fill="white"/>
<path d="M74.5894 11.6025L73.2786 12.8517L74.1242 13.7197L74.5471 13.3175L75.5619 14.3549C75.731 14.5455 75.8368 14.7148 75.8156 14.863C75.7773 15.0178 75.6949 15.1582 75.5786 15.2672C75.4623 15.3761 75.317 15.449 75.1602 15.477C75.0122 15.477 74.8431 15.477 74.6739 15.2018L71.8832 12.2588C71.7413 12.1248 71.6514 11.9448 71.6295 11.7507C71.6615 11.5908 71.7414 11.4444 71.8585 11.3309C71.9755 11.2175 72.1242 11.1424 72.2849 11.1155C72.3808 11.1241 72.4738 11.1531 72.5577 11.2005C72.6416 11.248 72.7143 11.3129 72.7711 11.3908L73.2574 11.8989L74.1242 11.052L73.5957 10.5862C73.4226 10.3843 73.2087 10.2215 72.9682 10.1084C72.7277 9.99524 72.466 9.93441 72.2003 9.92987C71.7356 9.95733 71.2957 10.149 70.9589 10.4708C70.6221 10.7926 70.4102 11.2236 70.3609 11.6872C70.3558 11.9518 70.4058 12.2147 70.5077 12.4589C70.6097 12.7031 70.7613 12.9234 70.9529 13.1057L73.786 16.0699C74.152 16.4567 74.6503 16.6911 75.1814 16.7262C75.6542 16.6996 76.0996 16.4955 76.4287 16.1546C76.6026 16.0029 76.7445 15.8181 76.8461 15.6109C76.9478 15.4036 77.0071 15.1782 77.0207 14.9477C77.0272 14.6829 76.9778 14.4197 76.8758 14.1752C76.7738 13.9308 76.6214 13.7107 76.4287 13.5292L74.5894 11.6025Z" fill="white"/>
<path d="M76.5325 6.09752L75.5348 6.77429L79.8504 13.1552L80.8482 12.4784L76.5325 6.09752Z" fill="white"/>
<path d="M80.7206 5.9283C80.8538 6.23229 81.0566 6.50064 81.3126 6.71168C81.5684 6.9385 81.8719 7.10491 82.2005 7.19864C82.4902 7.27752 82.7884 7.32019 83.0885 7.32568C83.2635 7.29684 83.442 7.29684 83.617 7.32568C83.7775 7.36801 83.9269 7.44487 84.0547 7.55091C84.1825 7.65695 84.2857 7.78962 84.357 7.93968L84.5684 8.46899C84.6115 8.5581 84.6339 8.65582 84.6339 8.75482C84.6339 8.85381 84.6115 8.95153 84.5684 9.04064C84.5684 9.16768 84.3993 9.25237 84.209 9.35823C84.0596 9.41721 83.8934 9.41721 83.7439 9.35823C83.5889 9.35823 83.462 9.21002 83.3633 8.91361L82.9616 8.0032L81.8623 8.51133L82.264 9.42175C82.362 9.66851 82.5104 9.89204 82.6997 10.078C82.889 10.2639 83.1151 10.4082 83.3633 10.5015C83.7972 10.6781 84.2826 10.6781 84.7164 10.5015C85.1491 10.3183 85.4965 9.97793 85.689 9.54878C85.78 9.30164 85.8176 9.03799 85.7994 8.77522C85.7811 8.51245 85.7075 8.25654 85.5833 8.02437L85.393 7.57975C85.259 7.26697 85.0564 6.98845 84.8002 6.76486C84.544 6.54127 84.2408 6.37836 83.913 6.28823C83.6096 6.20672 83.297 6.16404 82.9828 6.1612H82.4965C82.3352 6.11397 82.1858 6.03291 82.0582 5.9234C81.9307 5.81388 81.8278 5.67842 81.7565 5.52602V5.35664C81.7176 5.26641 81.6974 5.16913 81.6974 5.07082C81.6974 4.9725 81.7176 4.87522 81.7565 4.78499C81.8361 4.64546 81.964 4.54 82.116 4.48858C82.1936 4.36507 82.3141 4.27461 82.4542 4.23451C82.6022 4.23451 82.7291 4.40389 82.8348 4.65796L83.1308 5.27196L84.2302 4.76382L83.9765 4.23451C83.8752 3.9897 83.7256 3.76789 83.5367 3.58235C83.3478 3.39681 83.1235 3.25136 82.8771 3.15471C82.4266 3.02032 81.9417 3.06585 81.524 3.28175C81.3067 3.36773 81.1088 3.49629 80.9418 3.6599C80.7748 3.82351 80.6421 4.01886 80.5514 4.23451C80.4436 4.47784 80.3879 4.74109 80.3879 5.0073C80.3879 5.27351 80.4436 5.53676 80.5514 5.78009L80.7206 5.9283Z" fill="white"/>
<path d="M90.0443 8.55367L89.706 7.0716L89.9174 6.03416L91.3551 8.25726L92.6236 7.98202L90.2345 4.36154L90.9745 0.444641L89.6848 0.719882L89.0506 4.06512L88.374 1.0163L87.1901 1.27036L88.8603 8.80774L90.0443 8.55367Z" fill="white"/>
<path d="M95.8583 1.24917L95.9429 7.7491L97.148 7.72793L97.0634 1.228L98.2897 1.20683L98.2685 0L94.6109 0.0635172L94.6321 1.27034L95.8583 1.24917Z" fill="white"/>
<path d="M106.599 5.80123L107.782 6.18233L106.747 9.35819L107.909 9.73929L110.277 2.41364L109.114 2.03254L108.163 5.03902L106.979 4.65792L107.952 1.65143L106.81 1.2915L104.442 8.61716L105.584 8.99826L106.599 5.80123Z" fill="white"/>
<path d="M111.208 11.3273L112.053 10.3745L113.237 11.0732L112.814 12.2377L113.893 12.8728L116.43 5.44133L115.394 4.82733L110.129 10.6921L111.208 11.3273ZM114.611 7.3045L113.639 9.92988L112.793 9.44292L114.611 7.3045Z" fill="white"/>
<path d="M122.815 10.3745L120.193 13.2328L121.461 9.10416L120.954 8.63837L115.732 14.2914L116.62 15.1171L119.263 12.2588L117.973 16.3663L118.502 16.8533L123.724 11.1791L122.815 10.3745Z" fill="white"/>
<path d="M127.487 17.8272L128.459 17.1285L126.303 14.1432L125.33 14.8419L126.049 15.837L120.785 19.648L121.504 20.6219L126.747 16.8321L127.487 17.8272Z" fill="white"/>
<path d="M124.442 26.0209L132.096 24.3059L131.61 23.1838L126.472 24.4541L130.87 21.5112L130.362 20.389L123.956 24.9199L124.442 26.0209Z" fill="white"/>
<path d="M126.409 32.8807L127.593 32.6267L127.191 30.7L129.263 30.2554L129.559 31.5892L130.743 31.3352L130.447 30.0013L132.35 29.5779L132.751 31.5257L133.935 31.2716L133.28 28.1593L125.753 29.7684L126.409 32.8807Z" fill="white"/>
<path d="M126.726 36.6918H129.813V37.2423L126.726 37.8775V39.1266L130.109 38.3856C130.146 38.4577 130.196 38.5223 130.257 38.5761C130.446 38.7604 130.671 38.9027 130.919 38.9939C131.167 39.0851 131.431 39.1231 131.694 39.1055H132.519C132.766 39.1204 133.014 39.0833 133.246 38.9966C133.478 38.9099 133.69 38.7755 133.867 38.602C134.044 38.4285 134.183 38.2198 134.275 37.9892C134.367 37.7587 134.41 37.5115 134.4 37.2635V35.4426H126.705L126.726 36.6918ZM133.195 36.6918V37.3058C133.208 37.4711 133.163 37.6356 133.068 37.7716C132.912 37.894 132.717 37.9544 132.519 37.941H131.715C131.617 37.9564 131.516 37.9492 131.421 37.9199C131.326 37.8905 131.238 37.8398 131.166 37.7716C131.11 37.7011 131.072 37.6174 131.057 37.5285C131.043 37.4396 131.051 37.3484 131.081 37.2635V36.6495L133.195 36.6918Z" fill="white"/>
<path d="M126.24 42.8741L127.719 43.1705L128.565 43.7634L125.965 44.208L125.711 45.4783L129.982 44.7585L133.259 47.0028L133.512 45.7112L130.722 43.7845L133.787 44.3985L134.02 43.2129L126.472 41.6885L126.24 42.8741Z" fill="white"/>
<path d="M29.3241 141.432L34.8845 126.06H35.4765V146.725H34.3982V130.253L29.599 143.485H28.9647L24.1866 130.253V146.725H23.1083V126.06H23.7003L29.3241 141.432Z" fill="white"/>
<path d="M41.6922 147C40.6093 147.047 39.5497 146.676 38.7323 145.963C38.2956 145.515 37.9585 144.98 37.7435 144.392C37.5285 143.805 37.4404 143.178 37.485 142.554V139.738H38.5843V142.596C38.5409 143.07 38.5995 143.548 38.7564 143.997C38.9132 144.446 39.1646 144.857 39.4935 145.2C40.0763 145.711 40.8339 145.977 41.6077 145.941C42.4229 145.999 43.2281 145.733 43.8487 145.2C44.178 144.856 44.431 144.446 44.5913 143.998C44.7516 143.549 44.8156 143.071 44.779 142.596V126.06H45.8572V142.554C45.8991 143.18 45.8076 143.807 45.5889 144.395C45.3702 144.982 45.0293 145.517 44.5887 145.963C43.7875 146.66 42.7535 147.031 41.6922 147Z" fill="white"/>
<path d="M52.1153 147C51.0252 147.052 49.957 146.681 49.1343 145.963C48.6975 145.515 48.3604 144.98 48.1454 144.392C47.9304 143.805 47.8423 143.178 47.8869 142.554V126.06H48.9863V142.554C48.9493 143.026 49.0089 143.5 49.1616 143.948C49.3143 144.396 49.5568 144.807 49.8742 145.158C50.4949 145.69 51.3 145.957 52.1153 145.899C52.928 145.937 53.7262 145.673 54.3564 145.158C54.6738 144.807 54.9163 144.396 55.069 143.948C55.2217 143.5 55.2813 143.026 55.2443 142.554V126.06H56.3226V142.554C56.3699 143.176 56.2852 143.802 56.0738 144.39C55.8625 144.977 55.5293 145.513 55.0963 145.963C54.2736 146.681 53.2054 147.052 52.1153 147Z" fill="white"/>
<path d="M67.401 126.06L63.1726 135.863L67.401 146.725H66.2594L62.4961 137.24L59.5573 143.972V146.725H58.4791V126.06H59.5573V141.474L66.2382 126.06H67.401Z" fill="white"/>
<path d="M72.7077 147C71.632 147.041 70.581 146.67 69.769 145.963C69.325 145.519 68.9818 144.985 68.7629 144.397C68.544 143.809 68.4544 143.18 68.5004 142.554V130.231C68.4544 129.605 68.544 128.977 68.7629 128.388C68.9818 127.8 69.325 127.266 69.769 126.823C70.6089 126.149 71.6529 125.782 72.7289 125.782C73.8049 125.782 74.8488 126.149 75.6888 126.823C76.1327 127.266 76.4759 127.8 76.6948 128.388C76.9138 128.977 77.0033 129.605 76.9573 130.231V132.349H75.879V130.231C75.9156 129.756 75.8517 129.279 75.6914 128.83C75.5311 128.381 75.278 127.971 74.9488 127.627C74.3206 127.108 73.521 126.844 72.7077 126.886C71.937 126.871 71.1867 127.134 70.5935 127.627C70.2646 127.971 70.0133 128.381 69.8564 128.83C69.6996 129.28 69.6409 129.758 69.6844 130.231V142.554C69.6409 143.028 69.6996 143.506 69.8564 143.955C70.0133 144.404 70.2646 144.814 70.5935 145.158C71.1797 145.663 71.9349 145.928 72.7077 145.899C73.523 145.957 74.3281 145.69 74.9488 145.158C75.278 144.814 75.5311 144.404 75.6914 143.955C75.8517 143.507 75.9156 143.029 75.879 142.554V136.922H72.75V135.842H76.9784V142.554C77.0244 143.18 76.9349 143.809 76.716 144.397C76.4971 144.985 76.1539 145.519 75.7099 145.963C74.8818 146.686 73.805 147.058 72.7077 147Z" fill="white"/>
<path d="M79.1349 146.725V126.06H80.34V145.645H86.6827V146.725H79.1349Z" fill="white"/>
<path d="M97 146.725L95.8372 141.305H90.1288L88.966 146.725H87.8455L92.4333 126.06H93.5327L98.1205 146.725H97ZM90.4037 140.204H95.5623L93.0253 128.326L90.4037 140.204Z" fill="white"/>
<path d="M103.765 147C102.675 147.052 101.607 146.681 100.784 145.963C100.344 145.517 100.003 144.982 99.7842 144.395C99.5655 143.807 99.4741 143.18 99.5159 142.554V139.547H100.615V142.554C100.57 143.024 100.624 143.499 100.774 143.948C100.923 144.396 101.164 144.809 101.482 145.158C102.123 145.639 102.902 145.899 103.702 145.899C104.503 145.899 105.282 145.639 105.922 145.158C106.253 144.815 106.508 144.406 106.668 143.957C106.829 143.508 106.892 143.029 106.852 142.554V141.114C106.892 140.536 106.814 139.956 106.621 139.41C106.428 138.864 106.125 138.363 105.732 137.938C105.115 137.308 104.392 136.792 103.596 136.414C102.597 136.016 101.685 135.426 100.911 134.678C100.424 134.165 100.051 133.555 99.8172 132.887C99.5838 132.218 99.4955 131.508 99.5582 130.803V130.231C99.5163 129.606 99.6078 128.978 99.8265 128.391C100.045 127.803 100.386 127.268 100.827 126.823C101.649 126.105 102.718 125.733 103.808 125.785C104.898 125.733 105.966 126.105 106.789 126.823C107.222 127.272 107.555 127.808 107.766 128.396C107.978 128.983 108.062 129.609 108.015 130.231V132.222H106.937V130.231C106.976 129.756 106.913 129.278 106.753 128.829C106.593 128.379 106.338 127.97 106.007 127.627C105.424 127.116 104.666 126.851 103.892 126.886C103.077 126.829 102.272 127.095 101.651 127.627C101.326 127.973 101.077 128.384 100.92 128.832C100.763 129.281 100.703 129.758 100.742 130.231V130.803C100.71 131.569 100.876 132.33 101.224 133.013C101.573 133.695 102.091 134.276 102.73 134.699C103.172 134.98 103.639 135.221 104.125 135.419C105.303 135.826 106.323 136.596 107.037 137.619C107.751 138.642 108.123 139.866 108.1 141.114V142.554C108.147 143.176 108.062 143.802 107.851 144.39C107.639 144.977 107.306 145.513 106.873 145.963C106.45 146.334 105.957 146.617 105.424 146.795C104.89 146.973 104.326 147.043 103.765 147Z" fill="white"/>
<path d="M113.998 147C112.908 147.052 111.84 146.681 111.017 145.963C110.577 145.517 110.236 144.982 110.017 144.395C109.798 143.807 109.707 143.18 109.749 142.554V139.547H110.827V142.554C110.79 143.029 110.854 143.507 111.015 143.955C111.175 144.404 111.428 144.814 111.757 145.158C112.398 145.639 113.177 145.899 113.977 145.899C114.778 145.899 115.557 145.639 116.197 145.158C116.526 144.814 116.777 144.404 116.934 143.955C117.091 143.506 117.15 143.028 117.106 142.554V141.114C117.155 140.535 117.081 139.953 116.888 139.405C116.695 138.858 116.387 138.357 115.986 137.938C115.38 137.304 114.664 136.788 113.871 136.414C112.872 136.016 111.96 135.426 111.186 134.678C110.699 134.165 110.326 133.555 110.092 132.887C109.859 132.218 109.771 131.508 109.833 130.803V130.231C109.791 129.606 109.883 128.978 110.102 128.391C110.32 127.803 110.661 127.268 111.102 126.823C111.925 126.105 112.993 125.733 114.083 125.785C115.166 125.738 116.225 126.11 117.043 126.823C117.483 127.268 117.822 127.803 118.037 128.391C118.253 128.979 118.339 129.607 118.29 130.231V132.222H117.191V130.231C117.234 129.758 117.176 129.28 117.019 128.83C116.862 128.381 116.61 127.971 116.282 127.627C115.699 127.116 114.941 126.851 114.167 126.886C113.352 126.829 112.547 127.095 111.926 127.627C111.597 127.971 111.344 128.381 111.184 128.83C111.023 129.279 110.959 129.756 110.996 130.231V130.803C110.972 131.57 111.144 132.33 111.496 133.012C111.847 133.694 112.367 134.274 113.005 134.699C113.368 135.001 113.757 135.27 114.167 135.503C115.346 135.91 116.365 136.681 117.079 137.704C117.793 138.727 118.166 139.951 118.142 141.199V142.639C118.191 143.263 118.105 143.891 117.889 144.479C117.674 145.067 117.335 145.602 116.895 146.047C116.081 146.714 115.048 147.054 113.998 147Z" fill="white"/>
<path d="M124.506 146.725H120.277V126.06H124.02C125.087 126.001 126.137 126.349 126.958 127.034C127.401 127.465 127.744 127.988 127.963 128.566C128.182 129.144 128.272 129.763 128.227 130.38V132.497C128.27 133.123 128.179 133.751 127.961 134.339C127.742 134.926 127.4 135.461 126.958 135.906C126.838 136.051 126.686 136.167 126.514 136.244C126.855 136.419 127.174 136.632 127.466 136.88C127.906 137.321 128.247 137.852 128.465 138.436C128.684 139.02 128.776 139.645 128.734 140.267V142.384C128.783 143.004 128.694 143.627 128.475 144.209C128.256 144.791 127.911 145.317 127.466 145.751C126.632 146.428 125.578 146.775 124.506 146.725ZM121.356 135.863H124.02C124.792 135.892 125.548 135.628 126.134 135.122C126.469 134.782 126.726 134.373 126.886 133.923C127.047 133.473 127.108 132.994 127.064 132.518V130.401C127.112 129.941 127.057 129.477 126.904 129.041C126.75 128.605 126.502 128.209 126.176 127.881C125.542 127.375 124.745 127.119 123.935 127.161H121.356V135.863ZM121.356 145.645H124.506C124.939 145.7 125.379 145.653 125.791 145.508C126.203 145.363 126.576 145.123 126.88 144.809C127.183 144.495 127.41 144.114 127.541 143.697C127.672 143.279 127.704 142.837 127.635 142.406V140.288C127.684 139.804 127.627 139.316 127.471 138.855C127.314 138.395 127.06 137.974 126.726 137.621C126.098 137.102 125.298 136.837 124.485 136.88H121.356V145.645Z" fill="white"/>
<path d="M139.136 146.725L137.952 141.305H132.265L131.081 146.725H129.961L134.57 126.06H135.669L140.257 146.725H139.136ZM132.54 140.204H137.699L135.119 128.326L132.54 140.204Z" fill="white"/>
<path d="M150.405 146.725H149.242L146.367 137.621H143.026V146.725H141.948V126.06H146.177C147.267 126.008 148.335 126.38 149.158 127.098C149.594 127.541 149.931 128.073 150.146 128.657C150.361 129.241 150.449 129.865 150.405 130.486V133.111C150.447 133.735 150.357 134.361 150.143 134.948C149.928 135.535 149.592 136.071 149.158 136.52C148.663 136.941 148.076 137.238 147.445 137.388L150.405 146.725ZM148.291 135.715C148.62 135.371 148.871 134.961 149.028 134.512C149.185 134.063 149.243 133.585 149.2 133.111V130.486C149.243 130.012 149.185 129.534 149.028 129.084C148.871 128.635 148.62 128.225 148.291 127.881C147.699 127.385 146.948 127.122 146.177 127.14H143.026V136.456H146.177C146.984 136.502 147.778 136.236 148.396 135.715H148.291Z" fill="white"/>
<path d="M159.813 127.14H153.471V135.609H157.932V136.71H153.492V145.666H159.834V146.746H152.435V126.06H159.834L159.813 127.14Z" fill="white"/>
<path d="M170.723 126.06V146.725H170.131L163.048 129.893V146.725H161.97V126.06H162.541L169.623 142.893V126.06H170.723Z" fill="white"/>
</g>
<defs>
<clipPath id="clip0_3_10">
<rect width="194" height="147" fill="white"/>
</clipPath>
</defs>
</svg>
